<?xml version="1.0" encoding="utf-8"?>
<!-- Generator: Adobe Adobe Illustrator 24.2.0, SVG Export Plug-In . SVG Version: 6.00 Build 0)  -->
<svg version="1.1" xmlns="http://www.w3.org/2000/svg" xmlns:xlink="http://www.w3.org/1999/xlink" x="0px" y="0px" width="1000px"
	 height="1000px" viewBox="0 0 1000 1000" style="enable-background:new 0 0 1000 1000;" xml:space="preserve">
<style type="text/css">
	.st0{fill:none;stroke:#000000;stroke-miterlimit:10;}
	.st1{fill:#FFFFFF;stroke:#000000;stroke-miterlimit:10;}
	.st2{font-family:'MyriadPro-Regular';}
	.st3{font-size:20px;}
</style>
<g id="Capa_1">
	<line class="st0" x1="110.43" y1="222.58" x2="111.63" y2="997.95"/>
	<g>
		<g>
			<path d="M112.15,532.63c5.48-14.7,11.87-29.08,19.57-42.75c7.62-13.52,16.56-26.37,27.22-37.68
				c10.48-11.12,22.65-20.67,36.33-27.55c15.9-8,33.44-12.05,51.08-13.8c17.97-1.78,36.07-1.33,54.08-0.58
				c2.2,0.09,4.4,0.19,6.6,0.29c0.64,0.03,0.64-0.97,0-1c-18.25-0.81-36.56-1.54-54.81-0.21c-17.82,1.3-35.61,4.65-52.03,11.88
				c-14.21,6.25-27,15.38-38.04,26.25c-11.09,10.94-20.44,23.56-28.41,36.92c-8.09,13.57-14.79,27.93-20.53,42.64
				c-0.69,1.77-1.37,3.54-2.03,5.32C110.96,532.97,111.93,533.23,112.15,532.63L112.15,532.63z"/>
		</g>
	</g>
	<line class="st0" x1="287.29" y1="410.07" x2="798.01" y2="410.07"/>
	<line class="st0" x1="287.29" y1="410.07" x2="110.72" y2="409.17"/>
	<line class="st0" x1="798.01" y1="410.07" x2="798.01" y2="442"/>
	<line class="st0" x1="798.01" y1="442" x2="168.8" y2="442"/>
	<g>
		<g>
			<path d="M111.15,226.87c-2.35-9.6-5.9-18.91-10.68-27.57c-4.31-7.83-9.61-15.12-15.77-21.61c-5.66-5.96-12.07-11.25-19.06-15.58
				c-9.17-5.67-19.24-9.72-29.6-12.62c-10.23-2.87-20.71-4.66-31.19-6.31c-1.29-0.2-2.58-0.4-3.87-0.6c-0.63-0.1-0.9,0.87-0.27,0.96
				c10.36,1.61,20.74,3.24,30.91,5.8c10.45,2.64,20.66,6.31,30.07,11.6c7.29,4.1,13.99,9.18,19.95,15.05
				c6.28,6.19,11.73,13.2,16.23,20.79c4.94,8.32,8.73,17.31,11.33,26.63c0.34,1.23,0.67,2.47,0.97,3.71
				C110.34,227.76,111.31,227.5,111.15,226.87L111.15,226.87z"/>
		</g>
	</g>
	<line class="st0" x1="318.65" y1="410.07" x2="318.65" y2="421.09"/>
	<line class="st0" x1="380.98" y1="410.01" x2="380.98" y2="421.03"/>
	<line class="st0" x1="508.39" y1="410.8" x2="508.39" y2="421.83"/>
	<line class="st0" x1="565.62" y1="410.8" x2="565.62" y2="421.83"/>
	<line class="st0" x1="629.64" y1="410.07" x2="629.64" y2="421.09"/>
	<line class="st0" x1="443.56" y1="410.8" x2="443.56" y2="421.83"/>
	<line class="st0" x1="687.65" y1="410.8" x2="687.65" y2="421.83"/>
	<line class="st0" x1="750.02" y1="410.4" x2="750.02" y2="421.43"/>
	<line class="st0" x1="348.3" y1="411.01" x2="348.3" y2="422.03"/>
	<line class="st0" x1="413.52" y1="408.85" x2="413.52" y2="419.88"/>
	<line class="st0" x1="474.84" y1="409.93" x2="474.84" y2="420.96"/>
	<line class="st0" x1="537" y1="408.85" x2="537" y2="419.88"/>
	<line class="st0" x1="597.63" y1="411.01" x2="597.63" y2="422.03"/>
	<line class="st0" x1="658.65" y1="410.07" x2="658.65" y2="421.09"/>
	<line class="st0" x1="718.84" y1="411.01" x2="718.84" y2="422.03"/>
</g>
<g id="Capa_2">
	<path class="st0" d="M651.62,137.53h-283.7c-5.36,1.5-10.85,4.49-11.62,9.87v262.73H659.7V145.87
		C657.77,142.56,654.71,139.81,651.62,137.53z"/>
	<line class="st0" x1="514.13" y1="358.69" x2="533.09" y2="358.69"/>
	<line class="st0" x1="483.52" y1="358.69" x2="502.48" y2="358.69"/>
	<line class="st0" x1="533.09" y1="358.69" x2="533.09" y2="384.17"/>
	<line class="st0" x1="483.52" y1="358.69" x2="483.52" y2="384.17"/>
	<line class="st0" x1="533.09" y1="384.17" x2="514.13" y2="422.09"/>
	<line class="st0" x1="483.33" y1="384.17" x2="502.48" y2="422.09"/>
	<line class="st0" x1="502.48" y1="358.69" x2="502.48" y2="422.09"/>
	<line class="st0" x1="514.13" y1="358.69" x2="514.13" y2="422.09"/>
</g>
<g id="Capa_3">
	<path class="st1" d="M711.68,948.46c6.17,0.13,9.51-4.3,11.93-9.29V563.14c-0.83-2.87-1.88-5.67-3.44-8.12
		c-3.33-5.24-8.61-6.19-14.49-6.03c-0.82,0.02-1.54-0.12-2.15-0.39H341.55c-7.67,4.13-14.85,11.12-17.93,18.64V929.2
		c0.28,0.6,0.45,1.29,0.46,2.08c0.21,9.63,5.89,14.48,13.22,17.31h373.08C710.77,948.5,711.21,948.45,711.68,948.46z"/>
	<circle class="st1" cx="342.33" cy="563.81" r="5.97"/>
	<circle class="st1" cx="705.63" cy="563.81" r="5.97"/>
	<circle class="st1" cx="342.33" cy="934.21" r="5.97"/>
	<circle class="st1" cx="705.63" cy="934.21" r="5.97"/>
</g>
<g id="Capa_4">
	<g>
		<line class="st0" x1="323.61" y1="870.95" x2="344.45" y2="870.95"/>
		<line class="st0" x1="344.45" y1="870.95" x2="344.45" y2="864.81"/>
		<line class="st0" x1="344.45" y1="864.81" x2="323.61" y2="856.32"/>
		<line class="st0" x1="323.73" y1="880.27" x2="344.56" y2="880.27"/>
		<line class="st0" x1="344.56" y1="880.27" x2="344.56" y2="886.4"/>
		<line class="st0" x1="344.56" y1="886.4" x2="323.73" y2="894.9"/>
		<line class="st0" x1="323.67" y1="801.94" x2="344.5" y2="801.94"/>
		<line class="st0" x1="344.5" y1="801.94" x2="344.5" y2="795.8"/>
		<line class="st0" x1="344.5" y1="795.8" x2="323.67" y2="787.31"/>
		<line class="st0" x1="323.78" y1="811.26" x2="344.62" y2="811.26"/>
		<line class="st0" x1="344.62" y1="811.26" x2="344.62" y2="817.4"/>
		<line class="st0" x1="344.62" y1="817.4" x2="323.78" y2="825.89"/>
		<line class="st0" x1="323.67" y1="734.94" x2="344.5" y2="734.94"/>
		<line class="st0" x1="344.5" y1="734.94" x2="344.5" y2="728.8"/>
		<line class="st0" x1="344.5" y1="728.8" x2="323.67" y2="720.31"/>
		<line class="st0" x1="323.78" y1="744.26" x2="344.62" y2="744.26"/>
		<line class="st0" x1="344.62" y1="744.26" x2="344.62" y2="750.4"/>
		<line class="st0" x1="344.62" y1="750.4" x2="323.78" y2="758.89"/>
		<line class="st0" x1="323.67" y1="667.94" x2="344.5" y2="667.94"/>
		<line class="st0" x1="344.5" y1="667.94" x2="344.5" y2="661.8"/>
		<line class="st0" x1="344.5" y1="661.8" x2="323.67" y2="653.31"/>
		<line class="st0" x1="323.78" y1="677.26" x2="344.62" y2="677.26"/>
		<line class="st0" x1="344.62" y1="677.26" x2="344.62" y2="683.4"/>
		<line class="st0" x1="344.62" y1="683.4" x2="323.78" y2="691.89"/>
		<line class="st0" x1="323.56" y1="601.77" x2="344.39" y2="601.77"/>
		<line class="st0" x1="344.39" y1="601.77" x2="344.39" y2="595.63"/>
		<line class="st0" x1="344.39" y1="595.63" x2="323.56" y2="587.14"/>
		<line class="st0" x1="323.67" y1="611.09" x2="344.5" y2="611.09"/>
		<line class="st0" x1="344.5" y1="611.09" x2="344.5" y2="617.22"/>
		<line class="st0" x1="344.5" y1="617.22" x2="323.67" y2="625.72"/>
		<line class="st0" x1="722.07" y1="872.19" x2="701.24" y2="872.19"/>
		<line class="st0" x1="701.24" y1="872.19" x2="701.24" y2="866.05"/>
		<line class="st0" x1="701.24" y1="866.05" x2="722.07" y2="857.56"/>
		<line class="st0" x1="721.96" y1="881.51" x2="701.12" y2="881.51"/>
		<line class="st0" x1="701.12" y1="881.51" x2="701.12" y2="887.65"/>
		<line class="st0" x1="701.12" y1="887.65" x2="721.96" y2="896.14"/>
		<line class="st0" x1="722.01" y1="803.18" x2="701.18" y2="803.18"/>
		<line class="st0" x1="701.18" y1="803.18" x2="701.18" y2="797.04"/>
		<line class="st0" x1="701.18" y1="797.04" x2="722.01" y2="788.55"/>
		<line class="st0" x1="721.9" y1="812.5" x2="701.07" y2="812.5"/>
		<line class="st0" x1="701.07" y1="812.5" x2="701.07" y2="818.64"/>
		<line class="st0" x1="701.07" y1="818.64" x2="721.9" y2="827.13"/>
		<line class="st0" x1="722.01" y1="736.18" x2="701.18" y2="736.18"/>
		<line class="st0" x1="701.18" y1="736.18" x2="701.18" y2="730.04"/>
		<line class="st0" x1="701.18" y1="730.04" x2="722.01" y2="721.55"/>
		<line class="st0" x1="721.9" y1="745.5" x2="701.07" y2="745.5"/>
		<line class="st0" x1="701.07" y1="745.5" x2="701.07" y2="751.64"/>
		<line class="st0" x1="701.07" y1="751.64" x2="721.9" y2="760.13"/>
		<line class="st0" x1="722.01" y1="669.18" x2="701.18" y2="669.18"/>
		<line class="st0" x1="701.18" y1="669.18" x2="701.18" y2="663.04"/>
		<line class="st0" x1="701.18" y1="663.04" x2="722.01" y2="654.55"/>
		<line class="st0" x1="721.9" y1="678.5" x2="701.07" y2="678.5"/>
		<line class="st0" x1="701.07" y1="678.5" x2="701.07" y2="684.64"/>
		<line class="st0" x1="701.07" y1="684.64" x2="721.9" y2="693.13"/>
		<line class="st0" x1="722.13" y1="603.01" x2="701.29" y2="603.01"/>
		<line class="st0" x1="701.29" y1="603.01" x2="701.29" y2="596.87"/>
		<line class="st0" x1="701.29" y1="596.87" x2="722.13" y2="588.38"/>
		<line class="st0" x1="722.01" y1="612.33" x2="701.18" y2="612.33"/>
		<line class="st0" x1="701.18" y1="612.33" x2="701.18" y2="618.47"/>
		<line class="st0" x1="701.18" y1="618.47" x2="722.01" y2="626.96"/>
	</g>
</g>
<g id="Capa_5">
	<g>
		<rect x="344.45" y="870.95" class="st0" width="356.68" height="10.56"/>
	</g>
	<g>
		<rect x="344.45" y="801.32" class="st0" width="356.68" height="10.56"/>
	</g>
	<g>
		<rect x="345.28" y="735.56" class="st0" width="356.68" height="10.56"/>
	</g>
	<g>
		<rect x="345.28" y="668.56" class="st0" width="356.68" height="10.56"/>
	</g>
	<g>
		<rect x="344.45" y="601.15" class="st0" width="356.68" height="10.56"/>
	</g>
</g>
<g id="Capa_6">
	<text transform="matrix(1 0 0 1 308.3907 438.5703)" class="st2 st3">23</text>
	<text transform="matrix(1 0 0 1 370.7238 438.835)" class="st2 st3">24</text>
	<text transform="matrix(1 0 0 1 433.2977 439.2448)" class="st2 st3">25</text>
	<text transform="matrix(1 0 0 1 497.7402 438.8911)" class="st2 st3">26</text>
	<text transform="matrix(1 0 0 1 555.3577 439.2447)" class="st2 st3">27</text>
	<text transform="matrix(1 0 0 1 619.384 438.835)" class="st2 st3">28</text>
	<text transform="matrix(1 0 0 1 677.3892 439.3057)" class="st2 st3">29</text>
	<text transform="matrix(1 0 0 1 739.7633 438.835)" class="st2 st3">30</text>
</g>
</svg>
