<?xml version="1.0" encoding="UTF-8"?>
<svg xmlns="http://www.w3.org/2000/svg" viewBox="0 0 883.37 1005.29">
  <defs>
    <style>
      .cls-1 {
        fill: #fff;
      }

      .cls-2 {
        fill: none;
        stroke: #1d1d1b;
        stroke-miterlimit: 10;
      }

      .cls-3 {
        fill: #1d1d1b;
        font-family: MyriadPro-Regular, 'Myriad Pro';
        font-size: 21.94px;
      }
    </style>
  </defs>
  <g id="Capa_1" data-name="Capa 1">
    <path class="cls-2" d="m106.09,925.41c217.39,38.68,439.96,39.44,657.85,2.14"/>
    <path class="cls-2" d="m105.71,94.04c217.89-37.29,440.46-36.53,657.85,2.14"/>
    <line class="cls-2" x1="106.09" y1="94.01" x2="106.09" y2="925.41"/>
    <line class="cls-2" x1="763.56" y1="96.18" x2="763.56" y2="927.59"/>
    <line class="cls-2" x1=".5" y1="1005.29" x2=".5"/>
    <line class="cls-2" x1="882.87" y1="1005.29" x2="882.87" y2="5.29"/>
    <circle class="cls-2" cx="441.53" cy="47.76" r="7.89"/>
    <rect class="cls-2" x="300.91" y="85.11" width="279.5" height="854.68"/>
    <line class="cls-2" x1="367.85" y1="939.79" x2="367.82" y2="85.11"/>
    <line class="cls-2" x1="513.9" y1="939.79" x2="513.87" y2="85.11"/>
    <g>
      <rect class="cls-2" x="368.25" y="768.63" width="145.65" height="31.7"/>
      <rect class="cls-2" x="473.87" y="768.63" width="40.03" height="31.7"/>
      <text class="cls-3" transform="translate(499.92 791.8) rotate(-90)"><tspan x="0" y="0">3</tspan></text>
    </g>
    <g>
      <rect class="cls-2" x="367.94" y="704.39" width="145.65" height="31.7"/>
      <rect class="cls-2" x="472.95" y="704.39" width="40.03" height="31.7"/>
      <text class="cls-3" transform="translate(499.01 727.38) rotate(-90)"><tspan x="0" y="0">4</tspan></text>
    </g>
    <g>
      <rect class="cls-2" x="367.84" y="640.15" width="145.65" height="31.7"/>
      <rect class="cls-2" x="473.46" y="640.15" width="40.03" height="31.7"/>
      <text class="cls-3" transform="translate(499.51 664.17) rotate(-90)"><tspan x="0" y="0">5</tspan></text>
    </g>
    <g>
      <rect class="cls-2" x="367.84" y="575.9" width="145.65" height="31.7"/>
      <rect class="cls-2" x="473.15" y="575.9" width="40.03" height="31.7"/>
      <text class="cls-3" transform="translate(497.58 599.59) rotate(-90)"><tspan x="0" y="0">6</tspan></text>
    </g>
    <g>
      <rect class="cls-2" x="367.84" y="511.66" width="145.65" height="31.7"/>
      <rect class="cls-2" x="472.54" y="511.66" width="40.03" height="31.7"/>
      <text class="cls-3" transform="translate(498.84 532.43) rotate(-90)"><tspan x="0" y="0">7</tspan></text>
    </g>
    <g>
      <rect class="cls-2" x="368.55" y="447.41" width="145.65" height="31.7"/>
      <rect class="cls-2" x="473.87" y="447.41" width="40.03" height="31.7"/>
      <text class="cls-3" transform="translate(500.4 467.82) rotate(-90)"><tspan x="0" y="0">8</tspan></text>
    </g>
    <g>
      <rect class="cls-2" x="367.84" y="383.17" width="145.65" height="31.7"/>
      <rect class="cls-2" x="473" y="383.17" width="40.03" height="31.7"/>
      <text class="cls-3" transform="translate(499.54 404.11) rotate(-90)"><tspan x="0" y="0">9</tspan></text>
    </g>
    <g>
      <rect class="cls-2" x="368.55" y="897.12" width="145.65" height="31.7"/>
      <rect class="cls-2" x="473.7" y="897.12" width="40.03" height="31.7"/>
      <text class="cls-3" transform="translate(499.16 919) rotate(-90)"><tspan x="0" y="0">1</tspan></text>
    </g>
    <g>
      <rect class="cls-2" x="368.33" y="318.93" width="145.65" height="31.7"/>
      <rect class="cls-2" x="474.09" y="318.93" width="40.03" height="31.7"/>
      <text class="cls-3" transform="translate(500.27 346.32) rotate(-90)"><tspan x="0" y="0">10</tspan></text>
    </g>
    <g>
      <rect class="cls-2" x="367.84" y="254.68" width="145.65" height="31.7"/>
      <rect class="cls-2" x="472.69" y="254.68" width="40.03" height="31.7"/>
      <text class="cls-3" transform="translate(499.71 282.82) rotate(-90)"><tspan x="0" y="0">11</tspan></text>
    </g>
    <g>
      <text class="cls-3" transform="translate(498.63 854.98) rotate(-90)"><tspan x="0" y="0">2</tspan></text>
      <rect class="cls-2" x="368.33" y="832.88" width="145.65" height="31.7"/>
      <rect class="cls-2" x="473.95" y="832.88" width="40.03" height="31.7"/>
    </g>
    <g>
      <rect class="cls-2" x="368.71" y="188.54" width="145.65" height="31.7"/>
      <rect class="cls-2" x="473.87" y="188.54" width="40.03" height="31.7"/>
      <text class="cls-3" transform="translate(500.89 216.96) rotate(-90)"><tspan x="0" y="0">12</tspan></text>
    </g>
    <g>
      <rect class="cls-2" x="368.25" y="122.4" width="145.65" height="31.7"/>
      <rect class="cls-2" x="473.87" y="122.4" width="40.03" height="31.7"/>
      <text class="cls-3" transform="translate(500.89 151.09) rotate(-90)"><tspan x="0" y="0">13</tspan></text>
    </g>
  </g>
  <g id="Capa_5" data-name="Capa 5">
    <ellipse class="cls-2" cx="551.28" cy="912.92" rx="3.46" ry="10.9"/>
    <g>
      <rect class="cls-2" x="514.2" y="902.02" width="36.96" height="21.8"/>
      <path class="cls-1" d="m551.21,911.48c3.22,0,3.22-5,0-5s-3.22,5,0,5h0Z"/>
      <path class="cls-1" d="m551.51,915.77c3.22,0,3.22-5,0-5s-3.22,5,0,5h0Z"/>
      <path class="cls-1" d="m551.34,920.15c3.22,0,3.22-5,0-5s-3.22,5,0,5h0Z"/>
      <path class="cls-1" d="m551.93,920.65c-.02-.24-.06-.47-.14-.69l-.06-.15-.1-.13-.13-.1c-.07-.05-.15-.07-.23-.07-.06-.01-.11-.01-.17,0-.06,0-.11.01-.16.04-.05.01-.1.04-.14.08-.07.04-.12.1-.16.18-.08.14-.13.29-.16.46s-.04.33-.04.49c0,.09.01.17.05.24.03.08.07.14.13.2.06.06.12.1.2.13.07.04.15.06.24.05.16,0,.33-.06.44-.18l.1-.13c.06-.1.08-.2.09-.32l.02-.31c0-.09-.01-.17-.05-.24-.03-.08-.07-.14-.13-.2-.06-.06-.12-.1-.2-.13-.07-.04-.15-.06-.24-.05-.16,0-.33.06-.44.18l-.1.13c-.06.1-.08.2-.09.32,0,.09-.01.19,0,.28,0,.02,0,.04,0,.07,0,.07.01.15.03.21l.06.15s0,0,0,.01c.02.04.08.11.11.14.03.03.1.08.13.1.07.05.15.07.23.07.03,0,.06.01.09.01.16,0,.33-.07.44-.18.06-.06.1-.12.13-.2.04-.07.06-.15.05-.24,0-.16-.06-.33-.18-.44s-.27-.19-.44-.18h0c.11.03.21.06.32.09h0s.08.06.13.09h0s.07.08.1.12c0,0,0-.01,0-.02l.06.15s0-.01,0-.02l.02.17c-.02-.13-.02-.25,0-.38h-1.25l-.02.31h1.25c0-.11,0-.22.02-.33l-.02.17c.01-.09.03-.17.06-.25l-.06.15s.02-.04.03-.06l-1.14-.15c.05.14.09.28.11.43l-.02-.17s0,.06.01.1c0,.09.01.17.05.24.03.08.07.14.13.2.06.06.12.1.2.13.07.04.15.06.24.05.16,0,.33-.06.44-.18.11-.12.2-.28.18-.44h0Z"/>
      <path class="cls-1" d="m551.22,923.24c.8,0,.81-1.25,0-1.25s-.81,1.25,0,1.25h0Z"/>
      <path class="cls-1" d="m551.84,922.45c.01-.15-.03-.29-.01-.44l-.02.17c.01-.07.03-.13.06-.19.01-.03.02-.07.03-.1.02-.08.03-.16.03-.23,0-.33-.19-.6-.47-.77-.31-.19-.72-.07-.9.24-.08.14-.11.31-.11.47,0,.19.06.37.08.56l-.02-.17c.02.13.03.27.04.41,0,.09.01.17.05.24.03.08.07.14.13.2.11.11.29.19.44.18s.33-.06.44-.18c.11-.12.2-.28.18-.44-.01-.13-.02-.25-.04-.38-.01-.11-.03-.22-.05-.32-.01-.06-.03-.12-.03-.18l.02.17s0-.1,0-.14l-.02.17s.01-.06.02-.09l-.06.15s0-.01.01-.02l-.1.13h0c-.09.05-.18.1-.28.15h.01c-.11,0-.22,0-.33,0h.01s-.1-.04-.15-.06c.03.02.05.03.08.05l-.13-.1s.03.03.05.04l-.1-.13s.02.03.03.04l-.06-.15s.01.04.02.06l-.02-.17s0,.04,0,.07l.02-.17c0,.06-.03.12-.05.18-.04.11-.05.22-.06.33-.01.14.03.27.01.41-.01.15.08.34.18.44s.29.19.44.18.33-.06.44-.18l.1-.13c.06-.1.08-.2.09-.32h0Z"/>
      <path class="cls-1" d="m551.09,923.17c.8,0,.81-1.25,0-1.25s-.81,1.25,0,1.25h0Z"/>
      <path class="cls-1" d="m551.35,923.24c.8,0,.81-1.25,0-1.25s-.81,1.25,0,1.25h0Z"/>
      <path class="cls-1" d="m551.37,923.26c.8,0,.81-1.25,0-1.25s-.81,1.25,0,1.25h0Z"/>
      <path class="cls-1" d="m551.65,906.85l.21-.9c.08-.33.18-.68.14-1.02-.03-.26-.14-.47-.38-.57-.22-.09-.52-.06-.68.13-.28.31-.49.66-.63,1.05-.11.29.1.63.36.74.28.12.63.02.78-.26.21-.36.37-.74.35-1.16,0-.04,0-.08,0-.11,0-.05,0-.03,0,.05v-.04c.04-.07.07-.14.09-.21.07-.23.07-.49,0-.72-.14-.43-.71-.64-1.04-.28-.17.18-.3.41-.34.66-.03.17-.03.33.06.48.08.13.22.25.37.29.3.07.71-.09.77-.44,0-.03,0-.06.02-.08.02-.06.02-.06-.02.03.01-.03.03-.05.04-.07-.06.07-.06.08-.02.03l-1.04-.28s.01.07.02.08c0-.09-.01-.11-.01-.06,0,.01,0,.03,0,.04,0,.07.03-.1,0-.04-.02.03-.02.07-.04.11-.06.17-.1.34-.09.51,0,.02,0,.18,0,.18.01-.08.02-.1,0-.05,0,.02,0,.03,0,.05,0,.03-.02.06-.03.09,0,.02-.01.05-.02.07l.03-.06s-.03.07-.04.09c-.04.07-.08.14-.11.21l1.14.48c.03-.09,0,.02-.01.02.01,0,.04-.09.05-.1.03-.06.06-.12.1-.18.03-.05.07-.1.1-.15.07-.1-.05.05,0,0,.03-.03.05-.06.08-.09l-1.07-.44c0,.07,0,.14,0,.21,0,.08.01.03,0-.01,0,.03-.01.08-.02.1-.03.15-.07.29-.1.44l-.19.85c-.07.32.1.69.44.77.32.07.69-.1.77-.44h0Z"/>
      <path class="cls-1" d="m550.66,903.04s-.03.05-.05.08l.1-.13s-.02.03-.04.04l1.07.44s0-.02,0-.03c0-.09-.01-.17-.05-.24-.03-.08-.07-.14-.13-.2-.06-.06-.12-.1-.2-.13-.07-.04-.15-.06-.24-.05l-.17.02c-.11.03-.2.08-.28.16l-.1.13c-.06.1-.08.2-.09.32,0,0,0,.02,0,.03l.02.17.06.15.1.13c.06.06.12.1.2.13.05.03.1.04.16.04.06.01.11.01.17,0,.06,0,.11-.01.16-.04.08-.03.14-.07.2-.13,0,0,.02-.02.03-.03,0,0,0-.01.01-.02.04-.05.07-.09.11-.14.01-.02.03-.04.04-.07.05-.07.07-.15.07-.23.02-.08.01-.17-.01-.25-.02-.08-.06-.15-.11-.21-.04-.07-.1-.12-.18-.16l-.15-.06c-.11-.03-.22-.03-.33,0l-.15.06c-.09.06-.17.13-.22.22h0Z"/>
      <path class="cls-1" d="m551.2,903.85c.8,0,.81-1.25,0-1.25s-.81,1.25,0,1.25h0Z"/>
      <path class="cls-1" d="m551.09,903.91c.8,0,.81-1.25,0-1.25s-.81,1.25,0,1.25h0Z"/>
      <path class="cls-1" d="m551.41,903.85c.8,0,.81-1.25,0-1.25s-.81,1.25,0,1.25h0Z"/>
    </g>
    <ellipse class="cls-2" cx="551.28" cy="848.73" rx="3.46" ry="10.9"/>
    <g>
      <rect class="cls-2" x="514.2" y="837.83" width="36.96" height="21.8"/>
      <path class="cls-1" d="m551.21,847.28c3.22,0,3.22-5,0-5s-3.22,5,0,5h0Z"/>
      <path class="cls-1" d="m551.52,851.57c3.22,0,3.22-5,0-5s-3.22,5,0,5h0Z"/>
      <path class="cls-1" d="m551.34,855.95c3.22,0,3.22-5,0-5s-3.22,5,0,5h0Z"/>
      <path class="cls-1" d="m551.93,856.45c-.02-.24-.06-.47-.14-.69l-.06-.15-.1-.13-.13-.1c-.07-.05-.15-.07-.23-.07-.06-.01-.11-.01-.17,0-.06,0-.11.01-.16.04-.05.01-.1.04-.14.08-.07.04-.12.1-.16.18-.08.14-.13.29-.16.46s-.04.33-.04.49c0,.09.01.17.05.24.03.08.07.14.13.2.06.06.12.1.2.13.07.04.15.06.24.05.16,0,.33-.06.44-.18l.1-.13c.06-.1.08-.2.09-.32l.02-.31c0-.09-.01-.17-.05-.24-.03-.08-.07-.14-.13-.2-.06-.06-.12-.1-.2-.13-.07-.04-.15-.06-.24-.05-.16,0-.33.06-.44.18l-.1.13c-.06.1-.08.2-.09.32,0,.09-.01.19,0,.28,0,.02,0,.04,0,.07,0,.07.01.15.03.21l.06.15s0,0,0,.01c.02.04.08.11.11.14.03.03.1.08.13.1.07.05.15.07.23.07.03,0,.06.01.09.01.16,0,.33-.07.44-.18.06-.06.1-.12.13-.2.04-.07.06-.15.05-.24,0-.16-.06-.33-.18-.44s-.27-.19-.44-.18h0c.11.03.21.06.32.09h0s.08.06.13.09h0s.07.08.1.12c0,0,0-.01,0-.02l.06.15s0-.01,0-.02l.02.17c-.02-.13-.02-.25,0-.38h-1.25l-.02.31h1.25c0-.11,0-.22.02-.33l-.02.17c.01-.09.03-.17.06-.25l-.06.15s.02-.04.03-.06l-1.14-.15c.05.14.09.28.11.43l-.02-.17s0,.06.01.1c0,.09.01.17.05.24.03.08.07.14.13.2.06.06.12.1.2.13.07.04.15.06.24.05.16,0,.33-.06.44-.18.11-.12.2-.28.18-.44h0Z"/>
      <path class="cls-1" d="m551.22,859.05c.8,0,.81-1.25,0-1.25s-.81,1.25,0,1.25h0Z"/>
      <path class="cls-1" d="m551.84,858.25c.01-.15-.03-.29-.01-.44l-.02.17c.01-.07.03-.13.06-.19.01-.03.02-.07.03-.1.02-.08.03-.16.03-.23,0-.33-.19-.6-.47-.77-.31-.19-.72-.07-.9.24-.08.14-.11.31-.11.47,0,.19.06.37.08.56l-.02-.17c.02.13.03.27.04.41,0,.09.01.17.05.24.03.08.07.14.13.2.11.11.29.19.44.18s.33-.06.44-.18c.11-.12.2-.28.18-.44-.01-.13-.02-.25-.04-.38-.01-.11-.03-.22-.05-.32-.01-.06-.03-.12-.03-.18l.02.17s0-.1,0-.14l-.02.17s.01-.06.02-.09l-.06.15s0-.01.01-.02l-.1.13h0c-.09.05-.18.1-.28.15h.01c-.11,0-.22,0-.33,0h.01s-.1-.04-.15-.06c.03.02.05.03.08.05l-.13-.1s.03.03.05.04l-.1-.13s.02.03.03.04l-.06-.15s.01.04.02.06l-.02-.17s0,.04,0,.07l.02-.17c0,.06-.03.12-.05.18-.04.11-.05.22-.06.33-.01.14.03.27.01.41-.01.15.08.34.18.44s.29.19.44.18.33-.06.44-.18l.1-.13c.06-.1.08-.2.09-.32h0Z"/>
      <path class="cls-1" d="m551.09,858.97c.8,0,.81-1.25,0-1.25s-.81,1.25,0,1.25h0Z"/>
      <path class="cls-1" d="m551.35,859.05c.8,0,.81-1.25,0-1.25s-.81,1.25,0,1.25h0Z"/>
      <path class="cls-1" d="m551.37,859.07c.8,0,.81-1.25,0-1.25s-.81,1.25,0,1.25h0Z"/>
      <path class="cls-1" d="m551.65,842.66l.21-.9c.08-.33.18-.68.14-1.02-.03-.26-.14-.47-.38-.57-.22-.09-.52-.06-.68.13-.28.31-.49.66-.63,1.05-.11.29.1.63.36.74.28.12.63.02.78-.26.21-.36.37-.74.35-1.16,0-.04,0-.08,0-.11,0-.05,0-.03,0,.05v-.04c.04-.07.07-.14.09-.21.07-.23.07-.49,0-.72-.14-.43-.71-.64-1.04-.28-.17.18-.3.41-.34.66-.03.17-.03.33.06.48.08.13.22.25.37.29.3.07.71-.09.77-.44,0-.03,0-.06.02-.08.02-.06.02-.06-.02.03.01-.03.03-.05.04-.07-.06.07-.06.08-.02.03l-1.04-.28s.01.07.02.08c0-.09-.01-.11-.01-.06,0,.01,0,.03,0,.04,0,.07.03-.1,0-.04-.02.03-.02.07-.04.11-.06.17-.1.34-.09.51,0,.02,0,.18,0,.18.01-.08.02-.1,0-.05,0,.02,0,.03,0,.05,0,.03-.02.06-.03.09,0,.02-.01.05-.02.07l.03-.06s-.03.07-.04.09c-.04.07-.08.14-.11.21l1.14.48c.03-.09,0,.02-.01.02.01,0,.04-.09.05-.1.03-.06.06-.12.1-.18.03-.05.07-.1.1-.15.07-.1-.05.05,0,0,.03-.03.05-.06.08-.09l-1.07-.44c0,.07,0,.14,0,.21,0,.08.01.03,0-.01,0,.03-.01.08-.02.1-.03.15-.07.29-.1.44l-.19.85c-.07.32.1.69.44.77.32.07.69-.1.77-.44h0Z"/>
      <path class="cls-1" d="m550.66,838.84s-.03.05-.05.08l.1-.13s-.02.03-.04.04l1.07.44s0-.02,0-.03c0-.09-.01-.17-.05-.24-.03-.08-.07-.14-.13-.2-.06-.06-.12-.1-.2-.13-.07-.04-.15-.06-.24-.05l-.17.02c-.11.03-.2.08-.28.16l-.1.13c-.06.1-.08.2-.09.32,0,0,0,.02,0,.03l.02.17.06.15.1.13c.06.06.12.1.2.13.05.03.1.04.16.04.06.01.11.01.17,0,.06,0,.11-.01.16-.04.08-.03.14-.07.2-.13,0,0,.02-.02.03-.03,0,0,0-.01.01-.02.04-.05.07-.09.11-.14.01-.02.03-.04.04-.07.05-.07.07-.15.07-.23.02-.08.01-.17-.01-.25-.02-.08-.06-.15-.11-.21-.04-.07-.1-.12-.18-.16l-.15-.06c-.11-.03-.22-.03-.33,0l-.15.06c-.09.06-.17.13-.22.22h0Z"/>
      <path class="cls-1" d="m551.2,839.66c.8,0,.81-1.25,0-1.25s-.81,1.25,0,1.25h0Z"/>
      <path class="cls-1" d="m551.09,839.72c.8,0,.81-1.25,0-1.25s-.81,1.25,0,1.25h0Z"/>
      <path class="cls-1" d="m551.41,839.66c.8,0,.81-1.25,0-1.25s-.81,1.25,0,1.25h0Z"/>
    </g>
    <ellipse class="cls-2" cx="551.28" cy="784.48" rx="3.46" ry="10.9"/>
    <g>
      <rect class="cls-2" x="514.2" y="773.58" width="36.96" height="21.8"/>
      <path class="cls-1" d="m551.21,783.04c3.22,0,3.22-5,0-5s-3.22,5,0,5h0Z"/>
      <path class="cls-1" d="m551.52,787.33c3.22,0,3.22-5,0-5s-3.22,5,0,5h0Z"/>
      <path class="cls-1" d="m551.34,791.71c3.22,0,3.22-5,0-5s-3.22,5,0,5h0Z"/>
      <path class="cls-1" d="m551.93,792.21c-.02-.24-.06-.47-.14-.69l-.06-.15-.1-.13-.13-.1c-.07-.05-.15-.07-.23-.07-.06-.01-.11-.01-.17,0-.06,0-.11.01-.16.04-.05.01-.1.04-.14.08-.07.04-.12.1-.16.18-.08.14-.13.29-.16.46s-.04.33-.04.49c0,.09.01.17.05.24.03.08.07.14.13.2.06.06.12.1.2.13.07.04.15.06.24.05.16,0,.33-.06.44-.18l.1-.13c.06-.1.08-.2.09-.32l.02-.31c0-.09-.01-.17-.05-.24-.03-.08-.07-.14-.13-.2-.06-.06-.12-.1-.2-.13-.07-.04-.15-.06-.24-.05-.16,0-.33.06-.44.18l-.1.13c-.06.1-.08.2-.09.32,0,.09-.01.19,0,.28,0,.02,0,.04,0,.07,0,.07.01.15.03.21l.06.15s0,0,0,.01c.02.04.08.11.11.14.03.03.1.08.13.1.07.05.15.07.23.07.03,0,.06.01.09.01.16,0,.33-.07.44-.18.06-.06.1-.12.13-.2.04-.07.06-.15.05-.24,0-.16-.06-.33-.18-.44s-.27-.19-.44-.18h0c.11.03.21.06.32.09h0s.08.06.13.09h0s.07.08.1.12c0,0,0-.01,0-.02l.06.15s0-.01,0-.02l.02.17c-.02-.13-.02-.25,0-.38h-1.25l-.02.31h1.25c0-.11,0-.22.02-.33l-.02.17c.01-.09.03-.17.06-.25l-.06.15s.02-.04.03-.06l-1.14-.15c.05.14.09.28.11.43l-.02-.17s0,.06.01.1c0,.09.01.17.05.24.03.08.07.14.13.2.06.06.12.1.2.13.07.04.15.06.24.05.16,0,.33-.06.44-.18.11-.12.2-.28.18-.44h0Z"/>
      <path class="cls-1" d="m551.22,794.8c.8,0,.81-1.25,0-1.25s-.81,1.25,0,1.25h0Z"/>
      <path class="cls-1" d="m551.84,794.01c.01-.15-.03-.29-.01-.44l-.02.17c.01-.07.03-.13.06-.19.01-.03.02-.07.03-.1.02-.08.03-.16.03-.23,0-.33-.19-.6-.47-.77-.31-.19-.72-.07-.9.24-.08.14-.11.31-.11.47,0,.19.06.37.08.56l-.02-.17c.02.13.03.27.04.41,0,.09.01.17.05.24.03.08.07.14.13.2.11.11.29.19.44.18s.33-.06.44-.18c.11-.12.2-.28.18-.44-.01-.13-.02-.25-.04-.38-.01-.11-.03-.22-.05-.32-.01-.06-.03-.12-.03-.18l.02.17s0-.1,0-.14l-.02.17s.01-.06.02-.09l-.06.15s0-.01.01-.02l-.1.13h0c-.09.05-.18.1-.28.15h.01c-.11,0-.22,0-.33,0h.01s-.1-.04-.15-.06c.03.02.05.03.08.05l-.13-.1s.03.03.05.04l-.1-.13s.02.03.03.04l-.06-.15s.01.04.02.06l-.02-.17s0,.04,0,.07l.02-.17c0,.06-.03.12-.05.18-.04.11-.05.22-.06.33-.01.14.03.27.01.41-.01.15.08.34.18.44s.29.19.44.18.33-.06.44-.18l.1-.13c.06-.1.08-.2.09-.32h0Z"/>
      <path class="cls-1" d="m551.09,794.73c.8,0,.81-1.25,0-1.25s-.81,1.25,0,1.25h0Z"/>
      <path class="cls-1" d="m551.35,794.8c.8,0,.81-1.25,0-1.25s-.81,1.25,0,1.25h0Z"/>
      <path class="cls-1" d="m551.37,794.82c.8,0,.81-1.25,0-1.25s-.81,1.25,0,1.25h0Z"/>
      <path class="cls-1" d="m551.65,778.42l.21-.9c.08-.33.18-.68.14-1.02-.03-.26-.14-.47-.38-.57-.22-.09-.52-.06-.68.13-.28.31-.49.66-.63,1.05-.11.29.1.63.36.74.28.12.63.02.78-.26.21-.36.37-.74.35-1.16,0-.04,0-.08,0-.11,0-.05,0-.03,0,.05v-.04c.04-.07.07-.14.09-.21.07-.23.07-.49,0-.72-.14-.43-.71-.64-1.04-.28-.17.18-.3.41-.34.66-.03.17-.03.33.06.48.08.13.22.25.37.29.3.07.71-.09.77-.44,0-.03,0-.06.02-.08.02-.06.02-.06-.02.03.01-.03.03-.05.04-.07-.06.07-.06.08-.02.03l-1.04-.28s.01.07.02.08c0-.09-.01-.11-.01-.06,0,.01,0,.03,0,.04,0,.07.03-.1,0-.04-.02.03-.02.07-.04.11-.06.17-.1.34-.09.51,0,.02,0,.18,0,.18.01-.08.02-.1,0-.05,0,.02,0,.03,0,.05,0,.03-.02.06-.03.09,0,.02-.01.05-.02.07l.03-.06s-.03.07-.04.09c-.04.07-.08.14-.11.21l1.14.48c.03-.09,0,.02-.01.02.01,0,.04-.09.05-.1.03-.06.06-.12.1-.18.03-.05.07-.1.1-.15.07-.1-.05.05,0,0,.03-.03.05-.06.08-.09l-1.07-.44c0,.07,0,.14,0,.21,0,.08.01.03,0-.01,0,.03-.01.08-.02.1-.03.15-.07.29-.1.44l-.19.85c-.07.32.1.69.44.77.32.07.69-.1.77-.44h0Z"/>
      <path class="cls-1" d="m550.66,774.6s-.03.05-.05.08l.1-.13s-.02.03-.04.04l1.07.44s0-.02,0-.03c0-.09-.01-.17-.05-.24-.03-.08-.07-.14-.13-.2-.06-.06-.12-.1-.2-.13-.07-.04-.15-.06-.24-.05l-.17.02c-.11.03-.2.08-.28.16l-.1.13c-.06.1-.08.2-.09.32,0,0,0,.02,0,.03l.02.17.06.15.1.13c.06.06.12.1.2.13.05.03.1.04.16.04.06.01.11.01.17,0,.06,0,.11-.01.16-.04.08-.03.14-.07.2-.13,0,0,.02-.02.03-.03,0,0,0-.01.01-.02.04-.05.07-.09.11-.14.01-.02.03-.04.04-.07.05-.07.07-.15.07-.23.02-.08.01-.17-.01-.25-.02-.08-.06-.15-.11-.21-.04-.07-.1-.12-.18-.16l-.15-.06c-.11-.03-.22-.03-.33,0l-.15.06c-.09.06-.17.13-.22.22h0Z"/>
      <path class="cls-1" d="m551.2,775.41c.8,0,.81-1.25,0-1.25s-.81,1.25,0,1.25h0Z"/>
      <path class="cls-1" d="m551.09,775.48c.8,0,.81-1.25,0-1.25s-.81,1.25,0,1.25h0Z"/>
      <path class="cls-1" d="m551.41,775.41c.8,0,.81-1.25,0-1.25s-.81,1.25,0,1.25h0Z"/>
    </g>
    <ellipse class="cls-2" cx="551.06" cy="720.24" rx="3.46" ry="10.9"/>
    <g>
      <rect class="cls-2" x="513.98" y="709.34" width="36.96" height="21.8"/>
      <path class="cls-1" d="m550.99,718.8c3.22,0,3.22-5,0-5s-3.22,5,0,5h0Z"/>
      <path class="cls-1" d="m551.29,723.08c3.22,0,3.22-5,0-5s-3.22,5,0,5h0Z"/>
      <path class="cls-1" d="m551.12,727.47c3.22,0,3.22-5,0-5s-3.22,5,0,5h0Z"/>
      <path class="cls-1" d="m551.71,727.97c-.02-.24-.06-.47-.14-.69l-.06-.15-.1-.13-.13-.1c-.07-.05-.15-.07-.23-.07-.06-.01-.11-.01-.17,0-.06,0-.11.01-.16.04-.05.01-.1.04-.14.08-.07.04-.12.1-.16.18-.08.14-.13.29-.16.46s-.04.33-.04.49c0,.09.01.17.05.24.03.08.07.14.13.2.06.06.12.1.2.13.07.04.15.06.24.05.16,0,.33-.06.44-.18l.1-.13c.06-.1.08-.2.09-.32l.02-.31c0-.09-.01-.17-.05-.24-.03-.08-.07-.14-.13-.2-.06-.06-.12-.1-.2-.13-.07-.04-.15-.06-.24-.05-.16,0-.33.06-.44.18l-.1.13c-.06.1-.08.2-.09.32,0,.09-.01.19,0,.28,0,.02,0,.04,0,.07,0,.07.01.15.03.21l.06.15s0,0,0,.01c.02.04.08.11.11.14.03.03.1.08.13.1.07.05.15.07.23.07.03,0,.06.01.09.01.16,0,.33-.07.44-.18.06-.06.1-.12.13-.2.04-.07.06-.15.05-.24,0-.16-.06-.33-.18-.44s-.27-.19-.44-.18h0c.11.03.21.06.32.09h0s.08.06.13.09h0s.07.08.1.12c0,0,0-.01,0-.02l.06.15s0-.01,0-.02l.02.17c-.02-.13-.02-.25,0-.38h-1.25l-.02.31h1.25c0-.11,0-.22.02-.33l-.02.17c.01-.09.03-.17.06-.25l-.06.15s.02-.04.03-.06l-1.14-.15c.05.14.09.28.11.43l-.02-.17s0,.06.01.1c0,.09.01.17.05.24.03.08.07.14.13.2.06.06.12.1.2.13.07.04.15.06.24.05.16,0,.33-.06.44-.18.11-.12.2-.28.18-.44h0Z"/>
      <path class="cls-1" d="m551,730.56c.8,0,.81-1.25,0-1.25s-.81,1.25,0,1.25h0Z"/>
      <path class="cls-1" d="m551.62,729.77c.01-.15-.03-.29-.01-.44l-.02.17c.01-.07.03-.13.06-.19.01-.03.02-.07.03-.1.02-.08.03-.16.03-.23,0-.33-.19-.6-.47-.77-.31-.19-.72-.07-.9.24-.08.14-.11.31-.11.47,0,.19.06.37.08.56l-.02-.17c.02.13.03.27.04.41,0,.09.01.17.05.24.03.08.07.14.13.2.11.11.29.19.44.18s.33-.06.44-.18c.11-.12.2-.28.18-.44-.01-.13-.02-.25-.04-.38-.01-.11-.03-.22-.05-.32-.01-.06-.03-.12-.03-.18l.02.17s0-.1,0-.14l-.02.17s.01-.06.02-.09l-.06.15s0-.01.01-.02l-.1.13h0c-.09.05-.18.1-.28.15h.01c-.11,0-.22,0-.33,0h.01s-.1-.04-.15-.06c.03.02.05.03.08.05l-.13-.1s.03.03.05.04l-.1-.13s.02.03.03.04l-.06-.15s.01.04.02.06l-.02-.17s0,.04,0,.07l.02-.17c0,.06-.03.12-.05.18-.04.11-.05.22-.06.33-.01.14.03.27.01.41-.01.15.08.34.18.44s.29.19.44.18.33-.06.44-.18l.1-.13c.06-.1.08-.2.09-.32h0Z"/>
      <path class="cls-1" d="m550.87,730.49c.8,0,.81-1.25,0-1.25s-.81,1.25,0,1.25h0Z"/>
      <path class="cls-1" d="m551.13,730.56c.8,0,.81-1.25,0-1.25s-.81,1.25,0,1.25h0Z"/>
      <path class="cls-1" d="m551.15,730.58c.8,0,.81-1.25,0-1.25s-.81,1.25,0,1.25h0Z"/>
      <path class="cls-1" d="m551.43,714.17l.21-.9c.08-.33.18-.68.14-1.02-.03-.26-.14-.47-.38-.57-.22-.09-.52-.06-.68.13-.28.31-.49.66-.63,1.05-.11.29.1.63.36.74.28.12.63.02.78-.26.21-.36.37-.74.35-1.16,0-.04,0-.08,0-.11,0-.05,0-.03,0,.05v-.04c.04-.07.07-.14.09-.21.07-.23.07-.49,0-.72-.14-.43-.71-.64-1.04-.28-.17.18-.3.41-.34.66-.03.17-.03.33.06.48.08.13.22.25.37.29.3.07.71-.09.77-.44,0-.03,0-.06.02-.08.02-.06.02-.06-.02.03.01-.03.03-.05.04-.07-.06.07-.06.08-.02.03l-1.04-.28s.01.07.02.08c0-.09-.01-.11-.01-.06,0,.01,0,.03,0,.04,0,.07.03-.1,0-.04-.02.03-.02.07-.04.11-.06.17-.1.34-.09.51,0,.02,0,.18,0,.18.01-.08.02-.1,0-.05,0,.02,0,.03,0,.05,0,.03-.02.06-.03.09,0,.02-.01.05-.02.07l.03-.06s-.03.07-.04.09c-.04.07-.08.14-.11.21l1.14.48c.03-.09,0,.02-.01.02.01,0,.04-.09.05-.1.03-.06.06-.12.1-.18.03-.05.07-.1.1-.15.07-.1-.05.05,0,0,.03-.03.05-.06.08-.09l-1.07-.44c0,.07,0,.14,0,.21,0,.08.01.03,0-.01,0,.03-.01.08-.02.1-.03.15-.07.29-.1.44l-.19.85c-.07.32.1.69.44.77.32.07.69-.1.77-.44h0Z"/>
      <path class="cls-1" d="m550.44,710.36s-.03.05-.05.08l.1-.13s-.02.03-.04.04l1.07.44s0-.02,0-.03c0-.09-.01-.17-.05-.24-.03-.08-.07-.14-.13-.2-.06-.06-.12-.1-.2-.13-.07-.04-.15-.06-.24-.05l-.17.02c-.11.03-.2.08-.28.16l-.1.13c-.06.1-.08.2-.09.32,0,0,0,.02,0,.03l.02.17.06.15.1.13c.06.06.12.1.2.13.05.03.1.04.16.04.06.01.11.01.17,0,.06,0,.11-.01.16-.04.08-.03.14-.07.2-.13,0,0,.02-.02.03-.03,0,0,0-.01.01-.02.04-.05.07-.09.11-.14.01-.02.03-.04.04-.07.05-.07.07-.15.07-.23.02-.08.01-.17-.01-.25-.02-.08-.06-.15-.11-.21-.04-.07-.1-.12-.18-.16l-.15-.06c-.11-.03-.22-.03-.33,0l-.15.06c-.09.06-.17.13-.22.22h0Z"/>
      <path class="cls-1" d="m550.98,711.17c.8,0,.81-1.25,0-1.25s-.81,1.25,0,1.25h0Z"/>
      <path class="cls-1" d="m550.87,711.23c.8,0,.81-1.25,0-1.25s-.81,1.25,0,1.25h0Z"/>
      <path class="cls-1" d="m551.19,711.17c.8,0,.81-1.25,0-1.25s-.81,1.25,0,1.25h0Z"/>
    </g>
    <ellipse class="cls-2" cx="551.06" cy="656.47" rx="3.46" ry="10.9"/>
    <g>
      <rect class="cls-2" x="513.98" y="645.57" width="36.96" height="21.8"/>
      <path class="cls-1" d="m550.99,655.03c3.22,0,3.22-5,0-5s-3.22,5,0,5h0Z"/>
      <path class="cls-1" d="m551.29,659.31c3.22,0,3.22-5,0-5s-3.22,5,0,5h0Z"/>
      <path class="cls-1" d="m551.12,663.7c3.22,0,3.22-5,0-5s-3.22,5,0,5h0Z"/>
      <path class="cls-1" d="m551.71,664.2c-.02-.24-.06-.47-.14-.69l-.06-.15-.1-.13-.13-.1c-.07-.05-.15-.07-.23-.07-.06-.01-.11-.01-.17,0-.06,0-.11.01-.16.04-.05.01-.1.04-.14.08-.07.04-.12.1-.16.18-.08.14-.13.29-.16.46s-.04.33-.04.49c0,.09.01.17.05.24.03.08.07.14.13.2.06.06.12.1.2.13.07.04.15.06.24.05.16,0,.33-.06.44-.18l.1-.13c.06-.1.08-.2.09-.32l.02-.31c0-.09-.01-.17-.05-.24-.03-.08-.07-.14-.13-.2-.06-.06-.12-.1-.2-.13-.07-.04-.15-.06-.24-.05-.16,0-.33.06-.44.18l-.1.13c-.06.1-.08.2-.09.32,0,.09-.01.19,0,.28,0,.02,0,.04,0,.07,0,.07.01.15.03.21l.06.15s0,0,0,.01c.02.04.08.11.11.14.03.03.1.08.13.1.07.05.15.07.23.07.03,0,.06.01.09.01.16,0,.33-.07.44-.18.06-.06.1-.12.13-.2.04-.07.06-.15.05-.24,0-.16-.06-.33-.18-.44s-.27-.19-.44-.18h0c.11.03.21.06.32.09h0s.08.06.13.09h0s.07.08.1.12c0,0,0-.01,0-.02l.06.15s0-.01,0-.02l.02.17c-.02-.13-.02-.25,0-.38h-1.25l-.02.31h1.25c0-.11,0-.22.02-.33l-.02.17c.01-.09.03-.17.06-.25l-.06.15s.02-.04.03-.06l-1.14-.15c.05.14.09.28.11.43l-.02-.17s0,.06.01.1c0,.09.01.17.05.24.03.08.07.14.13.2.06.06.12.1.2.13.07.04.15.06.24.05.16,0,.33-.06.44-.18.11-.12.2-.28.18-.44h0Z"/>
      <path class="cls-1" d="m551,666.79c.8,0,.81-1.25,0-1.25s-.81,1.25,0,1.25h0Z"/>
      <path class="cls-1" d="m551.62,666c.01-.15-.03-.29-.01-.44l-.02.17c.01-.07.03-.13.06-.19.01-.03.02-.07.03-.1.02-.08.03-.16.03-.23,0-.33-.19-.6-.47-.77-.31-.19-.72-.07-.9.24-.08.14-.11.31-.11.47,0,.19.06.37.08.56l-.02-.17c.02.13.03.27.04.41,0,.09.01.17.05.24.03.08.07.14.13.2.11.11.29.19.44.18s.33-.06.44-.18c.11-.12.2-.28.18-.44-.01-.13-.02-.25-.04-.38-.01-.11-.03-.22-.05-.32-.01-.06-.03-.12-.03-.18l.02.17s0-.1,0-.14l-.02.17s.01-.06.02-.09l-.06.15s0-.01.01-.02l-.1.13h0c-.09.05-.18.1-.28.15h.01c-.11,0-.22,0-.33,0h.01s-.1-.04-.15-.06c.03.02.05.03.08.05l-.13-.1s.03.03.05.04l-.1-.13s.02.03.03.04l-.06-.15s.01.04.02.06l-.02-.17s0,.04,0,.07l.02-.17c0,.06-.03.12-.05.18-.04.11-.05.22-.06.33-.01.14.03.27.01.41-.01.15.08.34.18.44s.29.19.44.18.33-.06.44-.18l.1-.13c.06-.1.08-.2.09-.32h0Z"/>
      <path class="cls-1" d="m550.87,666.71c.8,0,.81-1.25,0-1.25s-.81,1.25,0,1.25h0Z"/>
      <path class="cls-1" d="m551.13,666.79c.8,0,.81-1.25,0-1.25s-.81,1.25,0,1.25h0Z"/>
      <path class="cls-1" d="m551.15,666.81c.8,0,.81-1.25,0-1.25s-.81,1.25,0,1.25h0Z"/>
      <path class="cls-1" d="m551.43,650.4l.21-.9c.08-.33.18-.68.14-1.02-.03-.26-.14-.47-.38-.57-.22-.09-.52-.06-.68.13-.28.31-.49.66-.63,1.05-.11.29.1.63.36.74.28.12.63.02.78-.26.21-.36.37-.74.35-1.16,0-.04,0-.08,0-.11,0-.05,0-.03,0,.05v-.04c.04-.07.07-.14.09-.21.07-.23.07-.49,0-.72-.14-.43-.71-.64-1.04-.28-.17.18-.3.41-.34.66-.03.17-.03.33.06.48.08.13.22.25.37.29.3.07.71-.09.77-.44,0-.03,0-.06.02-.08.02-.06.02-.06-.02.03.01-.03.03-.05.04-.07-.06.07-.06.08-.02.03l-1.04-.28s.01.07.02.08c0-.09-.01-.11-.01-.06,0,.01,0,.03,0,.04,0,.07.03-.1,0-.04-.02.03-.02.07-.04.11-.06.17-.1.34-.09.51,0,.02,0,.18,0,.18.01-.08.02-.1,0-.05,0,.02,0,.03,0,.05,0,.03-.02.06-.03.09,0,.02-.01.05-.02.07l.03-.06s-.03.07-.04.09c-.04.07-.08.14-.11.21l1.14.48c.03-.09,0,.02-.01.02.01,0,.04-.09.05-.1.03-.06.06-.12.1-.18.03-.05.07-.1.1-.15.07-.1-.05.05,0,0,.03-.03.05-.06.08-.09l-1.07-.44c0,.07,0,.14,0,.21,0,.08.01.03,0-.01,0,.03-.01.08-.02.1-.03.15-.07.29-.1.44l-.19.85c-.07.32.1.69.44.77.32.07.69-.1.77-.44h0Z"/>
      <path class="cls-1" d="m550.44,646.59s-.03.05-.05.08l.1-.13s-.02.03-.04.04l1.07.44s0-.02,0-.03c0-.09-.01-.17-.05-.24-.03-.08-.07-.14-.13-.2-.06-.06-.12-.1-.2-.13-.07-.04-.15-.06-.24-.05l-.17.02c-.11.03-.2.08-.28.16l-.1.13c-.06.1-.08.2-.09.32,0,0,0,.02,0,.03l.02.17.06.15.1.13c.06.06.12.1.2.13.05.03.1.04.16.04.06.01.11.01.17,0,.06,0,.11-.01.16-.04.08-.03.14-.07.2-.13,0,0,.02-.02.03-.03,0,0,0-.01.01-.02.04-.05.07-.09.11-.14.01-.02.03-.04.04-.07.05-.07.07-.15.07-.23.02-.08.01-.17-.01-.25-.02-.08-.06-.15-.11-.21-.04-.07-.1-.12-.18-.16l-.15-.06c-.11-.03-.22-.03-.33,0l-.15.06c-.09.06-.17.13-.22.22h0Z"/>
      <path class="cls-1" d="m550.98,647.4c.8,0,.81-1.25,0-1.25s-.81,1.25,0,1.25h0Z"/>
      <path class="cls-1" d="m550.87,647.46c.8,0,.81-1.25,0-1.25s-.81,1.25,0,1.25h0Z"/>
      <path class="cls-1" d="m551.19,647.4c.8,0,.81-1.25,0-1.25s-.81,1.25,0,1.25h0Z"/>
    </g>
    <ellipse class="cls-2" cx="550.96" cy="591.75" rx="3.46" ry="10.9"/>
    <g>
      <rect class="cls-2" x="513.89" y="580.85" width="36.96" height="21.8"/>
      <path class="cls-1" d="m550.9,590.31c3.22,0,3.22-5,0-5s-3.22,5,0,5h0Z"/>
      <path class="cls-1" d="m551.2,594.6c3.22,0,3.22-5,0-5s-3.22,5,0,5h0Z"/>
      <path class="cls-1" d="m551.02,598.98c3.22,0,3.22-5,0-5s-3.22,5,0,5h0Z"/>
      <path class="cls-1" d="m551.62,599.48c-.02-.24-.06-.47-.14-.69l-.06-.15-.1-.13-.13-.1c-.07-.05-.15-.07-.23-.07-.06-.01-.11-.01-.17,0-.06,0-.11.01-.16.04-.05.01-.1.04-.14.08-.07.04-.12.1-.16.18-.08.14-.13.29-.16.46s-.04.33-.04.49c0,.09.01.17.05.24.03.08.07.14.13.2.06.06.12.1.2.13.07.04.15.06.24.05.16,0,.33-.06.44-.18l.1-.13c.06-.1.08-.2.09-.32l.02-.31c0-.09-.01-.17-.05-.24-.03-.08-.07-.14-.13-.2-.06-.06-.12-.1-.2-.13-.07-.04-.15-.06-.24-.05-.16,0-.33.06-.44.18l-.1.13c-.06.1-.08.2-.09.32,0,.09-.01.19,0,.28,0,.02,0,.04,0,.07,0,.07.01.15.03.21l.06.15s0,0,0,.01c.02.04.08.11.11.14.03.03.1.08.13.1.07.05.15.07.23.07.03,0,.06.01.09.01.16,0,.33-.07.44-.18.06-.06.1-.12.13-.2.04-.07.06-.15.05-.24,0-.16-.06-.33-.18-.44s-.27-.19-.44-.18h0c.11.03.21.06.32.09h0s.08.06.13.09h0s.07.08.1.12c0,0,0-.01,0-.02l.06.15s0-.01,0-.02l.02.17c-.02-.13-.02-.25,0-.38h-1.25l-.02.31h1.25c0-.11,0-.22.02-.33l-.02.17c.01-.09.03-.17.06-.25l-.06.15s.02-.04.03-.06l-1.14-.15c.05.14.09.28.11.43l-.02-.17s0,.06.01.1c0,.09.01.17.05.24.03.08.07.14.13.2.06.06.12.1.2.13.07.04.15.06.24.05.16,0,.33-.06.44-.18.11-.12.2-.28.18-.44h0Z"/>
      <path class="cls-1" d="m550.91,602.07c.8,0,.81-1.25,0-1.25s-.81,1.25,0,1.25h0Z"/>
      <path class="cls-1" d="m551.52,601.28c.01-.15-.03-.29-.01-.44l-.02.17c.01-.07.03-.13.06-.19.01-.03.02-.07.03-.1.02-.08.03-.16.03-.23,0-.33-.19-.6-.47-.77-.31-.19-.72-.07-.9.24-.08.14-.11.31-.11.47,0,.19.06.37.08.56l-.02-.17c.02.13.03.27.04.41,0,.09.01.17.05.24.03.08.07.14.13.2.11.11.29.19.44.18s.33-.06.44-.18c.11-.12.2-.28.18-.44-.01-.13-.02-.25-.04-.38-.01-.11-.03-.22-.05-.32-.01-.06-.03-.12-.03-.18l.02.17s0-.1,0-.14l-.02.17s.01-.06.02-.09l-.06.15s0-.01.01-.02l-.1.13h0c-.09.05-.18.1-.28.15h.01c-.11,0-.22,0-.33,0h.01s-.1-.04-.15-.06c.03.02.05.03.08.05l-.13-.1s.03.03.05.04l-.1-.13s.02.03.03.04l-.06-.15s.01.04.02.06l-.02-.17s0,.04,0,.07l.02-.17c0,.06-.03.12-.05.18-.04.11-.05.22-.06.33-.01.14.03.27.01.41-.01.15.08.34.18.44s.29.19.44.18.33-.06.44-.18l.1-.13c.06-.1.08-.2.09-.32h0Z"/>
      <path class="cls-1" d="m550.77,602c.8,0,.81-1.25,0-1.25s-.81,1.25,0,1.25h0Z"/>
      <path class="cls-1" d="m551.03,602.07c.8,0,.81-1.25,0-1.25s-.81,1.25,0,1.25h0Z"/>
      <path class="cls-1" d="m551.05,602.09c.8,0,.81-1.25,0-1.25s-.81,1.25,0,1.25h0Z"/>
      <path class="cls-1" d="m551.33,585.69l.21-.9c.08-.33.18-.68.14-1.02-.03-.26-.14-.47-.38-.57-.22-.09-.52-.06-.68.13-.28.31-.49.66-.63,1.05-.11.29.1.63.36.74.28.12.63.02.78-.26.21-.36.37-.74.35-1.16,0-.04,0-.08,0-.11,0-.05,0-.03,0,.05v-.04c.04-.07.07-.14.09-.21.07-.23.07-.49,0-.72-.14-.43-.71-.64-1.04-.28-.17.18-.3.41-.34.66-.03.17-.03.33.06.48.08.13.22.25.37.29.3.07.71-.09.77-.44,0-.03,0-.06.02-.08.02-.06.02-.06-.02.03.01-.03.03-.05.04-.07-.06.07-.06.08-.02.03l-1.04-.28s.01.07.02.08c0-.09-.01-.11-.01-.06,0,.01,0,.03,0,.04,0,.07.03-.1,0-.04-.02.03-.02.07-.04.11-.06.17-.1.34-.09.51,0,.02,0,.18,0,.18.01-.08.02-.1,0-.05,0,.02,0,.03,0,.05,0,.03-.02.06-.03.09,0,.02-.01.05-.02.07l.03-.06s-.03.07-.04.09c-.04.07-.08.14-.11.21l1.14.48c.03-.09,0,.02-.01.02.01,0,.04-.09.05-.1.03-.06.06-.12.1-.18.03-.05.07-.1.1-.15.07-.1-.05.05,0,0,.03-.03.05-.06.08-.09l-1.07-.44c0,.07,0,.14,0,.21,0,.08.01.03,0-.01,0,.03-.01.08-.02.1-.03.15-.07.29-.1.44l-.19.85c-.07.32.1.69.44.77.32.07.69-.1.77-.44h0Z"/>
      <path class="cls-1" d="m550.35,581.87s-.03.05-.05.08l.1-.13s-.02.03-.04.04l1.07.44s0-.02,0-.03c0-.09-.01-.17-.05-.24-.03-.08-.07-.14-.13-.2-.06-.06-.12-.1-.2-.13-.07-.04-.15-.06-.24-.05l-.17.02c-.11.03-.2.08-.28.16l-.1.13c-.06.1-.08.2-.09.32,0,0,0,.02,0,.03l.02.17.06.15.1.13c.06.06.12.1.2.13.05.03.1.04.16.04.06.01.11.01.17,0,.06,0,.11-.01.16-.04.08-.03.14-.07.2-.13,0,0,.02-.02.03-.03,0,0,0-.01.01-.02.04-.05.07-.09.11-.14.01-.02.03-.04.04-.07.05-.07.07-.15.07-.23.02-.08.01-.17-.01-.25-.02-.08-.06-.15-.11-.21-.04-.07-.1-.12-.18-.16l-.15-.06c-.11-.03-.22-.03-.33,0l-.15.06c-.09.06-.17.13-.22.22h0Z"/>
      <path class="cls-1" d="m550.88,582.68c.8,0,.81-1.25,0-1.25s-.81,1.25,0,1.25h0Z"/>
      <path class="cls-1" d="m550.77,582.75c.8,0,.81-1.25,0-1.25s-.81,1.25,0,1.25h0Z"/>
      <path class="cls-1" d="m551.09,582.68c.8,0,.81-1.25,0-1.25s-.81,1.25,0,1.25h0Z"/>
    </g>
    <ellipse class="cls-2" cx="551.28" cy="527.51" rx="3.46" ry="10.9"/>
    <g>
      <rect class="cls-2" x="514.2" y="516.61" width="36.96" height="21.8"/>
      <path class="cls-1" d="m551.21,526.07c3.22,0,3.22-5,0-5s-3.22,5,0,5h0Z"/>
      <path class="cls-1" d="m551.51,530.35c3.22,0,3.22-5,0-5s-3.22,5,0,5h0Z"/>
      <path class="cls-1" d="m551.34,534.73c3.22,0,3.22-5,0-5s-3.22,5,0,5h0Z"/>
      <path class="cls-1" d="m551.93,535.24c-.02-.24-.06-.47-.14-.69l-.06-.15-.1-.13-.13-.1c-.07-.05-.15-.07-.23-.07-.06-.01-.11-.01-.17,0-.06,0-.11.01-.16.04-.05.01-.1.04-.14.08-.07.04-.12.1-.16.18-.08.14-.13.29-.16.46s-.04.33-.04.49c0,.09.01.17.05.24.03.08.07.14.13.2.06.06.12.1.2.13.07.04.15.06.24.05.16,0,.33-.06.44-.18l.1-.13c.06-.1.08-.2.09-.32l.02-.31c0-.09-.01-.17-.05-.24-.03-.08-.07-.14-.13-.2-.06-.06-.12-.1-.2-.13-.07-.04-.15-.06-.24-.05-.16,0-.33.06-.44.18l-.1.13c-.06.1-.08.2-.09.32,0,.09-.01.19,0,.28,0,.02,0,.04,0,.07,0,.07.01.15.03.21l.06.15s0,0,0,.01c.02.04.08.11.11.14.03.03.1.08.13.1.07.05.15.07.23.07.03,0,.06.01.09.01.16,0,.33-.07.44-.18.06-.06.1-.12.13-.2.04-.07.06-.15.05-.24,0-.16-.06-.33-.18-.44s-.27-.19-.44-.18h0c.11.03.21.06.32.09h0s.08.06.13.09h0s.07.08.1.12c0,0,0-.01,0-.02l.06.15s0-.01,0-.02l.02.17c-.02-.13-.02-.25,0-.38h-1.25l-.02.31h1.25c0-.11,0-.22.02-.33l-.02.17c.01-.09.03-.17.06-.25l-.06.15s.02-.04.03-.06l-1.14-.15c.05.14.09.28.11.43l-.02-.17s0,.06.01.1c0,.09.01.17.05.24.03.08.07.14.13.2.06.06.12.1.2.13.07.04.15.06.24.05.16,0,.33-.06.44-.18.11-.12.2-.28.18-.44h0Z"/>
      <path class="cls-1" d="m551.22,537.83c.8,0,.81-1.25,0-1.25s-.81,1.25,0,1.25h0Z"/>
      <path class="cls-1" d="m551.84,537.03c.01-.15-.03-.29-.01-.44l-.02.17c.01-.07.03-.13.06-.19.01-.03.02-.07.03-.1.02-.08.03-.16.03-.23,0-.33-.19-.6-.47-.77-.31-.19-.72-.07-.9.24-.08.14-.11.31-.11.47,0,.19.06.37.08.56l-.02-.17c.02.13.03.27.04.41,0,.09.01.17.05.24.03.08.07.14.13.2.11.11.29.19.44.18s.33-.06.44-.18c.11-.12.2-.28.18-.44-.01-.13-.02-.25-.04-.38-.01-.11-.03-.22-.05-.32-.01-.06-.03-.12-.03-.18l.02.17s0-.1,0-.14l-.02.17s.01-.06.02-.09l-.06.15s0-.01.01-.02l-.1.13h0c-.09.05-.18.1-.28.15h.01c-.11,0-.22,0-.33,0h.01s-.1-.04-.15-.06c.03.02.05.03.08.05l-.13-.1s.03.03.05.04l-.1-.13s.02.03.03.04l-.06-.15s.01.04.02.06l-.02-.17s0,.04,0,.07l.02-.17c0,.06-.03.12-.05.18-.04.11-.05.22-.06.33-.01.14.03.27.01.41-.01.15.08.34.18.44s.29.19.44.18.33-.06.44-.18l.1-.13c.06-.1.08-.2.09-.32h0Z"/>
      <path class="cls-1" d="m551.09,537.75c.8,0,.81-1.25,0-1.25s-.81,1.25,0,1.25h0Z"/>
      <path class="cls-1" d="m551.35,537.83c.8,0,.81-1.25,0-1.25s-.81,1.25,0,1.25h0Z"/>
      <path class="cls-1" d="m551.37,537.85c.8,0,.81-1.25,0-1.25s-.81,1.25,0,1.25h0Z"/>
      <path class="cls-1" d="m551.65,521.44l.21-.9c.08-.33.18-.68.14-1.02-.03-.26-.14-.47-.38-.57-.22-.09-.52-.06-.68.13-.28.31-.49.66-.63,1.05-.11.29.1.63.36.74.28.12.63.02.78-.26.21-.36.37-.74.35-1.16,0-.04,0-.08,0-.11,0-.05,0-.03,0,.05v-.04c.04-.07.07-.14.09-.21.07-.23.07-.49,0-.72-.14-.43-.71-.64-1.04-.28-.17.18-.3.41-.34.66-.03.17-.03.33.06.48.08.13.22.25.37.29.3.07.71-.09.77-.44,0-.03,0-.06.02-.08.02-.06.02-.06-.02.03.01-.03.03-.05.04-.07-.06.07-.06.08-.02.03l-1.04-.28s.01.07.02.08c0-.09-.01-.11-.01-.06,0,.01,0,.03,0,.04,0,.07.03-.1,0-.04-.02.03-.02.07-.04.11-.06.17-.1.34-.09.51,0,.02,0,.18,0,.18.01-.08.02-.1,0-.05,0,.02,0,.03,0,.05,0,.03-.02.06-.03.09,0,.02-.01.05-.02.07l.03-.06s-.03.07-.04.09c-.04.07-.08.14-.11.21l1.14.48c.03-.09,0,.02-.01.02.01,0,.04-.09.05-.1.03-.06.06-.12.1-.18.03-.05.07-.1.1-.15.07-.1-.05.05,0,0,.03-.03.05-.06.08-.09l-1.07-.44c0,.07,0,.14,0,.21,0,.08.01.03,0-.01,0,.03-.01.08-.02.1-.03.15-.07.29-.1.44l-.19.85c-.07.32.1.69.44.77.32.07.69-.1.77-.44h0Z"/>
      <path class="cls-1" d="m550.66,517.62s-.03.05-.05.08l.1-.13s-.02.03-.04.04l1.07.44s0-.02,0-.03c0-.09-.01-.17-.05-.24-.03-.08-.07-.14-.13-.2-.06-.06-.12-.1-.2-.13-.07-.04-.15-.06-.24-.05l-.17.02c-.11.03-.2.08-.28.16l-.1.13c-.06.1-.08.2-.09.32,0,0,0,.02,0,.03l.02.17.06.15.1.13c.06.06.12.1.2.13.05.03.1.04.16.04.06.01.11.01.17,0,.06,0,.11-.01.16-.04.08-.03.14-.07.2-.13,0,0,.02-.02.03-.03,0,0,0-.01.01-.02.04-.05.07-.09.11-.14.01-.02.03-.04.04-.07.05-.07.07-.15.07-.23.02-.08.01-.17-.01-.25-.02-.08-.06-.15-.11-.21-.04-.07-.1-.12-.18-.16l-.15-.06c-.11-.03-.22-.03-.33,0l-.15.06c-.09.06-.17.13-.22.22h0Z"/>
      <path class="cls-1" d="m551.2,518.44c.8,0,.81-1.25,0-1.25s-.81,1.25,0,1.25h0Z"/>
      <path class="cls-1" d="m551.09,518.5c.8,0,.81-1.25,0-1.25s-.81,1.25,0,1.25h0Z"/>
      <path class="cls-1" d="m551.41,518.44c.8,0,.81-1.25,0-1.25s-.81,1.25,0,1.25h0Z"/>
    </g>
    <ellipse class="cls-2" cx="551.28" cy="463.26" rx="3.46" ry="10.9"/>
    <g>
      <rect class="cls-2" x="514.2" y="452.36" width="36.96" height="21.8"/>
      <path class="cls-1" d="m551.21,461.82c3.22,0,3.22-5,0-5s-3.22,5,0,5h0Z"/>
      <path class="cls-1" d="m551.51,466.11c3.22,0,3.22-5,0-5s-3.22,5,0,5h0Z"/>
      <path class="cls-1" d="m551.34,470.49c3.22,0,3.22-5,0-5s-3.22,5,0,5h0Z"/>
      <path class="cls-1" d="m551.93,470.99c-.02-.24-.06-.47-.14-.69l-.06-.15-.1-.13-.13-.1c-.07-.05-.15-.07-.23-.07-.06-.01-.11-.01-.17,0-.06,0-.11.01-.16.04-.05.01-.1.04-.14.08-.07.04-.12.1-.16.18-.08.14-.13.29-.16.46s-.04.33-.04.49c0,.09.01.17.05.24.03.08.07.14.13.2.06.06.12.1.2.13.07.04.15.06.24.05.16,0,.33-.06.44-.18l.1-.13c.06-.1.08-.2.09-.32l.02-.31c0-.09-.01-.17-.05-.24-.03-.08-.07-.14-.13-.2-.06-.06-.12-.1-.2-.13-.07-.04-.15-.06-.24-.05-.16,0-.33.06-.44.18l-.1.13c-.06.1-.08.2-.09.32,0,.09-.01.19,0,.28,0,.02,0,.04,0,.07,0,.07.01.15.03.21l.06.15s0,0,0,.01c.02.04.08.11.11.14.03.03.1.08.13.1.07.05.15.07.23.07.03,0,.06.01.09.01.16,0,.33-.07.44-.18.06-.06.1-.12.13-.2.04-.07.06-.15.05-.24,0-.16-.06-.33-.18-.44s-.27-.19-.44-.18h0c.11.03.21.06.32.09h0s.08.06.13.09h0s.07.08.1.12c0,0,0-.01,0-.02l.06.15s0-.01,0-.02l.02.17c-.02-.13-.02-.25,0-.38h-1.25l-.02.31h1.25c0-.11,0-.22.02-.33l-.02.17c.01-.09.03-.17.06-.25l-.06.15s.02-.04.03-.06l-1.14-.15c.05.14.09.28.11.43l-.02-.17s0,.06.01.1c0,.09.01.17.05.24.03.08.07.14.13.2.06.06.12.1.2.13.07.04.15.06.24.05.16,0,.33-.06.44-.18.11-.12.2-.28.18-.44h0Z"/>
      <path class="cls-1" d="m551.22,473.58c.8,0,.81-1.25,0-1.25s-.81,1.25,0,1.25h0Z"/>
      <path class="cls-1" d="m551.84,472.79c.01-.15-.03-.29-.01-.44l-.02.17c.01-.07.03-.13.06-.19.01-.03.02-.07.03-.1.02-.08.03-.16.03-.23,0-.33-.19-.6-.47-.77-.31-.19-.72-.07-.9.24-.08.14-.11.31-.11.47,0,.19.06.37.08.56l-.02-.17c.02.13.03.27.04.41,0,.09.01.17.05.24.03.08.07.14.13.2.11.11.29.19.44.18s.33-.06.44-.18c.11-.12.2-.28.18-.44-.01-.13-.02-.25-.04-.38-.01-.11-.03-.22-.05-.32-.01-.06-.03-.12-.03-.18l.02.17s0-.1,0-.14l-.02.17s.01-.06.02-.09l-.06.15s0-.01.01-.02l-.1.13h0c-.09.05-.18.1-.28.15h.01c-.11,0-.22,0-.33,0h.01s-.1-.04-.15-.06c.03.02.05.03.08.05l-.13-.1s.03.03.05.04l-.1-.13s.02.03.03.04l-.06-.15s.01.04.02.06l-.02-.17s0,.04,0,.07l.02-.17c0,.06-.03.12-.05.18-.04.11-.05.22-.06.33-.01.14.03.27.01.41-.01.15.08.34.18.44s.29.19.44.18.33-.06.44-.18l.1-.13c.06-.1.08-.2.09-.32h0Z"/>
      <path class="cls-1" d="m551.09,473.51c.8,0,.81-1.25,0-1.25s-.81,1.25,0,1.25h0Z"/>
      <path class="cls-1" d="m551.35,473.58c.8,0,.81-1.25,0-1.25s-.81,1.25,0,1.25h0Z"/>
      <path class="cls-1" d="m551.37,473.6c.8,0,.81-1.25,0-1.25s-.81,1.25,0,1.25h0Z"/>
      <path class="cls-1" d="m551.65,457.2l.21-.9c.08-.33.18-.68.14-1.02-.03-.26-.14-.47-.38-.57-.22-.09-.52-.06-.68.13-.28.31-.49.66-.63,1.05-.11.29.1.63.36.74.28.12.63.02.78-.26.21-.36.37-.74.35-1.16,0-.04,0-.08,0-.11,0-.05,0-.03,0,.05v-.04c.04-.07.07-.14.09-.21.07-.23.07-.49,0-.72-.14-.43-.71-.64-1.04-.28-.17.18-.3.41-.34.66-.03.17-.03.33.06.48.08.13.22.25.37.29.3.07.71-.09.77-.44,0-.03,0-.06.02-.08.02-.06.02-.06-.02.03.01-.03.03-.05.04-.07-.06.07-.06.08-.02.03l-1.04-.28s.01.07.02.08c0-.09-.01-.11-.01-.06,0,.01,0,.03,0,.04,0,.07.03-.1,0-.04-.02.03-.02.07-.04.11-.06.17-.1.34-.09.51,0,.02,0,.18,0,.18.01-.08.02-.1,0-.05,0,.02,0,.03,0,.05,0,.03-.02.06-.03.09,0,.02-.01.05-.02.07l.03-.06s-.03.07-.04.09c-.04.07-.08.14-.11.21l1.14.48c.03-.09,0,.02-.01.02.01,0,.04-.09.05-.1.03-.06.06-.12.1-.18.03-.05.07-.1.1-.15.07-.1-.05.05,0,0,.03-.03.05-.06.08-.09l-1.07-.44c0,.07,0,.14,0,.21,0,.08.01.03,0-.01,0,.03-.01.08-.02.1-.03.15-.07.29-.1.44l-.19.85c-.07.32.1.69.44.77.32.07.69-.1.77-.44h0Z"/>
      <path class="cls-1" d="m550.66,453.38s-.03.05-.05.08l.1-.13s-.02.03-.04.04l1.07.44s0-.02,0-.03c0-.09-.01-.17-.05-.24-.03-.08-.07-.14-.13-.2-.06-.06-.12-.1-.2-.13-.07-.04-.15-.06-.24-.05l-.17.02c-.11.03-.2.08-.28.16l-.1.13c-.06.1-.08.2-.09.32,0,0,0,.02,0,.03l.02.17.06.15.1.13c.06.06.12.1.2.13.05.03.1.04.16.04.06.01.11.01.17,0,.06,0,.11-.01.16-.04.08-.03.14-.07.2-.13,0,0,.02-.02.03-.03,0,0,0-.01.01-.02.04-.05.07-.09.11-.14.01-.02.03-.04.04-.07.05-.07.07-.15.07-.23.02-.08.01-.17-.01-.25-.02-.08-.06-.15-.11-.21-.04-.07-.1-.12-.18-.16l-.15-.06c-.11-.03-.22-.03-.33,0l-.15.06c-.09.06-.17.13-.22.22h0Z"/>
      <path class="cls-1" d="m551.2,454.19c.8,0,.81-1.25,0-1.25s-.81,1.25,0,1.25h0Z"/>
      <path class="cls-1" d="m551.09,454.26c.8,0,.81-1.25,0-1.25s-.81,1.25,0,1.25h0Z"/>
      <path class="cls-1" d="m551.41,454.19c.8,0,.81-1.25,0-1.25s-.81,1.25,0,1.25h0Z"/>
    </g>
    <ellipse class="cls-2" cx="550.96" cy="399.02" rx="3.46" ry="10.9"/>
    <g>
      <rect class="cls-2" x="513.89" y="388.12" width="36.96" height="21.8"/>
      <path class="cls-1" d="m550.9,397.58c3.22,0,3.22-5,0-5s-3.22,5,0,5h0Z"/>
      <path class="cls-1" d="m551.2,401.86c3.22,0,3.22-5,0-5s-3.22,5,0,5h0Z"/>
      <path class="cls-1" d="m551.02,406.25c3.22,0,3.22-5,0-5s-3.22,5,0,5h0Z"/>
      <path class="cls-1" d="m551.62,406.75c-.02-.24-.06-.47-.14-.69l-.06-.15-.1-.13-.13-.1c-.07-.05-.15-.07-.23-.07-.06-.01-.11-.01-.17,0-.06,0-.11.01-.16.04-.05.01-.1.04-.14.08-.07.04-.12.1-.16.18-.08.14-.13.29-.16.46s-.04.33-.04.49c0,.09.01.17.05.24.03.08.07.14.13.2.06.06.12.1.2.13.07.04.15.06.24.05.16,0,.33-.06.44-.18l.1-.13c.06-.1.08-.2.09-.32l.02-.31c0-.09-.01-.17-.05-.24-.03-.08-.07-.14-.13-.2-.06-.06-.12-.1-.2-.13-.07-.04-.15-.06-.24-.05-.16,0-.33.06-.44.18l-.1.13c-.06.1-.08.2-.09.32,0,.09-.01.19,0,.28,0,.02,0,.04,0,.07,0,.07.01.15.03.21l.06.15s0,0,0,.01c.02.04.08.11.11.14.03.03.1.08.13.1.07.05.15.07.23.07.03,0,.06.01.09.01.16,0,.33-.07.44-.18.06-.06.1-.12.13-.2.04-.07.06-.15.05-.24,0-.16-.06-.33-.18-.44s-.27-.19-.44-.18h0c.11.03.21.06.32.09h0s.08.06.13.09h0s.07.08.1.12c0,0,0-.01,0-.02l.06.15s0-.01,0-.02l.02.17c-.02-.13-.02-.25,0-.38h-1.25l-.02.31h1.25c0-.11,0-.22.02-.33l-.02.17c.01-.09.03-.17.06-.25l-.06.15s.02-.04.03-.06l-1.14-.15c.05.14.09.28.11.43l-.02-.17s0,.06.01.1c0,.09.01.17.05.24.03.08.07.14.13.2.06.06.12.1.2.13.07.04.15.06.24.05.16,0,.33-.06.44-.18.11-.12.2-.28.18-.44h0Z"/>
      <path class="cls-1" d="m550.91,409.34c.8,0,.81-1.25,0-1.25s-.81,1.25,0,1.25h0Z"/>
      <path class="cls-1" d="m551.52,408.55c.01-.15-.03-.29-.01-.44l-.02.17c.01-.07.03-.13.06-.19.01-.03.02-.07.03-.1.02-.08.03-.16.03-.23,0-.33-.19-.6-.47-.77-.31-.19-.72-.07-.9.24-.08.14-.11.31-.11.47,0,.19.06.37.08.56l-.02-.17c.02.13.03.27.04.41,0,.09.01.17.05.24.03.08.07.14.13.2.11.11.29.19.44.18s.33-.06.44-.18c.11-.12.2-.28.18-.44-.01-.13-.02-.25-.04-.38-.01-.11-.03-.22-.05-.32-.01-.06-.03-.12-.03-.18l.02.17s0-.1,0-.14l-.02.17s.01-.06.02-.09l-.06.15s0-.01.01-.02l-.1.13h0c-.09.05-.18.1-.28.15h.01c-.11,0-.22,0-.33,0h.01s-.1-.04-.15-.06c.03.02.05.03.08.05l-.13-.1s.03.03.05.04l-.1-.13s.02.03.03.04l-.06-.15s.01.04.02.06l-.02-.17s0,.04,0,.07l.02-.17c0,.06-.03.12-.05.18-.04.11-.05.22-.06.33-.01.14.03.27.01.41-.01.15.08.34.18.44s.29.19.44.18.33-.06.44-.18l.1-.13c.06-.1.08-.2.09-.32h0Z"/>
      <path class="cls-1" d="m550.77,409.27c.8,0,.81-1.25,0-1.25s-.81,1.25,0,1.25h0Z"/>
      <path class="cls-1" d="m551.03,409.34c.8,0,.81-1.25,0-1.25s-.81,1.25,0,1.25h0Z"/>
      <path class="cls-1" d="m551.05,409.36c.8,0,.81-1.25,0-1.25s-.81,1.25,0,1.25h0Z"/>
      <path class="cls-1" d="m551.33,392.95l.21-.9c.08-.33.18-.68.14-1.02-.03-.26-.14-.47-.38-.57-.22-.09-.52-.06-.68.13-.28.31-.49.66-.63,1.05-.11.29.1.63.36.74.28.12.63.02.78-.26.21-.36.37-.74.35-1.16,0-.04,0-.08,0-.11,0-.05,0-.03,0,.05v-.04c.04-.07.07-.14.09-.21.07-.23.07-.49,0-.72-.14-.43-.71-.64-1.04-.28-.17.18-.3.41-.34.66-.03.17-.03.33.06.48.08.13.22.25.37.29.3.07.71-.09.77-.44,0-.03,0-.06.02-.08.02-.06.02-.06-.02.03.01-.03.03-.05.04-.07-.06.07-.06.08-.02.03l-1.04-.28s.01.07.02.08c0-.09-.01-.11-.01-.06,0,.01,0,.03,0,.04,0,.07.03-.1,0-.04-.02.03-.02.07-.04.11-.06.17-.1.34-.09.51,0,.02,0,.18,0,.18.01-.08.02-.1,0-.05,0,.02,0,.03,0,.05,0,.03-.02.06-.03.09,0,.02-.01.05-.02.07l.03-.06s-.03.07-.04.09c-.04.07-.08.14-.11.21l1.14.48c.03-.09,0,.02-.01.02.01,0,.04-.09.05-.1.03-.06.06-.12.1-.18.03-.05.07-.1.1-.15.07-.1-.05.05,0,0,.03-.03.05-.06.08-.09l-1.07-.44c0,.07,0,.14,0,.21,0,.08.01.03,0-.01,0,.03-.01.08-.02.1-.03.15-.07.29-.1.44l-.19.85c-.07.32.1.69.44.77.32.07.69-.1.77-.44h0Z"/>
      <path class="cls-1" d="m550.35,389.14s-.03.05-.05.08l.1-.13s-.02.03-.04.04l1.07.44s0-.02,0-.03c0-.09-.01-.17-.05-.24-.03-.08-.07-.14-.13-.2-.06-.06-.12-.1-.2-.13-.07-.04-.15-.06-.24-.05l-.17.02c-.11.03-.2.08-.28.16l-.1.13c-.06.1-.08.2-.09.32,0,0,0,.02,0,.03l.02.17.06.15.1.13c.06.06.12.1.2.13.05.03.1.04.16.04.06.01.11.01.17,0,.06,0,.11-.01.16-.04.08-.03.14-.07.2-.13,0,0,.02-.02.03-.03,0,0,0-.01.01-.02.04-.05.07-.09.11-.14.01-.02.03-.04.04-.07.05-.07.07-.15.07-.23.02-.08.01-.17-.01-.25-.02-.08-.06-.15-.11-.21-.04-.07-.1-.12-.18-.16l-.15-.06c-.11-.03-.22-.03-.33,0l-.15.06c-.09.06-.17.13-.22.22h0Z"/>
      <path class="cls-1" d="m550.88,389.95c.8,0,.81-1.25,0-1.25s-.81,1.25,0,1.25h0Z"/>
      <path class="cls-1" d="m550.77,390.01c.8,0,.81-1.25,0-1.25s-.81,1.25,0,1.25h0Z"/>
      <path class="cls-1" d="m551.09,389.95c.8,0,.81-1.25,0-1.25s-.81,1.25,0,1.25h0Z"/>
    </g>
    <ellipse class="cls-2" cx="551.28" cy="335.49" rx="3.46" ry="10.9"/>
    <g>
      <rect class="cls-2" x="514.2" y="324.59" width="36.96" height="21.8"/>
      <path class="cls-1" d="m551.21,334.05c3.22,0,3.22-5,0-5s-3.22,5,0,5h0Z"/>
      <path class="cls-1" d="m551.51,338.34c3.22,0,3.22-5,0-5s-3.22,5,0,5h0Z"/>
      <path class="cls-1" d="m551.34,342.72c3.22,0,3.22-5,0-5s-3.22,5,0,5h0Z"/>
      <path class="cls-1" d="m551.93,343.22c-.02-.24-.06-.47-.14-.69l-.06-.15-.1-.13-.13-.1c-.07-.05-.15-.07-.23-.07-.06-.01-.11-.01-.17,0-.06,0-.11.01-.16.04-.05.01-.1.04-.14.08-.07.04-.12.1-.16.18-.08.14-.13.29-.16.46s-.04.33-.04.49c0,.09.01.17.05.24.03.08.07.14.13.2.06.06.12.1.2.13.07.04.15.06.24.05.16,0,.33-.06.44-.18l.1-.13c.06-.1.08-.2.09-.32l.02-.31c0-.09-.01-.17-.05-.24-.03-.08-.07-.14-.13-.2-.06-.06-.12-.1-.2-.13-.07-.04-.15-.06-.24-.05-.16,0-.33.06-.44.18l-.1.13c-.06.1-.08.2-.09.32,0,.09-.01.19,0,.28,0,.02,0,.04,0,.07,0,.07.01.15.03.21l.06.15s0,0,0,.01c.02.04.08.11.11.14.03.03.1.08.13.1.07.05.15.07.23.07.03,0,.06.01.09.01.16,0,.33-.07.44-.18.06-.06.1-.12.13-.2.04-.07.06-.15.05-.24,0-.16-.06-.33-.18-.44s-.27-.19-.44-.18h0c.11.03.21.06.32.09h0s.08.06.13.09h0s.07.08.1.12c0,0,0-.01,0-.02l.06.15s0-.01,0-.02l.02.17c-.02-.13-.02-.25,0-.38h-1.25l-.02.31h1.25c0-.11,0-.22.02-.33l-.02.17c.01-.09.03-.17.06-.25l-.06.15s.02-.04.03-.06l-1.14-.15c.05.14.09.28.11.43l-.02-.17s0,.06.01.1c0,.09.01.17.05.24.03.08.07.14.13.2.06.06.12.1.2.13.07.04.15.06.24.05.16,0,.33-.06.44-.18.11-.12.2-.28.18-.44h0Z"/>
      <path class="cls-1" d="m551.22,345.81c.8,0,.81-1.25,0-1.25s-.81,1.25,0,1.25h0Z"/>
      <path class="cls-1" d="m551.84,345.02c.01-.15-.03-.29-.01-.44l-.02.17c.01-.07.03-.13.06-.19.01-.03.02-.07.03-.1.02-.08.03-.16.03-.23,0-.33-.19-.6-.47-.77-.31-.19-.72-.07-.9.24-.08.14-.11.31-.11.47,0,.19.06.37.08.56l-.02-.17c.02.13.03.27.04.41,0,.09.01.17.05.24.03.08.07.14.13.2.11.11.29.19.44.18s.33-.06.44-.18c.11-.12.2-.28.18-.44-.01-.13-.02-.25-.04-.38-.01-.11-.03-.22-.05-.32-.01-.06-.03-.12-.03-.18l.02.17s0-.1,0-.14l-.02.17s.01-.06.02-.09l-.06.15s0-.01.01-.02l-.1.13h0c-.09.05-.18.1-.28.15h.01c-.11,0-.22,0-.33,0h.01s-.1-.04-.15-.06c.03.02.05.03.08.05l-.13-.1s.03.03.05.04l-.1-.13s.02.03.03.04l-.06-.15s.01.04.02.06l-.02-.17s0,.04,0,.07l.02-.17c0,.06-.03.12-.05.18-.04.11-.05.22-.06.33-.01.14.03.27.01.41-.01.15.08.34.18.44s.29.19.44.18.33-.06.44-.18l.1-.13c.06-.1.08-.2.09-.32h0Z"/>
      <path class="cls-1" d="m551.09,345.74c.8,0,.81-1.25,0-1.25s-.81,1.25,0,1.25h0Z"/>
      <path class="cls-1" d="m551.35,345.81c.8,0,.81-1.25,0-1.25s-.81,1.25,0,1.25h0Z"/>
      <path class="cls-1" d="m551.37,345.83c.8,0,.81-1.25,0-1.25s-.81,1.25,0,1.25h0Z"/>
      <path class="cls-1" d="m551.65,329.43l.21-.9c.08-.33.18-.68.14-1.02-.03-.26-.14-.47-.38-.57-.22-.09-.52-.06-.68.13-.28.31-.49.66-.63,1.05-.11.29.1.63.36.74.28.12.63.02.78-.26.21-.36.37-.74.35-1.16,0-.04,0-.08,0-.11,0-.05,0-.03,0,.05v-.04c.04-.07.07-.14.09-.21.07-.23.07-.49,0-.72-.14-.43-.71-.64-1.04-.28-.17.18-.3.41-.34.66-.03.17-.03.33.06.48.08.13.22.25.37.29.3.07.71-.09.77-.44,0-.03,0-.06.02-.08.02-.06.02-.06-.02.03.01-.03.03-.05.04-.07-.06.07-.06.08-.02.03l-1.04-.28s.01.07.02.08c0-.09-.01-.11-.01-.06,0,.01,0,.03,0,.04,0,.07.03-.1,0-.04-.02.03-.02.07-.04.11-.06.17-.1.34-.09.51,0,.02,0,.18,0,.18.01-.08.02-.1,0-.05,0,.02,0,.03,0,.05,0,.03-.02.06-.03.09,0,.02-.01.05-.02.07l.03-.06s-.03.07-.04.09c-.04.07-.08.14-.11.21l1.14.48c.03-.09,0,.02-.01.02.01,0,.04-.09.05-.1.03-.06.06-.12.1-.18.03-.05.07-.1.1-.15.07-.1-.05.05,0,0,.03-.03.05-.06.08-.09l-1.07-.44c0,.07,0,.14,0,.21,0,.08.01.03,0-.01,0,.03-.01.08-.02.1-.03.15-.07.29-.1.44l-.19.85c-.07.32.1.69.44.77.32.07.69-.1.77-.44h0Z"/>
      <path class="cls-1" d="m550.66,325.61s-.03.05-.05.08l.1-.13s-.02.03-.04.04l1.07.44s0-.02,0-.03c0-.09-.01-.17-.05-.24-.03-.08-.07-.14-.13-.2-.06-.06-.12-.1-.2-.13-.07-.04-.15-.06-.24-.05l-.17.02c-.11.03-.2.08-.28.16l-.1.13c-.06.1-.08.2-.09.32,0,0,0,.02,0,.03l.02.17.06.15.1.13c.06.06.12.1.2.13.05.03.1.04.16.04.06.01.11.01.17,0,.06,0,.11-.01.16-.04.08-.03.14-.07.2-.13,0,0,.02-.02.03-.03,0,0,0-.01.01-.02.04-.05.07-.09.11-.14.01-.02.03-.04.04-.07.05-.07.07-.15.07-.23.02-.08.01-.17-.01-.25-.02-.08-.06-.15-.11-.21-.04-.07-.1-.12-.18-.16l-.15-.06c-.11-.03-.22-.03-.33,0l-.15.06c-.09.06-.17.13-.22.22h0Z"/>
      <path class="cls-1" d="m551.2,326.42c.8,0,.81-1.25,0-1.25s-.81,1.25,0,1.25h0Z"/>
      <path class="cls-1" d="m551.09,326.49c.8,0,.81-1.25,0-1.25s-.81,1.25,0,1.25h0Z"/>
      <path class="cls-1" d="m551.41,326.42c.8,0,.81-1.25,0-1.25s-.81,1.25,0,1.25h0Z"/>
    </g>
    <ellipse class="cls-2" cx="551.43" cy="271.24" rx="3.46" ry="10.9"/>
    <g>
      <rect class="cls-2" x="514.36" y="260.34" width="36.96" height="21.8"/>
      <path class="cls-1" d="m551.36,269.8c3.22,0,3.22-5,0-5s-3.22,5,0,5h0Z"/>
      <path class="cls-1" d="m551.67,274.09c3.22,0,3.22-5,0-5s-3.22,5,0,5h0Z"/>
      <path class="cls-1" d="m551.49,278.47c3.22,0,3.22-5,0-5s-3.22,5,0,5h0Z"/>
      <path class="cls-1" d="m552.09,278.97c-.02-.24-.06-.47-.14-.69l-.06-.15-.1-.13-.13-.1c-.07-.05-.15-.07-.23-.07-.06-.01-.11-.01-.17,0-.06,0-.11.01-.16.04-.05.01-.1.04-.14.08-.07.04-.12.1-.16.18-.08.14-.13.29-.16.46s-.04.33-.04.49c0,.09.01.17.05.24.03.08.07.14.13.2.06.06.12.1.2.13.07.04.15.06.24.05.16,0,.33-.06.44-.18l.1-.13c.06-.1.08-.2.09-.32l.02-.31c0-.09-.01-.17-.05-.24-.03-.08-.07-.14-.13-.2-.06-.06-.12-.1-.2-.13-.07-.04-.15-.06-.24-.05-.16,0-.33.06-.44.18l-.1.13c-.06.1-.08.2-.09.32,0,.09-.01.19,0,.28,0,.02,0,.04,0,.07,0,.07.01.15.03.21l.06.15s0,0,0,.01c.02.04.08.11.11.14.03.03.1.08.13.1.07.05.15.07.23.07.03,0,.06.01.09.01.16,0,.33-.07.44-.18.06-.06.1-.12.13-.2.04-.07.06-.15.05-.24,0-.16-.06-.33-.18-.44s-.27-.19-.44-.18h0c.11.03.21.06.32.09h0s.08.06.13.09h0s.07.08.1.12c0,0,0-.01,0-.02l.06.15s0-.01,0-.02l.02.17c-.02-.13-.02-.25,0-.38h-1.25l-.02.31h1.25c0-.11,0-.22.02-.33l-.02.17c.01-.09.03-.17.06-.25l-.06.15s.02-.04.03-.06l-1.14-.15c.05.14.09.28.11.43l-.02-.17s0,.06.01.1c0,.09.01.17.05.24.03.08.07.14.13.2.06.06.12.1.2.13.07.04.15.06.24.05.16,0,.33-.06.44-.18.11-.12.2-.28.18-.44h0Z"/>
      <path class="cls-1" d="m551.38,281.56c.8,0,.81-1.25,0-1.25s-.81,1.25,0,1.25h0Z"/>
      <path class="cls-1" d="m551.99,280.77c.01-.15-.03-.29-.01-.44l-.02.17c.01-.07.03-.13.06-.19.01-.03.02-.07.03-.1.02-.08.03-.16.03-.23,0-.33-.19-.6-.47-.77-.31-.19-.72-.07-.9.24-.08.14-.11.31-.11.47,0,.19.06.37.08.56l-.02-.17c.02.13.03.27.04.41,0,.09.01.17.05.24.03.08.07.14.13.2.11.11.29.19.44.18s.33-.06.44-.18c.11-.12.2-.28.18-.44-.01-.13-.02-.25-.04-.38-.01-.11-.03-.22-.05-.32-.01-.06-.03-.12-.03-.18l.02.17s0-.1,0-.14l-.02.17s.01-.06.02-.09l-.06.15s0-.01.01-.02l-.1.13h0c-.09.05-.18.1-.28.15h.01c-.11,0-.22,0-.33,0h.01s-.1-.04-.15-.06c.03.02.05.03.08.05l-.13-.1s.03.03.05.04l-.1-.13s.02.03.03.04l-.06-.15s.01.04.02.06l-.02-.17s0,.04,0,.07l.02-.17c0,.06-.03.12-.05.18-.04.11-.05.22-.06.33-.01.14.03.27.01.41-.01.15.08.34.18.44s.29.19.44.18.33-.06.44-.18l.1-.13c.06-.1.08-.2.09-.32h0Z"/>
      <path class="cls-1" d="m551.24,281.49c.8,0,.81-1.25,0-1.25s-.81,1.25,0,1.25h0Z"/>
      <path class="cls-1" d="m551.5,281.56c.8,0,.81-1.25,0-1.25s-.81,1.25,0,1.25h0Z"/>
      <path class="cls-1" d="m551.52,281.58c.8,0,.81-1.25,0-1.25s-.81,1.25,0,1.25h0Z"/>
      <path class="cls-1" d="m551.8,265.18l.21-.9c.08-.33.18-.68.14-1.02-.03-.26-.14-.47-.38-.57-.22-.09-.52-.06-.68.13-.28.31-.49.66-.63,1.05-.11.29.1.63.36.74.28.12.63.02.78-.26.21-.36.37-.74.35-1.16,0-.04,0-.08,0-.11,0-.05,0-.03,0,.05v-.04c.04-.07.07-.14.09-.21.07-.23.07-.49,0-.72-.14-.43-.71-.64-1.04-.28-.17.18-.3.41-.34.66-.03.17-.03.33.06.48.08.13.22.25.37.29.3.07.71-.09.77-.44,0-.03,0-.06.02-.08.02-.06.02-.06-.02.03.01-.03.03-.05.04-.07-.06.07-.06.08-.02.03l-1.04-.28s.01.07.02.08c0-.09-.01-.11-.01-.06,0,.01,0,.03,0,.04,0,.07.03-.1,0-.04-.02.03-.02.07-.04.11-.06.17-.1.34-.09.51,0,.02,0,.18,0,.18.01-.08.02-.1,0-.05,0,.02,0,.03,0,.05,0,.03-.02.06-.03.09,0,.02-.01.05-.02.07l.03-.06s-.03.07-.04.09c-.04.07-.08.14-.11.21l1.14.48c.03-.09,0,.02-.01.02.01,0,.04-.09.05-.1.03-.06.06-.12.1-.18.03-.05.07-.1.1-.15.07-.1-.05.05,0,0,.03-.03.05-.06.08-.09l-1.07-.44c0,.07,0,.14,0,.21,0,.08.01.03,0-.01,0,.03-.01.08-.02.1-.03.15-.07.29-.1.44l-.19.85c-.07.32.1.69.44.77.32.07.69-.1.77-.44h0Z"/>
      <path class="cls-1" d="m550.82,261.36s-.03.05-.05.08l.1-.13s-.02.03-.04.04l1.07.44s0-.02,0-.03c0-.09-.01-.17-.05-.24-.03-.08-.07-.14-.13-.2-.06-.06-.12-.1-.2-.13-.07-.04-.15-.06-.24-.05l-.17.02c-.11.03-.2.08-.28.16l-.1.13c-.06.1-.08.2-.09.32,0,0,0,.02,0,.03l.02.17.06.15.1.13c.06.06.12.1.2.13.05.03.1.04.16.04.06.01.11.01.17,0,.06,0,.11-.01.16-.04.08-.03.14-.07.2-.13,0,0,.02-.02.03-.03,0,0,0-.01.01-.02.04-.05.07-.09.11-.14.01-.02.03-.04.04-.07.05-.07.07-.15.07-.23.02-.08.01-.17-.01-.25-.02-.08-.06-.15-.11-.21-.04-.07-.1-.12-.18-.16l-.15-.06c-.11-.03-.22-.03-.33,0l-.15.06c-.09.06-.17.13-.22.22h0Z"/>
      <path class="cls-1" d="m551.35,262.18c.8,0,.81-1.25,0-1.25s-.81,1.25,0,1.25h0Z"/>
      <path class="cls-1" d="m551.24,262.24c.8,0,.81-1.25,0-1.25s-.81,1.25,0,1.25h0Z"/>
      <path class="cls-1" d="m551.56,262.18c.8,0,.81-1.25,0-1.25s-.81,1.25,0,1.25h0Z"/>
    </g>
    <ellipse class="cls-2" cx="551.43" cy="204.09" rx="3.46" ry="10.9"/>
    <g>
      <rect class="cls-2" x="514.36" y="193.19" width="36.96" height="21.8"/>
      <path class="cls-1" d="m551.36,202.65c3.22,0,3.22-5,0-5s-3.22,5,0,5h0Z"/>
      <path class="cls-1" d="m551.67,206.94c3.22,0,3.22-5,0-5s-3.22,5,0,5h0Z"/>
      <path class="cls-1" d="m551.49,211.32c3.22,0,3.22-5,0-5s-3.22,5,0,5h0Z"/>
      <path class="cls-1" d="m552.09,211.82c-.02-.24-.06-.47-.14-.69l-.06-.15-.1-.13-.13-.1c-.07-.05-.15-.07-.23-.07-.06-.01-.11-.01-.17,0-.06,0-.11.01-.16.04-.05.01-.1.04-.14.08-.07.04-.12.1-.16.18-.08.14-.13.29-.16.46s-.04.33-.04.49c0,.09.01.17.05.24.03.08.07.14.13.2.06.06.12.1.2.13.07.04.15.06.24.05.16,0,.33-.06.44-.18l.1-.13c.06-.1.08-.2.09-.32l.02-.31c0-.09-.01-.17-.05-.24-.03-.08-.07-.14-.13-.2-.06-.06-.12-.1-.2-.13-.07-.04-.15-.06-.24-.05-.16,0-.33.06-.44.18l-.1.13c-.06.1-.08.2-.09.32,0,.09-.01.19,0,.28,0,.02,0,.04,0,.07,0,.07.01.15.03.21l.06.15s0,0,0,.01c.02.04.08.11.11.14.03.03.1.08.13.1.07.05.15.07.23.07.03,0,.06.01.09.01.16,0,.33-.07.44-.18.06-.06.1-.12.13-.2.04-.07.06-.15.05-.24,0-.16-.06-.33-.18-.44s-.27-.19-.44-.18h0c.11.03.21.06.32.09h0s.08.06.13.09h0s.07.08.1.12c0,0,0-.01,0-.02l.06.15s0-.01,0-.02l.02.17c-.02-.13-.02-.25,0-.38h-1.25l-.02.31h1.25c0-.11,0-.22.02-.33l-.02.17c.01-.09.03-.17.06-.25l-.06.15s.02-.04.03-.06l-1.14-.15c.05.14.09.28.11.43l-.02-.17s0,.06.01.1c0,.09.01.17.05.24.03.08.07.14.13.2.06.06.12.1.2.13.07.04.15.06.24.05.16,0,.33-.06.44-.18.11-.12.2-.28.18-.44h0Z"/>
      <path class="cls-1" d="m551.38,214.41c.8,0,.81-1.25,0-1.25s-.81,1.25,0,1.25h0Z"/>
      <path class="cls-1" d="m551.99,213.62c.01-.15-.03-.29-.01-.44l-.02.17c.01-.07.03-.13.06-.19.01-.03.02-.07.03-.1.02-.08.03-.16.03-.23,0-.33-.19-.6-.47-.77-.31-.19-.72-.07-.9.24-.08.14-.11.31-.11.47,0,.19.06.37.08.56l-.02-.17c.02.13.03.27.04.41,0,.09.01.17.05.24.03.08.07.14.13.2.11.11.29.19.44.18s.33-.06.44-.18c.11-.12.2-.28.18-.44-.01-.13-.02-.25-.04-.38-.01-.11-.03-.22-.05-.32-.01-.06-.03-.12-.03-.18l.02.17s0-.1,0-.14l-.02.17s.01-.06.02-.09l-.06.15s0-.01.01-.02l-.1.13h0c-.09.05-.18.1-.28.15h.01c-.11,0-.22,0-.33,0h.01s-.1-.04-.15-.06c.03.02.05.03.08.05l-.13-.1s.03.03.05.04l-.1-.13s.02.03.03.04l-.06-.15s.01.04.02.06l-.02-.17s0,.04,0,.07l.02-.17c0,.06-.03.12-.05.18-.04.11-.05.22-.06.33-.01.14.03.27.01.41-.01.15.08.34.18.44s.29.19.44.18.33-.06.44-.18l.1-.13c.06-.1.08-.2.09-.32h0Z"/>
      <path class="cls-1" d="m551.24,214.34c.8,0,.81-1.25,0-1.25s-.81,1.25,0,1.25h0Z"/>
      <path class="cls-1" d="m551.5,214.41c.8,0,.81-1.25,0-1.25s-.81,1.25,0,1.25h0Z"/>
      <path class="cls-1" d="m551.52,214.43c.8,0,.81-1.25,0-1.25s-.81,1.25,0,1.25h0Z"/>
      <path class="cls-1" d="m551.8,198.03l.21-.9c.08-.33.18-.68.14-1.02-.03-.26-.14-.47-.38-.57-.22-.09-.52-.06-.68.13-.28.31-.49.66-.63,1.05-.11.29.1.63.36.74.28.12.63.02.78-.26.21-.36.37-.74.35-1.16,0-.04,0-.08,0-.11,0-.05,0-.03,0,.05v-.04c.04-.07.07-.14.09-.21.07-.23.07-.49,0-.72-.14-.43-.71-.64-1.04-.28-.17.18-.3.41-.34.66-.03.17-.03.33.06.48.08.13.22.25.37.29.3.07.71-.09.77-.44,0-.03,0-.06.02-.08.02-.06.02-.06-.02.03.01-.03.03-.05.04-.07-.06.07-.06.08-.02.03l-1.04-.28s.01.07.02.08c0-.09-.01-.11-.01-.06,0,.01,0,.03,0,.04,0,.07.03-.1,0-.04-.02.03-.02.07-.04.11-.06.17-.1.34-.09.51,0,.02,0,.18,0,.18.01-.08.02-.1,0-.05,0,.02,0,.03,0,.05,0,.03-.02.06-.03.09,0,.02-.01.05-.02.07l.03-.06s-.03.07-.04.09c-.04.07-.08.14-.11.21l1.14.48c.03-.09,0,.02-.01.02.01,0,.04-.09.05-.1.03-.06.06-.12.1-.18.03-.05.07-.1.1-.15.07-.1-.05.05,0,0,.03-.03.05-.06.08-.09l-1.07-.44c0,.07,0,.14,0,.21,0,.08.01.03,0-.01,0,.03-.01.08-.02.1-.03.15-.07.29-.1.44l-.19.85c-.07.32.1.69.44.77.32.07.69-.1.77-.44h0Z"/>
      <path class="cls-1" d="m550.82,194.21s-.03.05-.05.08l.1-.13s-.02.03-.04.04l1.07.44s0-.02,0-.03c0-.09-.01-.17-.05-.24-.03-.08-.07-.14-.13-.2-.06-.06-.12-.1-.2-.13-.07-.04-.15-.06-.24-.05l-.17.02c-.11.03-.2.08-.28.16l-.1.13c-.06.1-.08.2-.09.32,0,0,0,.02,0,.03l.02.17.06.15.1.13c.06.06.12.1.2.13.05.03.1.04.16.04.06.01.11.01.17,0,.06,0,.11-.01.16-.04.08-.03.14-.07.2-.13,0,0,.02-.02.03-.03,0,0,0-.01.01-.02.04-.05.07-.09.11-.14.01-.02.03-.04.04-.07.05-.07.07-.15.07-.23.02-.08.01-.17-.01-.25-.02-.08-.06-.15-.11-.21-.04-.07-.1-.12-.18-.16l-.15-.06c-.11-.03-.22-.03-.33,0l-.15.06c-.09.06-.17.13-.22.22h0Z"/>
      <path class="cls-1" d="m551.35,195.03c.8,0,.81-1.25,0-1.25s-.81,1.25,0,1.25h0Z"/>
      <path class="cls-1" d="m551.24,195.09c.8,0,.81-1.25,0-1.25s-.81,1.25,0,1.25h0Z"/>
      <path class="cls-1" d="m551.56,195.03c.8,0,.81-1.25,0-1.25s-.81,1.25,0,1.25h0Z"/>
    </g>
    <ellipse class="cls-2" cx="551.06" cy="138.25" rx="3.46" ry="10.9"/>
    <g>
      <rect class="cls-2" x="513.98" y="127.35" width="36.96" height="21.8"/>
      <g>
        <path class="cls-1" d="m550.99,136.81c3.22,0,3.22-5,0-5s-3.22,5,0,5h0Z"/>
        <path class="cls-1" d="m551.29,141.1c3.22,0,3.22-5,0-5s-3.22,5,0,5h0Z"/>
        <path class="cls-1" d="m551.12,145.48c3.22,0,3.22-5,0-5s-3.22,5,0,5h0Z"/>
        <path class="cls-1" d="m551.71,145.98c-.02-.24-.06-.47-.14-.69l-.06-.15-.1-.13-.13-.1c-.07-.05-.15-.07-.23-.07-.06-.01-.11-.01-.17,0-.06,0-.11.01-.16.04-.05.01-.1.04-.14.08-.07.04-.12.1-.16.18-.08.14-.13.29-.16.46s-.04.33-.04.49c0,.09.01.17.05.24.03.08.07.14.13.2.06.06.12.1.2.13.07.04.15.06.24.05.16,0,.33-.06.44-.18l.1-.13c.06-.1.08-.2.09-.32l.02-.31c0-.09-.01-.17-.05-.24-.03-.08-.07-.14-.13-.2-.06-.06-.12-.1-.2-.13-.07-.04-.15-.06-.24-.05-.16,0-.33.06-.44.18l-.1.13c-.06.1-.08.2-.09.32,0,.09-.01.19,0,.28,0,.02,0,.04,0,.07,0,.07.01.15.03.21l.06.15s0,0,0,.01c.02.04.08.11.11.14.03.03.1.08.13.1.07.05.15.07.23.07.03,0,.06.01.09.01.16,0,.33-.07.44-.18.06-.06.1-.12.13-.2.04-.07.06-.15.05-.24,0-.16-.06-.33-.18-.44s-.27-.19-.44-.18h0c.11.03.21.06.32.09h0s.08.06.13.09h0s.07.08.1.12c0,0,0-.01,0-.02l.06.15s0-.01,0-.02l.02.17c-.02-.13-.02-.25,0-.38h-1.25l-.02.31h1.25c0-.11,0-.22.02-.33l-.02.17c.01-.09.03-.17.06-.25l-.06.15s.02-.04.03-.06l-1.14-.15c.05.14.09.28.11.43l-.02-.17s0,.06.01.1c0,.09.01.17.05.24.03.08.07.14.13.2.06.06.12.1.2.13.07.04.15.06.24.05.16,0,.33-.06.44-.18.11-.12.2-.28.18-.44h0Z"/>
        <path class="cls-1" d="m551,148.57c.8,0,.81-1.25,0-1.25s-.81,1.25,0,1.25h0Z"/>
        <path class="cls-1" d="m551.62,147.78c.01-.15-.03-.29-.01-.44l-.02.17c.01-.07.03-.13.06-.19.01-.03.02-.07.03-.1.02-.08.03-.16.03-.23,0-.33-.19-.6-.47-.77-.31-.19-.72-.07-.9.24-.08.14-.11.31-.11.47,0,.19.06.37.08.56l-.02-.17c.02.13.03.27.04.41,0,.09.01.17.05.24.03.08.07.14.13.2.11.11.29.19.44.18s.33-.06.44-.18c.11-.12.2-.28.18-.44-.01-.13-.02-.25-.04-.38-.01-.11-.03-.22-.05-.32-.01-.06-.03-.12-.03-.18l.02.17s0-.1,0-.14l-.02.17s.01-.06.02-.09l-.06.15s0-.01.01-.02l-.1.13h0c-.09.05-.18.1-.28.15h.01c-.11,0-.22,0-.33,0h.01s-.1-.04-.15-.06c.03.02.05.03.08.05l-.13-.1s.03.03.05.04l-.1-.13s.02.03.03.04l-.06-.15s.01.04.02.06l-.02-.17s0,.04,0,.07l.02-.17c0,.06-.03.12-.05.18-.04.11-.05.22-.06.33-.01.14.03.27.01.41-.01.15.08.34.18.44s.29.19.44.18.33-.06.44-.18l.1-.13c.06-.1.08-.2.09-.32h0Z"/>
        <path class="cls-1" d="m550.87,148.5c.8,0,.81-1.25,0-1.25s-.81,1.25,0,1.25h0Z"/>
        <path class="cls-1" d="m551.13,148.57c.8,0,.81-1.25,0-1.25s-.81,1.25,0,1.25h0Z"/>
        <path class="cls-1" d="m551.15,148.59c.8,0,.81-1.25,0-1.25s-.81,1.25,0,1.25h0Z"/>
        <path class="cls-1" d="m551.43,132.19l.21-.9c.08-.33.18-.68.14-1.02-.03-.26-.14-.47-.38-.57-.22-.09-.52-.06-.68.13-.28.31-.49.66-.63,1.05-.11.29.1.63.36.74.28.12.63.02.78-.26.21-.36.37-.74.35-1.16,0-.04,0-.08,0-.11,0-.05,0-.03,0,.05v-.04c.04-.07.07-.14.09-.21.07-.23.07-.49,0-.72-.14-.43-.71-.64-1.04-.28-.17.18-.3.41-.34.66-.03.17-.03.33.06.48.08.13.22.25.37.29.3.07.71-.09.77-.44,0-.03,0-.06.02-.08.02-.06.02-.06-.02.03.01-.03.03-.05.04-.07-.06.07-.06.08-.02.03l-1.04-.28s.01.07.02.08c0-.09-.01-.11-.01-.06,0,.01,0,.03,0,.04,0,.07.03-.1,0-.04-.02.03-.02.07-.04.11-.06.17-.1.34-.09.51,0,.02,0,.18,0,.18.01-.08.02-.1,0-.05,0,.02,0,.03,0,.05,0,.03-.02.06-.03.09,0,.02-.01.05-.02.07l.03-.06s-.03.07-.04.09c-.04.07-.08.14-.11.21l1.14.48c.03-.09,0,.02-.01.02.01,0,.04-.09.05-.1.03-.06.06-.12.1-.18.03-.05.07-.1.1-.15.07-.1-.05.05,0,0,.03-.03.05-.06.08-.09l-1.07-.44c0,.07,0,.14,0,.21,0,.08.01.03,0-.01,0,.03-.01.08-.02.1-.03.15-.07.29-.1.44l-.19.85c-.07.32.1.69.44.77.32.07.69-.1.77-.44h0Z"/>
        <path class="cls-1" d="m550.44,128.37s-.03.05-.05.08l.1-.13s-.02.03-.04.04l1.07.44s0-.02,0-.03c0-.09-.01-.17-.05-.24-.03-.08-.07-.14-.13-.2-.06-.06-.12-.1-.2-.13-.07-.04-.15-.06-.24-.05l-.17.02c-.11.03-.2.08-.28.16l-.1.13c-.06.1-.08.2-.09.32,0,0,0,.02,0,.03l.02.17.06.15.1.13c.06.06.12.1.2.13.05.03.1.04.16.04.06.01.11.01.17,0,.06,0,.11-.01.16-.04.08-.03.14-.07.2-.13,0,0,.02-.02.03-.03,0,0,0-.01.01-.02.04-.05.07-.09.11-.14.01-.02.03-.04.04-.07.05-.07.07-.15.07-.23.02-.08.01-.17-.01-.25-.02-.08-.06-.15-.11-.21-.04-.07-.1-.12-.18-.16l-.15-.06c-.11-.03-.22-.03-.33,0l-.15.06c-.09.06-.17.13-.22.22h0Z"/>
        <path class="cls-1" d="m550.98,129.18c.8,0,.81-1.25,0-1.25s-.81,1.25,0,1.25h0Z"/>
        <path class="cls-1" d="m550.87,129.25c.8,0,.81-1.25,0-1.25s-.81,1.25,0,1.25h0Z"/>
        <path class="cls-1" d="m551.19,129.18c.8,0,.81-1.25,0-1.25s-.81,1.25,0,1.25h0Z"/>
      </g>
    </g>
  </g>
</svg>