<?xml version="1.0" encoding="UTF-8"?>
<svg xmlns="http://www.w3.org/2000/svg" viewBox="0 0 851.36 992.41">
  <defs>
    <style>
      .cls-1 {
        fill: #fff;
      }

      .cls-2 {
        fill: #1d1d1b;
      }

      .cls-3 {
        fill: none;
        stroke: #1d1d1b;
        stroke-miterlimit: 10;
      }
    </style>
  </defs>
  <g id="Capa_1" data-name="Capa 1">
    <line class="cls-3" x1="110.07" y1="217.04" x2="111.27" y2="992.41"/>
    <line class="cls-3" x1="286.94" y1="404.53" x2="797.65" y2="404.53"/>
    <line class="cls-3" x1="286.94" y1="404.53" x2="110.36" y2="403.63"/>
    <path class="cls-2" d="m110.79,221.33c-2.35-9.6-5.9-18.91-10.68-27.57-4.31-7.83-9.61-15.12-15.77-21.61-5.66-5.96-12.07-11.25-19.06-15.58-9.17-5.67-19.24-9.72-29.6-12.62s-20.71-4.66-31.19-6.31c-1.29-.2-2.58-.4-3.87-.6-.63-.1-.9.87-.27.96,10.36,1.61,20.74,3.24,30.91,5.8,10.45,2.64,20.66,6.31,30.07,11.6,7.29,4.1,13.99,9.18,19.95,15.05,6.28,6.19,11.73,13.2,16.23,20.79,4.94,8.32,8.73,17.31,11.33,26.63.34,1.23.67,2.47.97,3.71.15.62,1.12.36.96-.27h0Z"/>
    <line class="cls-3" x1="110.79" y1="681.01" x2="797.65" y2="404.53"/>
    <line class="cls-3" x1="110.26" y1="337.9" x2="794.69" y2="337.02"/>
    <line class="cls-3" x1="797.65" y1="404.53" x2="797.65" y2="340.48"/>
    <line class="cls-3" x1="110.67" y1="361.9" x2="777.53" y2="361.01"/>
    <line class="cls-3" x1="110.69" y1="377.21" x2="777.55" y2="376.32"/>
    <path class="cls-2" d="m777.13,361.43c1.19.23,1.74,1.83,2.09,2.83.46,1.32.7,2.7.74,4.1.05,1.46-.1,2.93-.38,4.37-.2,1.02-.52,3.33-2.04,3.12-.63-.09-.9.88-.27.96,1.58.22,2.56-1.02,2.96-2.41.51-1.78.75-3.72.74-5.57,0-1.75-.28-3.51-.9-5.15-.48-1.27-1.19-2.92-2.68-3.22-.63-.12-.9.84-.27.96h0Z"/>
    <path class="cls-2" d="m794.32,337.47c.79.12,1.56.3,2.08.9.26.29.46.62.54,1.01.05.23.07.46.11.68.02.12.04.24.05.36,0,.06.02.12.03.18v.07c.03.08.03.09.01.05l.25-.43h-.02c.17,0,.34,0,.5,0h-.02c-.22-.16-.55-.05-.68.17-.14.25-.05.53.18.68.18.12.42.09.59-.04.22-.17.21-.4.17-.64-.04-.29-.09-.58-.13-.87s-.08-.58-.18-.85-.25-.51-.42-.74c-.33-.46-.74-.84-1.26-1.08s-1.01-.36-1.55-.44c-.27-.04-.54.07-.62.35-.06.24.08.57.35.62h0Z"/>
  </g>
  <g id="Capa_2" data-name="Capa 2">
    <g>
      <g>
        <circle class="cls-3" cx="670.42" cy="180.94" r="180.44"/>
        <ellipse class="cls-3" cx="670.42" cy="194.2" rx="179.96" ry="41.26"/>
        <path class="cls-1" d="m491.23,190.96c.64,0,.64-1,0-1s-.64,1,0,1h0Z"/>
        <path class="cls-1" d="m491.29,190.8c.64,0,.64-1,0-1s-.64,1,0,1h0Z"/>
        <path class="cls-1" d="m491.29,190.65c.64,0,.64-1,0-1s-.64,1,0,1h0Z"/>
        <path class="cls-1" d="m491.25,190.59c.64,0,.64-1,0-1s-.64,1,0,1h0Z"/>
        <path class="cls-1" d="m491.27,190.44c.64,0,.64-1,0-1s-.64,1,0,1h0Z"/>
        <path class="cls-1" d="m491.27,190.33c.64,0,.64-1,0-1s-.64,1,0,1h0Z"/>
        <path class="cls-1" d="m491.27,190.11c.64,0,.64-1,0-1s-.64,1,0,1h0Z"/>
        <path class="cls-1" d="m491.29,189.94c.64,0,.64-1,0-1s-.64,1,0,1h0Z"/>
        <path class="cls-1" d="m491.32,189.72c.64,0,.64-1,0-1s-.64,1,0,1h0Z"/>
        <path class="cls-1" d="m491.34,189.61c.64,0,.64-1,0-1s-.64,1,0,1h0Z"/>
        <path class="cls-1" d="m491.31,189c.64,0,.64-1,0-1s-.64,1,0,1h0Z"/>
        <path class="cls-1" d="m491.18,189.02c.64,0,.64-1,0-1s-.64,1,0,1h0Z"/>
        <path class="cls-1" d="m491.2,189.2c.64,0,.64-1,0-1s-.64,1,0,1h0Z"/>
        <path class="cls-1" d="m491.16,189.04c.64,0,.64-1,0-1s-.64,1,0,1h0Z"/>
        <path class="cls-1" d="m490.71,188.93v.02c0,.07.01.13.04.19.02.06.05.12.1.16.05.05.1.08.16.1.06.03.12.05.19.04l.13-.02c.08-.02.16-.07.22-.13l.08-.1c.05-.08.07-.16.07-.25v-.02c0-.07-.01-.13-.04-.19-.02-.06-.05-.12-.1-.16-.05-.05-.1-.08-.16-.1-.06-.03-.12-.05-.19-.04l-.13.02c-.08.02-.16.07-.22.13l-.08.1c-.05.08-.07.16-.07.25h0Z"/>
        <path class="cls-1" d="m491.25,189.78c.64,0,.64-1,0-1s-.64,1,0,1h0Z"/>
        <path class="cls-1" d="m491.88,188.81s.02-.03.03-.05c.02-.05.05-.11.07-.17s.02-.12.03-.18c0-.02,0-.04,0-.06,0-.06-.01-.12-.02-.18,0-.02,0-.04-.02-.06-.05-.12-.09-.21-.18-.3-.04-.04-.09-.08-.14-.1-.04-.02-.09-.04-.13-.05,0,0,0,0-.01,0,0,0,0,0-.01,0-.02,0-.05,0-.07,0-.02,0-.05,0-.07,0,0,0-.01,0-.02,0-.04,0-.1.01-.14.02,0,0,0,0-.01,0s0,0-.01,0c-.04.01-.09.04-.12.05-.04.02-.1.07-.12.09,0,0,0,0-.01.01l-.04.05s-.03.04-.04.05c0,0,0,0,0,0-.05.09-.08.19-.07.29,0,.05,0,.1.02.15l.03.06s.02.04.03.07c0,0,0,0,0,.01.05.08.12.16.21.2.05.02.09.05.14.06.05.01.11.02.16.02.03,0,.05,0,.08,0h.16c.07.02.13,0,.19-.03.06-.02.12-.05.16-.1.05-.05.08-.1.1-.16.03-.06.05-.12.04-.19l-.02-.13c-.02-.08-.07-.16-.13-.22l-.1-.08c-.08-.05-.16-.07-.25-.07-.09,0-.18-.01-.27-.02l.13.02s-.02,0-.03,0l.12.05s-.01,0-.02,0l.1.08s0,0-.01-.01l.08.1s0-.01-.01-.02l.05.12s0-.01,0-.02l.02.13s0-.01,0-.02l-.02.13s0-.01,0-.02l-.05.12s0-.01.01-.02l-.08.1s0,0,.01-.01l-.1.08s.01,0,.02-.01l-.12.05s.02,0,.03,0l-.13.02s.02,0,.03,0l-.13-.02s.02,0,.03,0l-.12-.05s.02,0,.03.02l-.1-.08s.02.02.03.03l-.08-.1s.02.04.03.06l-.05-.12s.02.06.02.08l-.02-.13s0,.06,0,.09l.02-.13s-.01.06-.02.08l.05-.12s-.02.04-.03.05c-.04.06-.06.12-.06.19-.01.07-.01.13,0,.2.02.07.05.12.09.17.04.05.08.1.14.13l.12.05c.09.02.18.02.27,0l.12-.05c.08-.04.13-.1.18-.18h0Z"/>
        <path class="cls-1" d="m491.66,189.13l-.04-.04s-.1-.08-.16-.1c-.06-.03-.12-.05-.19-.04-.07,0-.13.01-.19.04-.06.02-.12.05-.16.1l-.08.1c-.05.08-.07.16-.07.25l.02.13c.02.08.07.16.13.22l.04.04s.1.08.16.1c.06.03.12.05.19.04.07,0,.13-.01.19-.04.06-.02.12-.05.16-.1l.08-.1c.05-.08.07-.16.07-.25l-.02-.13c-.02-.08-.07-.16-.13-.22h0Z"/>
        <path class="cls-1" d="m491.25,189.89c.64,0,.64-1,0-1s-.64,1,0,1h0Z"/>
        <path class="cls-1" d="m491.25,189.8c.64,0,.64-1,0-1s-.64,1,0,1h0Z"/>
        <path class="cls-1" d="m491.25,189.72c.64,0,.64-1,0-1s-.64,1,0,1h0Z"/>
        <path class="cls-1" d="m491.27,189.57c.64,0,.64-1,0-1s-.64,1,0,1h0Z"/>
        <path class="cls-1" d="m490.75,189.19c.02.36.04.72.07,1.07.01.13.05.26.15.35.09.09.23.15.35.15s.26-.05.35-.15.16-.22.15-.35c-.03-.36-.05-.72-.07-1.07,0-.13-.05-.26-.15-.35-.09-.09-.23-.15-.35-.15s-.26.05-.35.15-.15.22-.15.35h0Z"/>
        <path class="cls-1" d="m492.05,188.16c.73-.83,1.47-1.67,2.24-2.46.35-.36.72-.68,1.16-.92.48-.26.99-.44,1.46-.7s.15-1.13-.39-.91c-.93.38-1.72,1.11-2.15,2.02-.21.46-.44.9-.71,1.32-.13.21-.27.42-.4.63-.07.11-.14.22-.21.33l-.14.22c-.08.12-.1.15-.05.08l.25-.07c-.45-.02-.92-.31-1.27-.57l.1.79c.46-.52.76-1.08,1.11-1.68s1.05-.82,1.61-1.1c.59-.3,1.17-.6,1.69-1,.55-.42,1.01-.93,1.46-1.45.35-.41-.1-1.11-.61-.79-.61.39-1.19.83-1.73,1.3l.71.71c.28-.27.54-.56.79-.87.16-.2.2-.44.04-.66-.14-.18-.45-.28-.65-.13l-2.66,2.03.61.79,1.53-1.5c.43-.42-.11-1.02-.61-.79-.54.25-1.06.53-1.56.85l.61.79c.28-.26.53-.56.82-.82.31-.28.7-.43,1.08-.59.84-.35,1.67-.71,2.51-1.06.25-.11.3-.47.18-.68-.15-.26-.44-.28-.68-.18-.88.37-1.75.74-2.63,1.11-.39.17-.75.34-1.07.62s-.6.6-.9.89c-.41.39.12,1.09.61.79s1.03-.6,1.56-.85l-.61-.79-1.53,1.5c-.39.38.14,1.14.61.79l2.66-2.03-.61-.79c-.24.31-.5.6-.79.87-.47.45.23,1.13.71.71s.99-.8,1.53-1.15l-.61-.79c-.43.5-.87,1.01-1.41,1.4s-1.16.69-1.76.99-1.2.57-1.59,1.11c-.2.27-.32.57-.49.86-.18.31-.39.59-.62.86s-.17.59.1.79c.46.34,1.18.74,1.77.7.35-.02.52-.29.7-.56.2-.31.4-.62.59-.93.36-.56.64-1.15.94-1.74s.85-1.11,1.45-1.35l-.39-.91c-.49.28-1.03.46-1.52.73-.46.25-.86.6-1.23.97-.81.81-1.57,1.69-2.33,2.54-.43.48.28,1.19.71.71h0Z"/>
        <path class="cls-1" d="m498.96,182.08c.79-.71,1.61-1.38,2.47-1.99l-.5-.86c-1.04.77-2.14,1.47-3.28,2.09l.61.79c.6-.54,1.25-1,1.9-1.47.52-.37.06-1.2-.5-.86-.99.59-1.92,1.28-2.77,2.05-.42.38.13,1.1.61.79.52-.34,1.06-.65,1.62-.94l-.68-.68c-.23.38-.42.77-.58,1.18l.48-.37h-.39c.08.31.17.62.25.93.86-.51,1.82-.86,2.74-1.22s1.91-.73,2.88-1.07l-.27-.96c-.72.29-1.45.52-2.2.7l.62.35v-.06c-.03.13-.05.26-.06.39.09-.19.42-.37.58-.51.24-.2.49-.4.73-.6.42-.34.95-.63,1.22-1.12.22-.39-.14-.83-.56-.73-.95.21-1.9.43-2.84.64l.39.91c.57-.37,1.21-.58,1.85-.79l-.39-.91c-.88.41-1.8.74-2.75.98l.39.91c.84-.42,1.71-.77,2.61-1.03l-.39-.91-1.99,1.32c-.55.36-.08,1.12.5.86.7-.31,1.39-.67,2.05-1.06.47-.28.16-1.12-.39-.91-.91.34-1.79.77-2.61,1.3-.54.35-.07,1.15.5.86.43-.22.83-.46,1.22-.75s.27-.9-.25-.93c-.35-.02-.68.12-1.01.24s-.65.25-.98.38c-.25.1-.42.33-.35.62.07.26.36.42.62.35.38-.11.75-.22,1.13-.33.18-.05.23-.05.41-.01s.35.03.52.02l-.25-.07.06.03-.23-.3.02.06v-.27c-.02.11-.07.19-.14.28l.79-.1c-.14-.18-.32-.33-.53-.43-.47-.25-.88.24-.68.68.15.34.4.67.73.87.36.22.87.14,1.05-.26.11-.25.07-.53-.18-.68-.21-.13-.58-.07-.68.18l.1-.09h.27c-.2-.05-.34-.35-.41-.52l-.68.68c.14.07.23.15.32.28.22.28.62.13.79-.1s.32-.55.22-.84c-.06-.18-.18-.29-.35-.35s-.31,0-.48-.03c-.13-.02-.25-.08-.39-.08-.18,0-.35.06-.52.1-.38.11-.75.22-1.13.33l.27.96c.29-.12.57-.23.86-.34.27-.1.57-.26.86-.24l-.25-.93c-.39.28-.79.53-1.22.75l.5.86c.75-.48,1.54-.89,2.37-1.2l-.39-.91c-.66.39-1.35.74-2.05,1.06l.5.86,1.99-1.32c.46-.3.18-1.08-.39-.91-.98.29-1.94.67-2.85,1.13-.52.26-.15,1.05.39.91,1.03-.26,2.02-.62,2.98-1.08.51-.24.15-1.09-.39-.91-.72.24-1.44.49-2.09.9-.48.31-.17,1.04.39.91.95-.21,1.9-.43,2.84-.64l-.56-.73c-.14.24-.4.4-.62.57-.28.22-.56.44-.84.66-.26.21-.52.43-.77.65s-.42.44-.34.8c.06.27.36.41.62.35.75-.18,1.48-.42,2.2-.7.58-.23.35-1.18-.27-.96-1.01.35-2.01.73-3,1.12s-1.96.75-2.86,1.28c-.43.25-.24.92.25.93h.39c.24,0,.4-.16.48-.36.13-.33.3-.64.48-.94.28-.45-.26-.9-.68-.68-.56.28-1.1.59-1.62.94l.61.79c.79-.72,1.65-1.35,2.57-1.9l-.5-.86c-.72.51-1.44,1.03-2.11,1.62-.43.39.12,1.05.61.79,1.14-.62,2.23-1.32,3.28-2.09.22-.16.32-.43.18-.68-.12-.22-.47-.34-.68-.18-.93.67-1.82,1.38-2.67,2.15-.48.43.23,1.14.71.71h0Z"/>
        <path class="cls-1" d="m512.04,176.43c1.62-.44,3.08-1.21,4.38-2.27.44-.36-.13-1.07-.61-.79-2.94,1.76-6.19,2.89-9.58,3.35l.39.91c6.22-2.71,12.65-4.93,19.22-6.65.62-.16.36-1.12-.27-.96-6.75,1.66-13.55,3.08-20.4,4.25l.39.91c3.94-2.09,8.31-3.27,12.76-3.46l-.25-.93c-4.5,2.08-9,4.16-13.5,6.24l.5.86c2.1-1,4.36-1.64,6.67-1.86l-.13-.98c-4.28.89-8.55,1.78-12.83,2.67l.39.91c4.07-1.76,8.4-2.88,12.82-3.32l-.35-.85c-1.92,1.8-4.1,3.27-6.48,4.39l.5.86c1.92-1.38,4.02-2.46,6.27-3.18l-.27-.96c-2.72.99-5.45,1.98-8.17,2.97l.62.62c.3-1.94,1.2-3.67,2.63-5.01l-.79-.61c-.81,1.42-1.62,2.84-2.43,4.26-.23.39.15.82.56.73,5.52-1.17,11.09-2.07,16.7-2.7.63-.07.64-1.07,0-1-5.7.64-11.36,1.55-16.96,2.73l.56.73c.81-1.42,1.62-2.84,2.43-4.26.28-.5-.37-.99-.79-.61-1.54,1.44-2.57,3.36-2.89,5.45-.05.34.22.76.62.62,2.72-.99,5.45-1.98,8.17-2.97.6-.22.35-1.16-.27-.96-2.33.75-4.52,1.85-6.51,3.28-.52.38-.08,1.14.5.86,2.46-1.15,4.7-2.69,6.68-4.55.3-.28.08-.9-.35-.85-4.6.46-9.08,1.62-13.32,3.46-.55.24-.14,1.02.39.91,4.28-.89,8.55-1.78,12.83-2.67.54-.11.43-1.04-.13-.98-2.5.24-4.91.91-7.18,2-.58.28-.07,1.13.5.86,4.5-2.08,9-4.16,13.5-6.24.46-.21.22-.95-.25-.93-4.64.19-9.17,1.42-13.27,3.59-.53.28-.14,1,.39.91,6.85-1.17,13.65-2.59,20.4-4.25l-.27-.96c-6.65,1.75-13.15,4.01-19.45,6.75-.57.25-.12.98.39.91,3.47-.47,6.81-1.65,9.82-3.45l-.61-.79c-1.16.95-2.49,1.62-3.94,2.01-.62.17-.36,1.13.27.96h0Z"/>
        <path class="cls-1" d="m532.68,161.07c-.15,2.38-.68,4.76-1.64,6.95-.85,1.95-2.03,4.22-3.71,5.57-1.23.99-3.12.89-4.04-.51-.81-1.24-.14-3.2,1.24-3.76l-1.95-3.34c-1.11,1.11-2.32,2-3.71,2.75-1.83.98-.88,3.64,1.01,3.73,3.23.14,6.44-.23,9.56-1.08l-1.54-3.66c-1.87,1.14-3.86,1.35-5.94.69v3.86c16.75-3.76,33.49-7.52,50.24-11.28l-1.06-3.86c-8.94,2.25-18.16,2.85-27.32,1.85v4c15.16.26,30.32.21,45.48-.16,2.58-.06,2.57-3.91,0-4-5.28-.18-10.56-.37-15.84-.55l1.01,3.73c3.4-1.82,7.23-2.36,11.02-2.68,4.07-.33,8.15-.58,12.23-.86,8.11-.56,16.22-1.1,24.33-1.58,16.46-.99,32.94-1.77,49.44-2.07,32.79-.6,65.77.67,98.14,6.27,18.07,3.13,35.9,7.61,53.2,13.7l.53-3.93c-22.65-2.45-45.17-6.11-67.43-10.96-6.32-1.38-12.62-2.85-18.9-4.41l-.53,3.93c9.71-.65,19.45-.05,29.01,1.84l.53-3.93c-4.22-.19-8.43-.38-12.65-.57-2.6-.12-2.53,3.79,0,4,12.12,1.02,24.23,2.03,36.35,3.05,5.95.5,11.9,1,17.86,1.5,5.28.44,10.84.68,15.76,2.84,5.36,2.35,9.04,7.08,12.54,11.57l2.42-3.14c-5.17-2.31-10.35-4.62-15.52-6.94l-1.54,3.66c6.5,1.86,12.69,4.5,18.55,7.89,2.23,1.29,4.25-2.16,2.02-3.45-6.14-3.55-12.69-6.33-19.5-8.29-2.12-.61-3.65,2.71-1.54,3.66,5.17,2.31,10.35,4.62,15.52,6.94,2.13.95,3.84-1.33,2.42-3.14-3.18-4.07-6.48-8.18-10.94-10.92s-10.16-3.73-15.52-4.25c-12.49-1.21-25.02-2.11-37.53-3.16-7.12-.6-14.24-1.19-21.36-1.79v4c4.22.19,8.43.38,12.65.57,2.22.1,2.76-3.49.53-3.93-9.9-1.96-20-2.65-30.07-1.98-2.16.14-2.83,3.36-.53,3.93,22.38,5.57,45.06,9.96,67.91,13.11,6.48.89,12.98,1.7,19.49,2.4,2.37.26,2.53-3.23.53-3.93-31.3-11.02-64.22-16.63-97.26-18.92-33.23-2.3-66.6-1.31-99.82.59-9.31.53-18.61,1.14-27.91,1.78-4.65.32-9.31.58-13.96.99-4.34.38-8.61,1.1-12.5,3.18-1.82.97-.89,3.66,1.01,3.73,5.28.18,10.56.37,15.84.55v-4c-15.16.36-30.32.42-45.48.16-2.63-.04-2.5,3.73,0,4,9.5,1.03,19.11.34,28.38-1.99,2.5-.63,1.44-4.42-1.06-3.86-16.75,3.76-33.49,7.52-50.24,11.28-2.02.45-1.78,3.29,0,3.86,3.05.98,6.29.57,9.02-1.09,1.92-1.17.68-4.26-1.54-3.66-2.8.77-5.59,1.07-8.49.94l1.01,3.73c1.67-.9,3.18-2.03,4.52-3.37s-.01-4.12-1.95-3.34c-2.88,1.16-4.84,3.94-4.47,7.12s3.28,5.61,6.49,5.7c3.72.1,6.2-3.13,7.89-6.04,1.99-3.42,3.05-7.24,3.3-11.17.16-2.57-3.84-2.56-4,0h0Z"/>
        <path class="cls-1" d="m841.78,181.48l1.79,1.44.61-.79c-.59-.33-1.19-.67-1.78-1-.52-.29-1.06-.67-1.68-.46-.44.14-.51.86,0,.96,1.2.25,2.4.44,3.62.58.36.04.65-.46.43-.75-.43-.57-.93-1.03-1.56-1.36-.5-.26-1.01.37-.61.79.73.76,1.54,1.43,2.4,2.03.47.32,1.01-.39.61-.79-.65-.64-1.36-1.21-2.12-1.72-.24-.16-.53-.03-.68.18-.56.76.06,1.66.53,2.28.55.72,1.17,1.38,1.74,2.08s1.04,1.41,1.27,2.25c.25.9.22,1.86.77,2.65.37.52,1.23.02.86-.5-.48-.69-.45-1.56-.65-2.35s-.59-1.47-1.05-2.11-.98-1.22-1.49-1.82c-.27-.32-.55-.64-.79-.99-.18-.26-.55-.68-.33-.99l-.68.18c.69.46,1.32.98,1.92,1.56l.61-.79c-.8-.55-1.53-1.17-2.2-1.87l-.61.79c.47.25.88.58,1.2,1.01l.43-.75c-1.13-.13-2.24-.31-3.35-.54v.96c.36-.12,1.04.44,1.36.61l1.34.75c.47.27,1.06-.42.61-.79l-1.79-1.44c-.5-.4-1.21.3-.71.71h0Z"/>
        <path class="cls-1" d="m850.1,189.91c.13-.85.18-1.64-.26-2.41-.4-.71-1.05-1.27-1.59-1.87-1.22-1.33-2.36-2.73-3.42-4.2l-.86.5c.87,1.18,1.74,2.38,2.41,3.68.31.61.52,1.29.92,1.84s.98.99,1.54,1.4c.52.38,1.02-.49.5-.86s-1.04-.77-1.37-1.33-.55-1.22-.87-1.81c-.65-1.21-1.47-2.32-2.28-3.43-.37-.51-1.24-.02-.86.5.96,1.33,1.98,2.61,3.06,3.84.51.58,1.07,1.12,1.57,1.7.22.26.43.55.53.87.13.42.07.87,0,1.3-.1.63.87.9.96.27h0Z"/>
        <path class="cls-1" d="m849.58,190.67c.64,0,.64-1,0-1s-.64,1,0,1h0Z"/>
        <path class="cls-1" d="m492.5,189.47l.12-.12-.79-.61c-.19.28-.33.59-.44.91-.09.25.1.56.35.62.28.06.52-.09.62-.35.07-.18.12-.37.17-.55.11-.44-.35-.76-.73-.56-.26.13-.48.35-.62.61-.11.22-.08.49.13.65s.46.12.66-.04c.25-.2.5-.41.72-.65.25-.27.42-.57.54-.91.1-.28.17-.57.27-.86s.21-.52.39-.79c.14-.22.05-.56-.18-.68-.25-.13-.53-.05-.68.18-.27.39-.54.76-.83,1.12-.33.4-.82.86-.6,1.43.09.24.34.44.62.35.24-.08.45-.35.35-.62-.06-.16,0,.03-.02.01v-.05s0,.03.02,0c.04-.07.06-.08.13-.17.13-.16.27-.32.4-.49.28-.35.55-.72.8-1.09l-.86-.5c-.34.54-.51,1.13-.7,1.73-.08.24-.17.45-.34.63-.22.24-.47.45-.72.65l.79.61s.04-.09.07-.12c-.04.06.01,0,.03-.03.01-.01.09-.07.03-.03.04-.03.08-.05.13-.07l-.73-.56c-.05.19-.11.37-.17.55l.96.27c.05-.14.06-.17.13-.31.06-.12.13-.24.21-.36.14-.2.06-.5-.13-.65s-.48-.14-.66.04l-.12.12c-.19.19-.19.51,0,.71s.52.19.71,0h0Z"/>
        <path class="cls-1" d="m494.32,185.79h0c.08.19.15.38.23.56h0c-.04.07-.09.15-.13.22h0c-.12.05-.24.1-.35.15h0c-.14-.08-.29-.17-.43-.25h0c-.02-.08-.05-.17-.07-.25h0s.01-.09.02-.13c0,.02,0,.04-.01.05l-.02.05s-.02.07-.03.11c-.02.07-.02.13,0,.2,0,.07.02.13.06.19.03.06.07.11.13.14.05.04.1.07.17.09l.13.02c.09,0,.17-.02.25-.07l.1-.08c.06-.06.1-.14.13-.22.01-.05.03-.1.04-.14,0-.02.01-.05.02-.07,0,0,.02-.13.02-.14,0-.02,0-.05,0-.07,0-.05-.01-.09-.03-.13,0-.02-.01-.04-.03-.06l-.08-.1-.1-.08-.12-.05s-.13-.02-.13-.02l-.13.02-.12.05c-.08.04-.1.07-.14.13-.03.03-.05.07-.06.11-.01.02-.02.04-.03.06l-.02.13c0,.07.01.13.04.19.01.04.03.08.06.11.04.05.08.1.14.13h0c.06.04.12.06.19.06.07.01.13.01.2,0,.07-.02.12-.05.17-.09.05-.04.1-.08.13-.14l.05-.12c.02-.09.02-.18,0-.27l-.05-.12c-.04-.08-.1-.13-.18-.18h0Z"/>
        <path class="cls-1" d="m492.18,191.05s-.01-.02-.02-.03l.05.12c-.02-.06-.04-.12-.05-.18l.02.13c0-.07,0-.15,0-.22,0-.12-.03-.23-.05-.34l.02.13s0-.04,0-.06c0-.07-.01-.13-.04-.19-.02-.06-.05-.12-.1-.16-.05-.05-.1-.08-.16-.1-.06-.03-.12-.05-.19-.04-.13,0-.26.05-.35.15l-.08.1c-.05.08-.07.16-.07.25,0,.11.03.23.05.34l-.02-.13c.01.09,0,.18,0,.27,0,.08.02.16.04.24s.06.16.09.24c.03.06.07.11.13.14.05.04.1.07.17.09.07.02.13.02.2,0,.07,0,.13-.02.19-.06.11-.07.2-.17.23-.3l.02-.13c0-.09-.02-.17-.07-.25h0Z"/>
        <path class="cls-1" d="m490.81,190.04s-.04.09-.06.14c-.02.05-.02.1-.02.15,0,.09.02.17.07.25.03.06.07.11.13.14.05.04.1.07.17.09.09.02.18.02.27,0,0,0,.01,0,.02,0,.07-.02.12-.05.17-.09.05-.04.1-.08.13-.14.04-.06.06-.12.06-.19.01-.07.01-.13,0-.2l-.05-.12c-.04-.08-.1-.13-.18-.18l-.12-.05c-.09-.02-.18-.02-.27,0,0,0-.01,0-.02,0l.63.48h0s-.01.09-.02.13c0,0,0-.01,0-.02l-.05.12s0,0,0-.01c.04-.06.06-.12.06-.19.01-.07.01-.13,0-.2-.02-.07-.05-.12-.09-.17-.04-.05-.08-.1-.14-.13l-.12-.05c-.09-.02-.18-.02-.27,0l-.12.05c-.08.04-.13.1-.18.18h0Z"/>
        <path class="cls-1" d="m490.79,190.37c0,.11,0,.21,0,.32,0,.09.02.18.04.27.02.07.06.13.08.2-.02-.05-.02-.05,0,0,0-.06,0-.06,0,0,0,.04,0,.09,0,.13,0,.11-.02.22-.02.33-.01.23,0,.47.02.7,0,.08.02.15.03.23,0,.03,0,.07.01.1,0-.05,0-.04,0,.02.01.12.02.23.02.35,0,.26.23.51.5.5s.5-.22.5-.5c0-.12,0-.23-.02-.35-.01-.09-.02-.19-.04-.28,0-.02-.02-.16,0-.07-.03-.23-.03-.46-.02-.7s.06-.48,0-.72c-.02-.07-.05-.13-.08-.2-.02-.05-.02-.06,0,0-.01-.06-.02-.06,0,0-.01-.1,0-.21,0-.32,0-.26-.23-.51-.5-.5s-.5.22-.5.5h0Z"/>
        <path class="cls-1" d="m491.48,193.74c.64,0,.64-1,0-1s-.64,1,0,1h0Z"/>
        <path class="cls-1" d="m490.97,193.2s0,.08,0,.12c0,.02,0,.04,0,.06,0,.06.01.12.03.19l.05.12.08.1.1.08c.06.04.12.06.19.06.04.01.09.01.13,0,.05,0,.09-.01.13-.03.04-.01.08-.03.11-.06.05-.04.1-.08.13-.14.02-.05.05-.1.06-.15,0-.03,0-.06.01-.08s0-.05.01-.08c0-.01,0-.03,0-.04,0-.05-.01-.11-.02-.16s-.03-.11-.04-.16l.02.13s0-.04,0-.06l-.02.13h0c.02-.07.02-.14,0-.21,0-.07-.02-.13-.06-.19-.03-.06-.07-.11-.13-.14-.05-.04-.1-.07-.17-.09l-.13-.02c-.09,0-.17.02-.25.07l-.1.08c-.06.06-.1.14-.13.22,0,.05-.02.11-.02.16,0,.01,0,.02,0,.03,0,.06.01.13.03.19.01.04.02.08.03.13l-.02-.13s0,.05,0,.07l.02-.13s0,.03-.01.04l.05-.12h0c.3.05.61.09.91.13,0-.01,0-.03,0-.04l.02.13c0-.06,0-.12,0-.18,0-.07-.01-.13-.04-.19-.02-.06-.05-.12-.1-.16-.05-.05-.1-.08-.16-.1-.06-.03-.12-.05-.19-.04l-.13.02c-.08.02-.16.07-.22.13l-.08.1c-.05.08-.07.16-.07.25h0Z"/>
        <path class="cls-1" d="m490.85,190.64s0,.02,0,.03l-.02-.13c.02.17.02.34,0,.51l.02-.13c-.01.1-.04.2-.05.3,0,.21.11.41.28.51.11.07.26.08.39.05.12-.03.24-.12.3-.23.06-.12.09-.26.05-.39s-.12-.23-.23-.3h0s.07.05.1.07c0,0-.01,0-.01-.01l.08.1s0-.01,0-.02l.05.12s0-.01,0-.02l.02.13s0-.03,0-.04l-.02.13c.03-.16.05-.31.06-.47s-.01-.32-.04-.47c-.02-.07-.05-.12-.09-.17-.04-.05-.08-.1-.14-.13-.11-.06-.27-.09-.39-.05s-.24.11-.3.23l-.05.12c-.02.09-.02.18,0,.27h0Z"/>
        <path class="cls-1" d="m498.38,182.28c0,.48-.17.98-.55,1.29-.34.28-.75.31-1.11.17-.17-.07-.34-.19-.43-.33-.07-.1-.09-.15-.11-.25.01.07,0-.09,0-.09,0,0,.01-.15,0-.09.03-.2.11-.36.23-.48.14-.14.27-.19.45-.19l-.5-.5c-.02.79-.31,1.52-.78,2.15-.15.2-.05.51.13.65s.5.16.66-.04c.75-.91,1.69-1.61,2.76-2.09l-.61-.79c-.96,1.01-2,1.95-3.11,2.8l.73.56c.17-.81.62-1.56,1.31-2.04l-.61-.79c-.97.83-1.93,1.66-2.9,2.49-.44.38.12,1.06.61.79,1.22-.7,2.48-1.31,3.79-1.82.25-.1.43-.34.35-.62-.07-.24-.36-.45-.62-.35-1.39.54-2.73,1.18-4.03,1.92l.61.79c.97-.83,1.93-1.66,2.9-2.49.43-.37-.14-1.11-.61-.79-.89.63-1.54,1.56-1.77,2.64-.04.2.01.4.18.53.15.11.4.16.56.04,1.18-.9,2.29-1.88,3.32-2.96.17-.18.2-.46.04-.66-.17-.21-.41-.23-.65-.13-1.14.51-2.17,1.29-2.97,2.25l.79.61c.58-.76.89-1.7.92-2.65,0-.28-.24-.49-.5-.5-1.27-.04-2.09,1.53-1.45,2.59s2.26,1.19,3.17.34c.53-.5.8-1.24.8-1.95,0-.64-1.01-.64-1,0h0Z"/>
        <path class="cls-1" d="m848,189.02c.62,1.03.89,2.21.81,3.41h1c.01-.72.05-1.43.11-2.15l-.98.13c.04.16.06.32.08.49l.98-.13c-.03-.17-.01-.34.02-.5h-.96c.16.52-.05,1.15-.13,1.67-.09.64-.16,1.27-.2,1.92l.98-.13c-.06-.17-.11-.34-.17-.52-.2-.61-1.17-.35-.96.27.06.17.11.34.17.52.18.54.95.44.98-.13.04-.65.11-1.3.2-1.95s.28-1.28.08-1.91c-.14-.45-.85-.5-.96,0-.08.35-.08.68-.02,1.04.09.55,1.03.43.98-.13-.02-.25-.06-.51-.12-.76-.13-.58-.94-.4-.98.13-.06.72-.09,1.43-.11,2.15-.01.65.96.64,1,0,.09-1.36-.25-2.74-.95-3.91-.33-.55-1.2-.05-.86.5h0Z"/>
        <path class="cls-1" d="m848.61,189.28c-.1.02-.19,0-.27-.05-.03-.04-.03-.04,0,0,.02.05.04.1.07.14.08.14.19.27.33.33.3.14.63.03.73-.3.15-.47-.3-.81-.62-1.07-.17-.13-.23-.17-.4-.31-.14-.11-.27-.24-.4-.36-.57-.52-1.16-1-1.95-1.06-.26-.02-.51.24-.5.5.01.29.22.48.5.5.04,0,.06,0,0,0,.04,0,.08.01.12.02.06.01.12.04.18.06.08.02-.09-.05.03.01.03.01.06.03.09.04.06.03.11.06.17.1.06.04.12.08.18.12.07.05-.05-.04.02.01.03.02.05.04.08.07.12.1.23.2.35.31.21.2.43.39.66.56.02.02.13.1.11.09-.03-.02.04.03.05.04.06.05.12.09.18.14.05.04.1.09.15.13.03.03.06.06.09.09.02.02.02.02,0,0-.05-.07-.07-.15-.04-.25l.73-.3c-.1-.05.07.04.04.06,0,0-.04-.08-.05-.09-.05-.1-.09-.18-.16-.27-.19-.22-.45-.31-.73-.24-.26.06-.43.37-.35.62.09.27.34.41.62.35h0Z"/>
        <path class="cls-1" d="m839.67,181.4c.82.7,1.76,1.23,2.59,1.92.78.65,1.49,1.38,2.09,2.19l.79-.61c-.8-1.02-1.22-2.29-2.23-3.15-.49-.42-1.14.22-.71.71.4.44.82.86,1.27,1.25.2.18.51.2.71,0,.18-.18.21-.53,0-.71-.45-.39-.88-.8-1.27-1.25l-.71.71c.99.85,1.43,2.14,2.23,3.15.35.44,1.13-.15.79-.61-.64-.86-1.37-1.65-2.19-2.34s-1.82-1.25-2.65-1.97c-.2-.18-.51-.2-.71,0-.18.18-.21.53,0,.71h0Z"/>
      </g>
      <line class="cls-3" x1="593.55" y1="344.24" x2="597.82" y2="376.35"/>
      <line class="cls-3" x1="597.82" y1="376.35" x2="742.42" y2="376.05"/>
      <line class="cls-3" x1="746.21" y1="344.24" x2="741.94" y2="376.35"/>
      <path class="cls-1" d="m606.07,367.71c16.07-.63,32.15-.25,48.23.11s32.12.71,48.16-.01c8.95-.4,17.88-1.15,26.75-2.39.63-.09.36-1.05-.27-.96-15.84,2.22-31.85,2.8-47.83,2.78-16-.02-31.99-.63-47.99-.81-9.02-.1-18.04-.06-27.05.29-.64.03-.64,1.03,0,1h0Z"/>
      <path class="cls-1" d="m735.74,359.88c-2.02.34-4.04.66-6.07.93l1.46-.2c-3.4.45-6.83.76-10.26.77s-6.78-.26-10.16-.51-6.59-.47-9.9-.41c-3.74.06-7.46.56-11.11,1.35s-7.1,1.75-10.72,2.26l1.46-.2c-1.61.21-3.22.33-4.85.29v11c13.4-.24,26.8-.47,40.19-.71,3.83-.07,7.66-.14,11.48-.2,1.43-.03,2.87-.6,3.89-1.61.95-.95,1.67-2.52,1.61-3.89-.14-3.02-2.42-5.45-5.5-5.5-11.95-.2-23.9,0-35.84.21s-23.89.46-35.84.34c-6.72-.07-13.43-.25-20.14-.6-1.36-.07-2.94.66-3.89,1.61s-1.67,2.52-1.61,3.89c.14,3.11,2.42,5.34,5.5,5.5,11.93.63,23.87.71,35.81.58,11.95-.12,23.89-.44,35.84-.56,6.72-.07,13.44-.08,20.16.03v-11c-13.4.24-26.8.47-40.19.71-3.83.07-7.66.14-11.48.2-1.43.03-2.87.6-3.89,1.61-.95.95-1.67,2.52-1.61,3.89.14,3.04,2.42,5.43,5.5,5.5,7.32.18,14.22-2.56,21.39-3.52l-1.46.2c5.41-.7,10.86-.27,16.27.12s10.92.59,16.41,0c3.5-.37,6.99-.9,10.46-1.48,1.28-.21,2.66-1.45,3.29-2.53.69-1.18.98-2.92.55-4.24s-1.26-2.61-2.53-3.29l-1.31-.55c-.97-.26-1.95-.26-2.92,0h0Z"/>
      <path class="cls-1" d="m602.48,370.6c7.51.98,15.09,1.36,22.65,1.76s15.06.75,22.59,1.05c4.3.17,8.61.33,12.92.47v-11c-10.39.82-20.82-.13-31.19-.83-2.91-.2-5.82-.42-8.71-.8l1.46.2c-3.25-.44-6.5-1.07-9.54-2.34l1.31.55c-1.42-.61-2.77-1.36-4-2.29l1.11.86c-.48-.37-.93-.77-1.36-1.19-1.01-.99-2.46-1.61-3.89-1.61-1.35,0-2.96.6-3.89,1.61s-1.68,2.42-1.61,3.89.55,2.85,1.61,3.89c5.88,5.76,14.32,7.07,22.17,7.82,3.82.36,7.66.57,11.49.83s7.93.53,11.9.65c4.38.14,8.76.11,13.13-.24,1.48-.12,2.81-.53,3.89-1.61.95-.95,1.67-2.52,1.61-3.89-.14-3.06-2.42-5.4-5.5-5.5-15.13-.5-30.28-1.09-45.39-2.09-4.27-.28-8.53-.64-12.77-1.2-1.29-.17-3.02.74-3.89,1.61-.95.95-1.67,2.52-1.61,3.89s.53,2.9,1.61,3.89l1.11.86c.86.5,1.78.75,2.78.75h0Z"/>
      <path class="cls-1" d="m600.16,359.89c-.01.12.02-.08,0,.02,0,.04-.01.08-.02.12-.01.08-.03.16-.05.23-.04.16-.1.32-.16.47-.01.03,0,.02.01-.03,0,.02-.02.04-.02.05-.02.04-.03.07-.05.11-.04.07-.07.14-.11.21s-.08.14-.13.2c-.02.03-.04.07-.07.1-.01.02-.1.14-.03.04l.84.22c-.09-.39-.19-.78-.28-1.18-.06-.26-.36-.42-.62-.35-.43.13-.83.37-1.11.72-.32.38-.5.81-.56,1.3-.02.19.15.39.31.46.19.08.39.03.55-.1.18-.16.37-.32.55-.47.2-.17.19-.53,0-.71-.21-.19-.49-.18-.71,0-.18.16-.37.32-.55.47l.85.35c-.02.15,0,0,0-.03,0-.04.02-.08.03-.11s.02-.08.04-.11c0-.02.02-.04.02-.06-.03.07-.03.08,0,.03.04-.07.07-.14.11-.21.02-.03.04-.06.06-.08.03-.04.03-.04-.02.02.01-.02.03-.03.04-.05.05-.06.11-.12.17-.17.02-.02.03-.03.05-.04.04-.03.03-.03-.02.02.02-.02.06-.04.08-.06.07-.04.13-.08.2-.12.02,0,.04-.02.06-.03-.07.03-.08.03-.03.01.04-.01.09-.03.13-.04l-.62-.35c.09.39.19.78.28,1.18.08.34.6.52.84.22.52-.66.83-1.41.93-2.24.03-.26-.25-.51-.5-.5-.3.01-.47.22-.5.5h0Z"/>
      <path class="cls-1" d="m597.07,360.5c-.01.38,0,.76.03,1.13.02.2.11.37.31.46.18.07.41.05.55-.1.29-.33.56-.68.8-1.05l-.91-.39c-.11.42-.24.84-.38,1.25-.08.24.07.5.29.59s.51.02.62-.2l.85-1.61c.12-.22.07-.49-.13-.65-.18-.14-.5-.16-.66.04l-.73.93c-.11.14-.22.29-.34.43-.01.01-.08.07-.08.09.06-.05.07-.05.03-.03-.05.03-.03.02.04-.01-.05.01-.04.01.05,0,.05,0,.1.01.14.04-.04-.03-.03-.02.03.03.05.07.06.08.03.03-.14-.29-.57-.32-.79-.1l-.02.02c.1-.11.22-.08.36.08.2-.02.3.03.3.16,0,.04,0,.05,0,.02,0-.05,0-.1-.01-.15,0-.11,0-.22-.01-.33,0-.24-.03-.49-.11-.72-.09-.25-.34-.44-.62-.35-.24.08-.44.35-.35.62.03.08.04.15.06.23.02.11,0-.12,0,0,0,.03,0,.07,0,.1.01.16,0,.31.02.47.01.25.03.5.25.66.26.2.6.13.83-.1l-.79-.1c.16.32.57.48.9.36.27-.1.43-.3.6-.51l.89-1.14-.79-.61-.85,1.61.91.39c.13-.42.27-.83.38-1.25.06-.24-.06-.49-.29-.59s-.49,0-.62.2c-.11.16-.22.32-.33.47-.04.06.06-.07.01-.02-.01.02-.03.04-.04.06-.03.04-.06.07-.09.11-.06.08-.13.15-.19.23l.85.35c-.04-.38-.05-.75-.03-1.13,0-.26-.24-.51-.5-.5-.28.01-.49.22-.5.5h0Z"/>
      <path class="cls-1" d="m596.82,361.25c.64,0,.64-1,0-1s-.64,1,0,1h0Z"/>
      <path class="cls-1" d="m596.28,360.68c0,.14,0,.29,0,.43,0,.11.02.22.04.32s.06.21.11.3c.03.06.07.11.13.14.05.04.1.07.17.09.12.03.28.02.39-.05s.2-.17.23-.3l.02-.13c0-.09-.02-.17-.07-.25,0,0,0-.02-.01-.03l.05.12c-.03-.07-.05-.15-.06-.23l.02.13c-.02-.18-.01-.37-.01-.55,0-.13-.06-.26-.15-.35s-.23-.15-.35-.15-.26.05-.35.15-.15.22-.15.35h0Z"/>
      <path class="cls-1" d="m597.04,360.32l-.04-.02c-.06-.04-.12-.06-.19-.06-.07-.01-.13-.01-.2,0-.07.02-.12.05-.17.09-.05.04-.1.08-.13.14l-.05.12c-.02.09-.02.18,0,.27l.05.12c.04.08.1.13.18.18l.04.02c.06.04.12.06.19.06.07.01.13.01.2,0,.07-.02.12-.05.17-.09.05-.04.1-.08.13-.14l.05-.12c.02-.09.02-.18,0-.27l-.05-.12c-.04-.08-.1-.13-.18-.18h0Z"/>
      <path class="cls-1" d="m596.38,361.44s0,.01,0,.02l.02-.13s0,.02,0,.03l.05-.12s0,.01-.01.02l.08-.1s-.01.01-.02.02c-.05.05-.08.1-.1.16-.03.06-.05.12-.04.19,0,.07.01.13.04.19.02.06.05.12.1.16l.1.08c.08.05.16.07.25.07l.13-.02c.08-.02.16-.07.22-.13.02-.02.04-.05.06-.07.02-.02.04-.05.05-.07l.05-.12h0s0,0,0,0c0,0,0,0,0-.01.01-.05.02-.1.02-.16,0-.07-.01-.13-.04-.19-.02-.06-.05-.12-.1-.16-.05-.05-.1-.08-.16-.1-.06-.03-.12-.05-.19-.04l-.13.02c-.08.02-.16.07-.22.13l-.08.1c-.05.08-.07.16-.07.25h0Z"/>
      <path class="cls-1" d="m617.96,361.3c4.1-.03,8.19-.07,12.29-.1v-1l-8.29.36v1c1.47-.07,2.93-.02,4.39.17v-1h-1.8v.99c3.2-.09,6.4.16,9.55.78l.13-.98c-1.23.03-2.46.02-3.68-.02l.25.93c.37-.22.74-.38,1.16-.5.47-.13.49-.84,0-.96-.63-.16-1.26-.22-1.9-.19v1c.83-.07,1.65-.13,2.48-.2.65-.05.64-.94,0-1-.6-.06-1.21-.11-1.81-.17l.13.98c.65-.12,1.3-.15,1.96-.11v-1l-2.3.12c-.65.03-.64.96,0,1,3.68.25,7.36.34,11.05.28l-.13-.98c-2.48.39-4.98.54-7.49.47l.13.98c3.05-1.01,6.28-.8,9.43-.5v-1c-.59.05-1.18.1-1.77.15-.63.05-.65.99,0,1,.92.01,1.84.06,2.75.15v-1h-.86c.04.32.09.65.13.98.43-.07.85-.08,1.28-.06v-1l-1.66-.02.25.93c.4-.21.78-.25,1.22-.2.64.08.63-.92,0-1s-1.18.05-1.72.33c-.45.23-.23.93.25.93l1.66.02c.65,0,.64-.97,0-1-.52-.03-1.02,0-1.54.09-.57.09-.42.98.13.98h.86c.65,0,.63-.94,0-1-.92-.09-1.83-.14-2.75-.15v1c.59-.05,1.18-.1,1.77-.15.64-.05.64-.94,0-1-3.24-.31-6.56-.5-9.7.53-.53.17-.44.97.13.98,2.6.07,5.19-.11,7.76-.51.56-.09.42-.99-.13-.98-3.69.06-7.37-.04-11.05-.28v1l2.3-.12c.64-.03.64-.96,0-1-.75-.04-1.48.01-2.22.15-.59.11-.39.93.13.98.6.06,1.21.11,1.81.17v-1c-.83.07-1.65.13-2.48.2-.63.05-.65,1.03,0,1,.56-.03,1.09.02,1.64.15v-.96c-.49.14-.96.34-1.4.6s-.24.91.25.93c1.23.05,2.46.05,3.68.02.54-.01.71-.87.13-.98-3.23-.64-6.52-.92-9.81-.82-.64.02-.65,1,0,1h1.8c.66.02.62-.91,0-.99-1.46-.19-2.92-.24-4.39-.17-.64.03-.65,1.03,0,1l8.29-.36c.64-.03.65-1.01,0-1-4.1.03-8.19.07-12.29.1-.64,0-.64,1.01,0,1h0Z"/>
      <path class="cls-1" d="m580.58,336.69c1.09.72,2.21,1.4,3.55,1.43.55.01.61-.66.25-.93-.42-.32-.86-.61-1.32-.86l-.39.91c.85.16,1.67.4,2.47.73.52.21.91-.69.39-.91-.39-.17-.79-.34-1.18-.5-.58-.25-1.09.57-.5.86.86.43,1.74.81,2.65,1.12.3.1.64-.17.63-.48-.02-.5-.23-.87-.64-1.15s-.95.27-.68.68c.36.55.81,1,1.38,1.34.5.31.98-.38.61-.79-.68-.74-1.45-1.38-2.3-1.92-.47-.3-1.06.43-.61.79.41.32.83.56,1.31.75.53.21.88-.65.39-.91l-.2-.11-.39.91c1.81.39,3.63.71,5.46.97.63.09.9-.88.27-.96-1.83-.25-3.65-.58-5.46-.97-.53-.12-.91.63-.39.91l.2.11.39-.91c-.31-.12-.61-.29-.87-.5l-.61.79c.78.5,1.47,1.09,2.1,1.77l.61-.79c-.42-.26-.75-.57-1.02-.98l-.68.68c.11.06.16.16.15.29l.63-.48c-.83-.28-1.63-.62-2.42-1.02l-.5.86,1.18.5.39-.91c-.8-.32-1.62-.57-2.47-.73-.53-.1-.91.63-.39.91.46.25.9.54,1.32.86l.25-.93c-1.15-.03-2.12-.68-3.05-1.3-.54-.36-1.04.51-.5.86h0Z"/>
      <path class="cls-1" d="m586.79,337.26l8.14,1.13.13-.98-1.55-.14v1l3,.03c.65,0,.64-.96,0-1l-6.15-.43v1l5.45.03c.65,0,.63-.95,0-1l-2.59-.21v1l3.38.15c.65.03.64-.95,0-1l-6.6-.49v1c4.81.02,9.62-.02,14.43-.14v-1l-6.26.18c-.65.02-.64.97,0,1l6.46.35v-1c-2.5.24-5.02.35-7.53.32v1l5.87.03c.65,0,.64-.97,0-1l-4.68-.2v1c6.46.08,12.92.15,19.38.05s12.65-.51,18.98-.97c3.54-.26,7.13-.36,10.63.35v-.96c-2.75.38-5.56.31-8.33.36s-5.62.07-8.43.05c-5.67-.04-11.29-.43-16.93-.97-3.15-.3-6.32-.51-9.49-.28-.43.03-.66.52-.35.85.61.65,1.39.98,2.28.97.66,0,.62-.92,0-1l-1.02-.13v1c5.53.58,11.05.51,16.58-.04,2.7-.27,5.31-.41,7.97.27,1.28.33,2.55.71,3.86.91s2.57.29,3.86.3c1.49,0,2.99-.08,4.47-.26.73-.09,1.46-.19,2.19-.32.42-.08,2.37-.7,2.41.02.02.5.66.68.93.25.16-.25.32-.51.47-.77.28-.48-.39-1.03-.79-.61-.15.16-.29.31-.44.47l.61-.08c-2.19-1-4.47-1.65-6.86-1.94v1l4.25.42-.13-.98c-1.84.6-3.7,1.11-5.59,1.53-.2.04-.38.27-.37.48v.06c.02.23.15.41.37.48.43.14.92-.21.84-.67-.11-.67-.89-.6-1.39-.59-1.87.06-3.73.13-5.6.19v1c1.71-.12,3.45-.14,5.14-.38s3.46-.4,5.19-.49v-1l-1,.08c-.64.05-.64,1.05,0,1l1-.08c.63-.05.65-1.03,0-1-1.69.08-3.37.24-5.04.46s-3.53.29-5.29.41c-.64.04-.65,1.02,0,1,1.05-.04,2.11-.07,3.16-.11.49-.02.97-.03,1.46-.05.24,0,.49-.02.73-.02.16,0,.32-.01.49-.02.28.07.33-.02.14-.26l.15-.35.28-.08.37.48v-.06c-.13.16-.25.32-.37.48,1.89-.42,3.75-.92,5.59-1.53.56-.18.42-.93-.13-.98l-4.25-.42c-.65-.06-.63.92,0,1,2.2.27,4.34.88,6.36,1.8.2.09.45.09.61-.08.15-.16.29-.31.44-.47l-.79-.61c-.15.26-.31.52-.47.77l.93.25c-.06-1.21-1.25-1.45-2.24-1.27-1.48.27-2.94.55-4.44.69-2.85.26-5.78.23-8.58-.43-1.36-.32-2.69-.77-4.08-.98s-2.76-.21-4.15-.12c-2.92.19-5.8.56-8.73.64-3.37.09-6.75-.05-10.1-.4-.64-.07-.63.92,0,1l1.02.13v-1c-.63,0-1.14-.22-1.57-.68l-.35.85c5.68-.42,11.35.58,17.01.94s11.4.35,17.09.27c3.11-.04,6.25.03,9.34-.4.49-.07.46-.87,0-.96-6.2-1.27-12.59-.17-18.83.19s-12.99.46-19.49.44c-3.64-.01-7.29-.05-10.93-.1-.65,0-.64.97,0,1l4.68.2v-1l-5.87-.03c-.64,0-.64.99,0,1,2.51.03,5.03-.08,7.53-.32.63-.06.65-.97,0-1l-6.46-.35v1l6.26-.18c.64-.02.65-1.02,0-1-4.81.11-9.62.16-14.43.14-.65,0-.64.95,0,1l6.6.49v-1l-3.38-.15c-.65-.03-.63.95,0,1l2.59.21v-1l-5.45-.03c-.65,0-.64.96,0,1l6.15.43v-1l-3-.03c-.65,0-.63.94,0,1l1.55.14c.55.05.69-.9.13-.98l-8.14-1.13c-.63-.09-.9.88-.27.96h0Z"/>
      <path class="cls-1" d="m646.7,337.69c13.48.1,26.96.1,40.44-.03,13.48-.12,26.96-.36,40.43-.71,7.57-.2,15.14-.43,22.71-.7.64-.02.65-1.01,0-1-13.79.12-27.57.24-41.36.35-6.93.06-13.87.12-20.8.18s-13.71,0-20.55.35c-3.76.19-7.48.62-11.21,1.05s-7.36.67-10.91-.4v.96c1.69-.54,3.43-.75,5.2-.63v-1c-.79.04-1.58.09-2.37.13-.64.03-.65.98,0,1,13.86.43,27.73.67,41.6.72s27.57-.09,41.36-.42c7.8-.19,15.61-.44,23.41-.74v-1c-10.05.9-20.14,1.34-30.22,1.3-2.89-.01-5.79-.06-8.68-.15-.64-.02-.64.98,0,1,10.08.31,20.18.15,30.25-.48,2.89-.18,5.77-.4,8.66-.66.63-.06.65-1.03,0-1-13.86.55-27.73.91-41.59,1.07s-27.57.14-41.36-.08c-7.81-.12-15.61-.31-23.41-.55v1c.79-.04,1.58-.09,2.37-.13.65-.04.64-.96,0-1-1.85-.13-3.7.1-5.47.67-.47.15-.48.82,0,.96,3.1.93,6.35.91,9.54.61s6.67-.81,10.02-1.05c6.82-.48,13.68-.44,20.51-.5,13.87-.12,27.74-.24,41.61-.36,7.81-.07,15.61-.13,23.42-.2v-1c-13.47.48-26.95.84-40.43,1.09-13.48.25-26.96.39-40.44.41-7.57.01-15.14-.01-22.72-.07-.64,0-.64,1,0,1h0Z"/>
      <path class="cls-1" d="m757.3,334.84c-.5,1.01-1.36,1.41-2.44,1.53s-2.1.21-3.16.21-2.2-.07-3.3,0-2.24.27-3.37.35c-.64.04-.65,1.01,0,1,2.47-.03,4.94.08,7.4.01,1.12-.03,2.23-.2,3.33-.41s2.12-.41,3.08-.94l-.68-.68c-.59.9-1.76.97-2.74,1.02-.64.04-.64,1.04,0,1,1.37-.08,2.79-.28,3.6-1.52.29-.44-.27-.91-.68-.68-.91.5-1.94.67-2.95.86-1.14.22-2.26.35-3.42.36-2.31.02-4.62-.05-6.93-.02v1c1.29-.09,2.56-.33,3.86-.37s2.52.07,3.78.01c2.04-.09,4.47-.14,5.5-2.22.28-.58-.58-1.08-.86-.5h0Z"/>
      <path class="cls-1" d="m759.95,335.67c-.46.14-.89.36-1.31.58s-.84.44-1.26.67c-.49.26-.16,1.1.39.91,1.12-.39,2.2-.9,3.2-1.54.22-.14.33-.45.18-.68-.14-.22-.45-.33-.68-.18-.95.61-1.92,1.08-2.96,1.43l.39.91c.4-.21.81-.43,1.21-.64.19-.1.37-.2.56-.29s.34-.15.57-.22c.25-.08.43-.35.35-.62s-.35-.43-.62-.35h0Z"/>
      <path class="cls-1" d="m760.17,335.84s.05-.08.08-.12c.03-.02.03-.02,0,0-.03.02-.02.01.04-.01,0,0-.16.05-.17.05-.16.05-.3.12-.43.22-.06.05-.12.1-.18.15-.05.04.07-.04.01-.01s-.05.04,0,0c-.05.03-.15.05-.2.07-.11.05-.18.09-.28.17-.02.02-.04.03-.06.05-.08.07-.02,0,0,0-.02,0-.11.06-.13.07-.05.03.1-.03,0,0-.02,0-.04.02-.06.02-.05.02-.11.03-.16.05-.27.08-.52.18-.74.37-.2.17-.19.53,0,.71.21.19.5.18.71,0,.08-.07-.06.03,0,0,.02-.01.05-.03.07-.04.01,0,.1-.05.03-.02s.03,0,.04-.01c.11-.04.22-.07.33-.1.13-.04.26-.09.38-.16.08-.04.15-.1.21-.16.02-.02.05-.05.07-.07-.08.05.03,0-.03.03-.07.02.04-.01.05-.01.02,0,.05-.02.07-.03.09-.04.17-.07.25-.13.07-.05.15-.11.22-.17s-.05.03,0,0c.01,0,.07-.05.08-.05l-.05.02s.04-.01.06-.02c.03,0,.06-.02.1-.03.09-.03.18-.06.26-.1.2-.11.32-.27.39-.47.09-.25-.1-.56-.35-.62-.28-.06-.52.09-.62.35h0Z"/>
      <path class="cls-1" d="m758.88,337.55s.03-.03.04-.04l-.1.08s.07-.04.11-.06l-.12.05c.09-.04.19-.07.28-.12.06-.03.12-.08.17-.12.01,0,.02-.02.03-.03.03-.04.07-.09.1-.14l.05-.12c.02-.07.02-.13,0-.2,0-.05-.01-.09-.03-.13-.02-.06-.05-.12-.1-.16l-.1-.08-.12-.05c-.07-.02-.13-.02-.2,0-.07,0-.13.02-.19.06-.08.04-.15.09-.22.15s-.12.13-.17.2c-.04.06-.06.12-.06.19-.01.07-.01.13,0,.2.02.07.05.12.09.17.04.05.08.1.14.13l.12.05c.09.02.18.02.27,0l.12-.05c.08-.04.13-.1.18-.18,0,0,0,0,0-.01l-.08.1s.06-.07.09-.09l-.1.08s.07-.05.11-.07l-.68-.68s-.01.02-.02.03l.08-.1s-.03.03-.04.04l.1-.08s-.07.04-.11.06l.12-.05c-.09.04-.18.07-.26.11-.02.01-.04.02-.06.04-.05.04-.11.08-.16.13-.05.05-.08.1-.1.16-.03.06-.05.12-.04.19,0,.07.01.13.04.19.02.06.05.12.1.16l.1.08c.08.05.16.07.25.07l.13-.02c.08-.02.16-.07.22-.13h0Z"/>
      <path class="cls-1" d="m758.87,337.6c.64,0,.64-1,0-1s-.64,1,0,1h0Z"/>
      <path class="cls-1" d="m759,337.51c.64,0,.64-1,0-1s-.64,1,0,1h0Z"/>
      <path class="cls-1" d="m759.42,337.36c.11-.05.22-.11.33-.17.13-.08.24-.18.36-.27l-.1.08c.05-.04.1-.07.16-.1l-.12.05c.19-.08.37-.15.54-.26.15-.1.29-.2.44-.3.11-.07.19-.17.23-.3.03-.12.02-.28-.05-.39-.14-.22-.45-.34-.68-.18s-.46.34-.72.46l.12-.05c-.12.05-.24.09-.35.16-.1.06-.19.15-.29.22l.1-.08c-.14.11-.31.19-.47.27-.11.05-.2.19-.23.3-.03.12-.02.28.05.39.16.24.43.3.68.18h0Z"/>
      <path class="cls-1" d="m625.74,338.23l3.31-.27-.13-.98c-3.26.53-6.59.34-9.78-.52l-.13.98c3.75.16,7.5.32,11.24.49l-.13-.98c-.36.07-.72.13-1.08.2-.57.1-.41.97.13.98,6.92.22,13.85.26,20.78.12.64-.01.64-1.01,0-1-6.93.14-13.86.1-20.78-.12l.13.98c.36-.07.72-.13,1.08-.2.58-.11.41-.96-.13-.98-3.75-.16-7.5-.32-11.24-.49-.57-.02-.67.84-.13.98,3.37.91,6.86,1.08,10.31.52.55-.09.43-1.03-.13-.98l-3.31.27c-.64.05-.64,1.05,0,1h0Z"/>
      <path class="cls-1" d="m729.79,359.65c-4.1.11-8.16.72-12.23,1.12-1.99.19-3.99.34-6,.33-1.01,0-2.03.06-2.96-.37-.84-.39-1.67-.55-2.59-.63v1c4.25-.41,8.52-.19,12.78-.26,2.12-.03,4.22-.18,6.32-.43s4.17-.5,6.22,0l-.22-.84c-1.32,1.09-3.32.87-4.92.93-1.85.06-3.7.09-5.56.08s-3.62-.06-5.43-.14c-.9-.04-1.81-.09-2.71-.15-.45-.03-.9-.06-1.35-.09-.33-.02-.67-.11-.96.1-.18.13-.29.33-.23.56.06.25.21.35.43.44.15.06.38,0,.49-.13l.03-.04c.43-.48-.28-1.19-.71-.71l-.03.04.49-.13-.06-.03.35.35-.02-.06-.23.56s.36.03.45.03c.25.02.49.04.74.05.45.03.9.06,1.36.09.94.06,1.89.1,2.84.14,1.89.07,3.79.11,5.68.11s3.79-.04,5.68-.12c1.61-.07,3.1-.1,4.4-1.17.29-.24.12-.75-.22-.84-2.07-.5-4.16-.31-6.25-.06s-4.2.42-6.32.46c-4.34.08-8.7-.16-13.03.26-.64.06-.65.95,0,1,.55.04,1.1.1,1.62.29.39.14.74.37,1.13.49.84.27,1.8.21,2.67.21,2.04,0,4.08-.13,6.12-.33,4.08-.4,8.13-1.01,12.23-1.12.64-.02.64-1.02,0-1h0Z"/>
      <path class="cls-1" d="m742.09,359.5c-.35.17-.43.56-.46.91,0,.03,0,.07,0,.1,0-.05,0-.03,0,0-.02.08-.04.15-.06.23-.03.08.01,0-.01.04-.02.04-.03.07-.05.11-.02.03-.03.06-.05.08,0,0-.09.13-.03.05l.84.22c-.11-.65-.23-1.31-.34-1.96-.04-.21-.28-.38-.48-.37s-.44.15-.48.37c-.17.94-.34,1.88-.51,2.82l.98.13c0-.69-.04-1.39-.12-2.08-.03-.25-.17-.46-.43-.49-.22-.03-.51.11-.55.36-.09.55-.15,1.1-.15,1.65h1l-.13-1.33c-.03-.26-.21-.51-.5-.5s-.49.22-.5.5c-.02.43.09.87.3,1.24.11.19.35.29.56.23.33-.09.52-.36.69-.64.15-.24.29-.49.42-.75l-.91-.39c-.09.4-.16.81-.21,1.23-.02.19.14.39.31.46.2.08.39.03.55-.1l.11-.09c.2-.17.18-.54,0-.71-.22-.2-.49-.18-.71,0l-.11.09.85.35s.01-.09.02-.13c0-.04,0-.03,0,0v-.05c.02-.09.03-.17.05-.26.03-.17.07-.35.11-.52.06-.24-.06-.49-.29-.59-.21-.09-.51-.02-.62.2-.1.21-.21.42-.34.62-.06.1-.12.19-.18.29-.01.02-.03.04-.05.07l.03-.04s-.04.04.01,0c-.05.03-.04.03.01,0l.56.23s-.04-.07-.06-.11c0,0-.04-.09-.02-.05.02.05-.02-.07-.03-.08-.01-.04-.02-.08-.03-.12,0-.03-.01-.06-.02-.1-.01-.05,0,.05,0-.04,0-.08,0-.16,0-.25h-1l.13,1.33c.03.26.21.51.5.5.27-.01.5-.22.5-.5,0-.25,0-.49.03-.74,0-.12.02-.24.04-.35.01-.11,0,.01.01-.08.01-.07.02-.14.03-.22l-.98-.13c.08.69.12,1.38.12,2.08,0,.25.19.46.43.49.23.03.5-.11.55-.36.17-.94.34-1.88.51-2.82h-.96c.11.65.23,1.31.34,1.96.06.35.61.51.84.22s.39-.58.47-.93c.03-.16.05-.32.06-.48,0-.07-.02.08,0,.02,0-.01,0-.09.02-.09,0,0-.05.09,0,.02-.02.02-.13.11-.05.07.24-.12.32-.47.18-.68-.16-.24-.43-.3-.68-.18h0Z"/>
      <path class="cls-1" d="m742.55,360.1c-.14.39-.24.79-.31,1.2-.02.14-.02.26.05.39.06.1.18.2.3.23.13.03.27.02.39-.05.1-.07.21-.17.23-.3.07-.41.17-.81.31-1.2.04-.12.01-.28-.05-.39s-.18-.2-.3-.23c-.13-.03-.27-.02-.39.05s-.19.17-.23.3h0Z"/>
      <path class="cls-1" d="m742.56,360.09c-.09.15-.1.29-.12.46-.01.1-.03.21-.04.31-.03.21-.05.42-.08.62l.02.13.05.12c.06.09.14.16.24.2.09.04.17.05.26.03.1-.01.22-.06.29-.14.09-.1.15-.2.19-.33.02-.09.03-.18.04-.27,0-.14,0-.28.01-.41s0-.28.01-.41-.01-.25-.08-.37c-.04-.08-.12-.16-.2-.2-.06-.04-.13-.05-.2-.06-.07,0-.15-.01-.21.01-.13.05-.23.11-.3.23-.06.11-.09.27-.05.39s.11.24.23.3.26.1.39.05h.01c-.09,0-.18,0-.27,0h.01s-.08-.03-.12-.05h0s-.07-.05-.1-.07h0s-.05-.06-.08-.09h0s-.03-.07-.05-.11c0,0,0,.02,0,.03l-.02-.13c0,.16,0,.33-.02.5s0,.32-.02.48l.02-.13s-.01.07-.03.11l.05-.12s-.02.04-.03.06l.08-.1h-.01c.28.13.57.25.85.37.04-.33.08-.67.12-1l-.02.13s.01-.07.03-.11l-.05.12s.01-.02.02-.03c.07-.11.08-.26.05-.39-.03-.12-.12-.24-.23-.3-.24-.13-.54-.06-.68.18h0Z"/>
      <path class="cls-1" d="m643.22,361.45l4.56.27-.13-.98c-.77.26-1.55.36-2.36.31l.13.98c.44-.17.89-.28,1.36-.3.27-.01.5-.22.5-.5,0-.26-.23-.51-.5-.5-.56.03-1.11.14-1.63.34s-.45.95.13.98c.89.06,1.79-.06,2.63-.35.54-.18.44-.95-.13-.98l-4.56-.27c-.27-.02-.5.24-.5.5,0,.28.23.48.5.5h0Z"/>
      <path class="cls-1" d="m646.43,361.47c.38.09.77.11,1.16.15.08,0,.17.03.25.03-.14,0,0,0,.04,0,.05,0,.09.02.14.03.08.02.16.04.24.06.02,0,.04.02.07.02.05.02.04.02-.02-.01.04,0,.09.05.13.06.23.12.56.06.68-.18s.07-.55-.18-.68c-.39-.21-.8-.28-1.23-.33-.18-.02-.36-.03-.54-.05-.05,0-.1,0-.14-.01-.02,0-.05,0-.07,0,.07.01.08.01.03,0-.09-.02-.19-.03-.28-.06-.25-.06-.55.08-.62.35s.08.55.35.62h0Z"/>
      <path class="cls-1" d="m648.1,360.64h-.12c.14.25.29.5.43.75,0,0,0,0,0,0l-.08.1s.01-.01.02-.02l-.1.08s0,0,.01,0l.1-.08s.08-.1.1-.16c.02-.04.03-.08.03-.13.01-.07.01-.13,0-.2l-.05-.12-.08-.1s-.1-.08-.16-.1c-.06-.03-.12-.05-.19-.04-.09,0-.19.01-.28.02-.07,0-.13.01-.19.04-.06.02-.12.05-.16.1-.05.05-.08.1-.1.16-.03.06-.05.12-.04.19l.02.13c.02.08.07.16.13.22l.1.08c.08.05.16.07.25.07.09,0,.18-.02.28-.02l-.25-.93s-.09.06-.12.09c0,0,0,0-.01.01l-.08.1s0,0,0,0c-.09.15-.09.35,0,.5s.25.25.43.25h.12c.07,0,.13-.01.19-.04.06-.02.12-.05.16-.1.05-.05.08-.1.1-.16.03-.06.05-.12.04-.19l-.02-.13c-.02-.08-.07-.16-.13-.22l-.1-.08c-.08-.05-.16-.07-.25-.07h0Z"/>
      <path class="cls-1" d="m680.96,362.6c4.12-.17,8.31-.16,12.41-.68.63-.08.64-1.08,0-1-4.1.52-8.28.51-12.41.68-.64.03-.64,1.03,0,1h0Z"/>
      <path class="cls-1" d="m698.04,360.48c-2.41-.31-4.86.18-7.25.45-1.16.13-2.32.21-3.48.33-.49.05-.97.16-1.45.25-.65.12-1.3.11-1.96.07l.13.98c.1-.03.19-.05.29-.08.62-.17.36-1.14-.27-.96-.1.03-.19.05-.29.08-.56.16-.42.94.13.98.61.04,1.22.06,1.82-.03.5-.07.98-.21,1.49-.27,1.19-.14,2.39-.21,3.58-.34,2.39-.27,4.84-.75,7.25-.45.64.08.63-.92,0-1h0Z"/>
      <path class="cls-1" d="m693.58,360.57c-.11.01-.21.03-.32.06-.07.02-.13.04-.2.05l.13-.02c-.11.01-.22.01-.33,0s-.22,0-.33-.02l.13.02s-.03,0-.04,0l.12.05h-.01s.07.05.1.07h0s.05.06.08.09h0s.03.07.05.11h0c-.08.18-.15.36-.23.55,0,0,.02-.01.03-.02l-.12.05s.04-.01.07-.02l-.13.02c.07,0,.15,0,.22,0,.08,0,.17,0,.25,0,.17,0,.33-.01.5-.03.14-.01.25-.05.35-.15.09-.09.15-.23.15-.35s-.05-.26-.15-.35c-.09-.08-.22-.16-.35-.15-.2.02-.39.03-.59.03-.25,0-.5-.03-.73.1-.19.11-.29.35-.23.56.05.19.2.33.38.38.08.02.17.03.25.03.11,0,.22.01.33.02.15,0,.29,0,.44-.04.1-.02.2-.06.31-.08l-.13.02h.02c.14-.02.25-.05.35-.15.09-.09.15-.23.15-.35s-.05-.26-.15-.35c-.09-.08-.22-.16-.35-.15h0Z"/>
      <path class="cls-1" d="m647.9,361.59c.35,0,.65.11.98.19.27.06.54.1.82.14.66.1,1.33.2,1.99.26,1.32.13,2.66.15,3.99.21.64.03.64-.97,0-1-1.33-.06-2.66-.07-3.99-.21-.65-.06-1.3-.16-1.94-.26s-1.22-.35-1.85-.34-.64,1.01,0,1h0Z"/>
      <path class="cls-1" d="m652.51,361.97c-.62,0-1.24.02-1.86.07-.26.02-.51.21-.5.5.01.25.22.52.5.5.62-.05,1.24-.08,1.86-.07.26,0,.51-.23.5-.5s-.22-.5-.5-.5h0Z"/>
      <path class="cls-1" d="m648.01,361.57c3.89.61,7.82.97,11.76,1.01l-.13-.98c-.54.14-1.07.22-1.63.23-.64.02-.64,1.02,0,1s1.27-.11,1.89-.27c.55-.14.43-.98-.13-.98-3.85-.05-7.69-.38-11.5-.98-.63-.1-.9.86-.27.96h0Z"/>
      <path class="cls-1" d="m648.29,361.63c.16,0,.33,0,.49.03l-.13-.02c.09.01.17.03.26.04.13.03.27.02.39-.05.1-.06.2-.18.23-.3.03-.13.02-.27-.05-.39-.07-.11-.17-.2-.3-.23-.29-.06-.59-.09-.88-.09-.13,0-.26.05-.35.15-.09.09-.15.23-.15.35s.05.26.15.35.22.15.35.15h0Z"/>
      <circle class="cls-3" cx="670.42" cy="180.94" r="180.44"/>
    </g>
  </g>
</svg>