<?xml version="1.0" encoding="UTF-8"?>
<svg xmlns="http://www.w3.org/2000/svg" viewBox="0 0 883.37 1010.68">
  <defs>
    <style>
      .cls-1, .cls-2, .cls-3, .cls-4 {
        fill: #fff;
      }

      .cls-2 {
        stroke: #1b1514;
      }

      .cls-2, .cls-3, .cls-4, .cls-5 {
        stroke-miterlimit: 10;
      }

      .cls-3 {
        stroke: #2c211f;
      }

      .cls-4 {
        stroke: #fff;
      }

      .cls-5 {
        fill: none;
        stroke: #1d1d1b;
      }

      .cls-6 {
        fill: #1d1d1b;
        font-family: MyriadPro-Regular, 'Myriad Pro';
        font-size: 21.94px;
      }
    </style>
  </defs>
  <g id="Capa_1" data-name="Capa 1">
    <path class="cls-5" d="m106.09,930.8c217.39,38.68,439.96,39.44,657.85,2.14"/>
    <line class="cls-5" x1="106.09" y1="99.4" x2="106.09" y2="930.8"/>
    <line class="cls-5" x1="763.56" y1="101.58" x2="763.56" y2="932.98"/>
    <line class="cls-5" x1=".5" y1="1010.68" x2=".5" y2="5.39"/>
    <line class="cls-5" x1="882.87" y1="1010.68" x2="882.87" y2="10.68"/>
    <circle class="cls-5" cx="441.53" cy="53.15" r="7.89"/>
    <line class="cls-5" x1="367.85" y1="945.18" x2="367.82" y2="90.5"/>
    <line class="cls-5" x1="513.9" y1="945.18" x2="513.87" y2="90.5"/>
    <g>
      <rect class="cls-5" x="368.25" y="774.02" width="145.65" height="31.7"/>
      <rect class="cls-5" x="473.87" y="774.02" width="40.03" height="31.7"/>
      <text class="cls-6" transform="translate(499.92 797.19) rotate(-90)"><tspan x="0" y="0">3</tspan></text>
    </g>
    <g>
      <rect class="cls-5" x="367.94" y="709.78" width="145.65" height="31.7"/>
      <rect class="cls-5" x="472.95" y="709.78" width="40.03" height="31.7"/>
      <text class="cls-6" transform="translate(499.01 732.77) rotate(-90)"><tspan x="0" y="0">4</tspan></text>
    </g>
    <g>
      <rect class="cls-5" x="367.84" y="645.54" width="145.65" height="31.7"/>
      <rect class="cls-5" x="473.46" y="645.54" width="40.03" height="31.7"/>
      <text class="cls-6" transform="translate(499.51 669.56) rotate(-90)"><tspan x="0" y="0">5</tspan></text>
    </g>
    <g>
      <rect class="cls-5" x="367.84" y="581.29" width="145.65" height="31.7"/>
      <rect class="cls-5" x="473.15" y="581.29" width="40.03" height="31.7"/>
      <text class="cls-6" transform="translate(497.58 604.98) rotate(-90)"><tspan x="0" y="0">6</tspan></text>
    </g>
    <g>
      <rect class="cls-5" x="367.84" y="517.05" width="145.65" height="31.7"/>
      <rect class="cls-5" x="472.54" y="517.05" width="40.03" height="31.7"/>
      <text class="cls-6" transform="translate(498.84 537.82) rotate(-90)"><tspan x="0" y="0">7</tspan></text>
    </g>
    <g>
      <rect class="cls-5" x="368.55" y="452.8" width="145.65" height="31.7"/>
      <rect class="cls-5" x="473.87" y="452.8" width="40.03" height="31.7"/>
      <text class="cls-6" transform="translate(500.4 473.21) rotate(-90)"><tspan x="0" y="0">8</tspan></text>
    </g>
    <g>
      <rect class="cls-5" x="367.84" y="388.56" width="145.65" height="31.7"/>
      <rect class="cls-5" x="473" y="388.56" width="40.03" height="31.7"/>
      <text class="cls-6" transform="translate(499.54 409.5) rotate(-90)"><tspan x="0" y="0">9</tspan></text>
    </g>
    <g>
      <rect class="cls-5" x="368.55" y="902.51" width="145.65" height="31.7"/>
      <rect class="cls-5" x="473.7" y="902.51" width="40.03" height="31.7"/>
      <text class="cls-6" transform="translate(499.16 924.39) rotate(-90)"><tspan x="0" y="0">1</tspan></text>
    </g>
    <g>
      <rect class="cls-5" x="368.33" y="324.32" width="145.65" height="31.7"/>
      <rect class="cls-5" x="474.09" y="324.32" width="40.03" height="31.7"/>
      <text class="cls-6" transform="translate(500.27 351.71) rotate(-90)"><tspan x="0" y="0">10</tspan></text>
    </g>
    <g>
      <rect class="cls-5" x="367.84" y="260.07" width="145.65" height="31.7"/>
      <rect class="cls-5" x="472.69" y="260.07" width="40.03" height="31.7"/>
      <text class="cls-6" transform="translate(499.71 288.21) rotate(-90)"><tspan x="0" y="0">11</tspan></text>
    </g>
    <g>
      <text class="cls-6" transform="translate(498.63 860.37) rotate(-90)"><tspan x="0" y="0">2</tspan></text>
      <rect class="cls-5" x="368.33" y="838.27" width="145.65" height="31.7"/>
      <rect class="cls-5" x="473.95" y="838.27" width="40.03" height="31.7"/>
    </g>
    <g>
      <rect class="cls-5" x="368.71" y="193.93" width="145.65" height="31.7"/>
      <rect class="cls-5" x="473.87" y="193.93" width="40.03" height="31.7"/>
      <text class="cls-6" transform="translate(500.89 222.35) rotate(-90)"><tspan x="0" y="0">12</tspan></text>
    </g>
    <g>
      <rect class="cls-5" x="368.25" y="127.79" width="145.65" height="31.7"/>
      <rect class="cls-5" x="473.87" y="127.79" width="40.03" height="31.7"/>
      <text class="cls-6" transform="translate(500.89 156.48) rotate(-90)"><tspan x="0" y="0">13</tspan></text>
    </g>
  </g>
  <g id="Capa_6" data-name="Capa 6">
    <g>
      <ellipse class="cls-2" cx="335.16" cy="313.41" rx="7.63" ry="15.61"/>
      <ellipse class="cls-2" cx="335.16" cy="344.65" rx="7.63" ry="15.61"/>
      <ellipse class="cls-2" cx="335.16" cy="295.3" rx="7.63" ry="15.61"/>
      <ellipse class="cls-2" cx="335.16" cy="359.5" rx="7.63" ry="15.61"/>
      <ellipse class="cls-2" cx="335.16" cy="329.04" rx="7.63" ry="15.61"/>
      <ellipse class="cls-2" cx="335.16" cy="399.64" rx="7.63" ry="15.61"/>
      <ellipse class="cls-2" cx="335.16" cy="430.88" rx="7.63" ry="15.61"/>
      <ellipse class="cls-2" cx="335.16" cy="381.52" rx="7.63" ry="15.61"/>
      <ellipse class="cls-2" cx="335.16" cy="445.72" rx="7.63" ry="15.61"/>
      <ellipse class="cls-2" cx="335.16" cy="415.25" rx="7.63" ry="15.61"/>
      <ellipse class="cls-2" cx="335.16" cy="482.2" rx="7.63" ry="15.61"/>
      <ellipse class="cls-2" cx="335.16" cy="513.44" rx="7.63" ry="15.61"/>
      <ellipse class="cls-2" cx="335.16" cy="464.08" rx="7.63" ry="15.61"/>
      <ellipse class="cls-2" cx="335.16" cy="528.28" rx="7.63" ry="15.61"/>
      <ellipse class="cls-2" cx="335.16" cy="496.18" rx="7.63" ry="15.61"/>
      <ellipse class="cls-2" cx="335.16" cy="546.4" rx="7.63" ry="15.61"/>
      <ellipse class="cls-2" cx="335.16" cy="577.64" rx="7.63" ry="15.61"/>
      <ellipse class="cls-2" cx="335.16" cy="528.28" rx="7.63" ry="15.61"/>
      <ellipse class="cls-2" cx="335.16" cy="592.48" rx="7.63" ry="15.61"/>
      <ellipse class="cls-2" cx="335.16" cy="562.01" rx="7.63" ry="15.61"/>
      <ellipse class="cls-2" cx="335.16" cy="610.6" rx="7.63" ry="15.61"/>
      <ellipse class="cls-2" cx="335.16" cy="641.84" rx="7.63" ry="15.61"/>
      <ellipse class="cls-2" cx="335.16" cy="592.48" rx="7.63" ry="15.61"/>
      <ellipse class="cls-2" cx="335.16" cy="656.68" rx="7.63" ry="15.61"/>
      <ellipse class="cls-2" cx="335.16" cy="626.22" rx="7.63" ry="15.61"/>
      <ellipse class="cls-2" cx="335.16" cy="674.36" rx="7.63" ry="15.61"/>
      <ellipse class="cls-2" cx="335.16" cy="705.59" rx="7.63" ry="15.61"/>
      <ellipse class="cls-2" cx="335.16" cy="656.24" rx="7.63" ry="15.61"/>
      <ellipse class="cls-2" cx="335.16" cy="720.44" rx="7.63" ry="15.61"/>
      <ellipse class="cls-2" cx="335.16" cy="689.98" rx="7.63" ry="15.61"/>
      <ellipse class="cls-2" cx="335.16" cy="741.38" rx="7.63" ry="15.61"/>
      <ellipse class="cls-2" cx="335.16" cy="772.62" rx="7.63" ry="15.61"/>
      <ellipse class="cls-2" cx="335.16" cy="721.22" rx="7.63" ry="15.61"/>
      <ellipse class="cls-2" cx="335.16" cy="787.47" rx="7.63" ry="15.61"/>
      <ellipse class="cls-2" cx="335.16" cy="757.01" rx="7.63" ry="15.61"/>
      <ellipse class="cls-3" cx="335.16" cy="820.39" rx="19.18" ry="19.8"/>
      <ellipse class="cls-2" cx="335.16" cy="197.57" rx="7.63" ry="15.61"/>
      <ellipse class="cls-2" cx="335.16" cy="228.81" rx="7.63" ry="15.61"/>
      <ellipse class="cls-2" cx="335.16" cy="179.46" rx="7.63" ry="15.61"/>
      <ellipse class="cls-2" cx="335.16" cy="243.66" rx="7.63" ry="15.61"/>
      <ellipse class="cls-2" cx="335.16" cy="213.19" rx="7.63" ry="15.61"/>
      <ellipse class="cls-2" cx="335.16" cy="283.8" rx="7.63" ry="15.61"/>
      <ellipse class="cls-2" cx="335.16" cy="315.04" rx="7.63" ry="15.61"/>
      <ellipse class="cls-2" cx="335.16" cy="265.67" rx="7.63" ry="15.61"/>
      <ellipse class="cls-2" cx="335.16" cy="329.87" rx="7.63" ry="15.61"/>
      <ellipse class="cls-2" cx="335.16" cy="80.11" rx="7.63" ry="15.61"/>
      <ellipse class="cls-2" cx="335.16" cy="111.35" rx="7.63" ry="15.61"/>
      <ellipse class="cls-2" cx="335.16" cy="61.98" rx="7.63" ry="15.61"/>
      <ellipse class="cls-2" cx="335.16" cy="126.18" rx="7.63" ry="15.61"/>
      <ellipse class="cls-2" cx="335.16" cy="95.74" rx="7.63" ry="15.61"/>
      <ellipse class="cls-2" cx="335.16" cy="166.33" rx="7.63" ry="15.61"/>
      <ellipse class="cls-2" cx="335.16" cy="197.57" rx="7.63" ry="15.61"/>
      <ellipse class="cls-2" cx="335.16" cy="148.22" rx="7.63" ry="15.61"/>
      <ellipse class="cls-2" cx="335.16" cy="212.42" rx="7.63" ry="15.61"/>
      <ellipse class="cls-2" cx="335.16" cy="16.11" rx="7.63" ry="15.61"/>
      <ellipse class="cls-2" cx="335.16" cy="47.35" rx="7.63" ry="15.61"/>
      <ellipse class="cls-2" cx="335.16" cy="62.2" rx="7.63" ry="15.61"/>
    </g>
    <rect class="cls-4" x="310.45" y="11.28" width="58.25" height="52.68"/>
  </g>
  <g id="Capa_7" data-name="Capa 7">
    <rect class="cls-4" x="313.58" y="91.53" width="43.17" height="14.59"/>
    <rect class="cls-4" x="321.27" y="77.41" width="33.19" height="12.89"/>
    <line class="cls-5" x1="316.79" y1="90.5" x2="351.45" y2="90.5"/>
    <path class="cls-1" d="m343.01,80.16c3.22,0,3.22-5,0-5s-3.22,5,0,5h0Z"/>
    <path class="cls-1" d="m343.45,79.61c3.22,0,3.22-5,0-5s-3.22,5,0,5h0Z"/>
    <path class="cls-1" d="m342.9,79.72c3.22,0,3.22-5,0-5s-3.22,5,0,5h0Z"/>
    <path class="cls-1" d="m342.57,79.72c3.22,0,3.22-5,0-5s-3.22,5,0,5h0Z"/>
    <path class="cls-1" d="m328.23,80.38c3.22,0,3.22-5,0-5s-3.22,5,0,5h0Z"/>
    <path class="cls-1" d="m327.79,80.27c3.22,0,3.22-5,0-5s-3.22,5,0,5h0Z"/>
    <path class="cls-1" d="m328.01,80.27c3.22,0,3.22-5,0-5s-3.22,5,0,5h0Z"/>
    <path class="cls-1" d="m327.57,80.27c3.22,0,3.22-5,0-5s-3.22,5,0,5h0Z"/>
    <path class="cls-1" d="m342.79,79.61c3.22,0,3.22-5,0-5s-3.22,5,0,5h0Z"/>
    <path class="cls-1" d="m326.94,61.06c2.17-.86,4.38-1.39,6.67-1.8.18-.03.17-.03-.03,0,.17-.02.34-.04.51-.06.25-.03.51-.05.77-.08.6-.05,1.2-.09,1.8-.1,1.21-.03,2.43,0,3.64.11,1.31.11,2.56-1.23,2.5-2.5-.06-1.45-1.1-2.38-2.5-2.5-4.95-.42-10.05.28-14.68,2.11-1.21.48-2.19,1.69-1.75,3.08.38,1.18,1.77,2.26,3.08,1.75h0Z"/>
    <path class="cls-1" d="m347.15,55.72c-10.04-1.16-20.13-.9-30.12.63-1.34.2-2.07,1.88-1.75,3.08.39,1.43,1.74,1.95,3.08,1.75,9.52-1.45,19.22-1.55,28.79-.45,1.34.16,2.5-1.26,2.5-2.5,0-1.48-1.15-2.34-2.5-2.5h0Z"/>
    <path class="cls-1" d="m324.4,65.1c13.33-2.2,27.06-2.09,40.35.31,1.33.24,2.69-.36,3.08-1.75.33-1.21-.41-2.83-1.75-3.08-14.25-2.57-28.73-2.66-43.01-.31-1.33.22-2.08,1.87-1.75,3.08.39,1.42,1.74,1.97,3.08,1.75h0Z"/>
    <path class="cls-1" d="m357.58,60.67c-9.32-.2-18.64.29-27.89,1.47-1.34.17-2.5,1.03-2.5,2.5,0,1.22,1.15,2.67,2.5,2.5,9.25-1.17,18.57-1.67,27.89-1.47,3.22.07,3.22-4.93,0-5h0Z"/>
    <path class="cls-1" d="m324.25,67.64c7.52-.91,15.17-.92,22.68.15l.66-4.91c-9.16,1.06-18.76-1.28-27.28,3.24-2.19,1.16-1.18,4.72,1.26,4.66,8.96-.23,17.92.14,26.84,1.09,2.77.29,3.46-4.52.66-4.91-8.8-1.22-17.81-1.17-26.34,1.55-2.16.69-2.59,4.38,0,4.82,4.61.79,9.23-.42,13.84-.74s9.25-.23,13.85.22c1.35.13,2.5-1.24,2.5-2.5,0-1.46-1.15-2.37-2.5-2.5-4.44-.43-8.91-.53-13.37-.25-2.23.14-4.45.39-6.66.69-2.07.28-4.25.62-6.33.26v4.82c7.64-2.44,15.79-2.64,23.69-1.55l.66-4.91c-8.92-.94-17.88-1.31-26.84-1.09l1.26,4.66c7.51-3.99,16.66-1.62,24.76-2.56,1.24-.14,2.3-.84,2.46-2.17.13-1.1-.55-2.57-1.79-2.74-7.98-1.13-16-1.3-24-.33-1.34.16-2.5,1.03-2.5,2.5,0,1.22,1.15,2.66,2.5,2.5h0Z"/>
    <path class="cls-1" d="m327.86,74.01c3.22,0,3.22-5,0-5s-3.22,5,0,5h0Z"/>
    <path class="cls-1" d="m327.57,74.01c3.22,0,3.22-5,0-5s-3.22,5,0,5h0Z"/>
    <path class="cls-1" d="m342.45,73.35c3.22,0,3.22-5,0-5s-3.22,5,0,5h0Z"/>
    <path class="cls-1" d="m342.82,73.27c3.22,0,3.22-5,0-5s-3.22,5,0,5h0Z"/>
    <path class="cls-1" d="m342.97,73.27c3.22,0,3.22-5,0-5s-3.22,5,0,5h0Z"/>
    <path class="cls-1" d="m342.9,79.57c3.22,0,3.22-5,0-5s-3.22,5,0,5h0Z"/>
    <path class="cls-1" d="m342.9,79.57c3.22,0,3.22-5,0-5s-3.22,5,0,5h0Z"/>
    <path class="cls-1" d="m327.79,80.16c3.22,0,3.22-5,0-5s-3.22,5,0,5h0Z"/>
    <path class="cls-1" d="m327.71,74.09c3.22,0,3.22-5,0-5s-3.22,5,0,5h0Z"/>
    <path class="cls-1" d="m327.42,74.09c3.22,0,3.22-5,0-5s-3.22,5,0,5h0Z"/>
    <path class="cls-5" d="m105.71,99.43c217.89-37.29,440.46-36.53,657.85,2.14"/>
    <rect class="cls-5" x="300.91" y="90.5" width="279.5" height="854.68"/>
    <path class="cls-1" d="m338.39,75.42c-.22.05-.45.09-.67.13-.1.02-.19.03-.29.05.31-.04.37-.05.18-.03-.42.04-.85.08-1.27.11-.86.06-1.72.1-2.58.15-1.79.1-3.58.21-5.37.31-1.3.08-2.56,1.1-2.5,2.5.06,1.29,1.1,2.58,2.5,2.5,1.86-.11,3.72-.22,5.58-.33s3.87-.17,5.75-.58c1.28-.28,2.15-1.84,1.75-3.08-.44-1.35-1.7-2.04-3.08-1.75h0Z"/>
    <path class="cls-1" d="m331.4,80.2c3.22,0,3.22-5,0-5s-3.22,5,0,5h0Z"/>
    <path class="cls-1" d="m339.82,79.66c3.22,0,3.22-5,0-5s-3.22,5,0,5h0Z"/>
    <path class="cls-1" d="m331.23,80.09c3.22,0,3.22-5,0-5s-3.22,5,0,5h0Z"/>
    <path class="cls-1" d="m330.14,73.96c3.22,0,3.22-5,0-5s-3.22,5,0,5h0Z"/>
    <path class="cls-1" d="m340.49,73.42c3.22,0,3.22-5,0-5s-3.22,5,0,5h0Z"/>
    <path class="cls-1" d="m341.29,73.37c3.22,0,3.22-5,0-5s-3.22,5,0,5h0Z"/>
  </g>
</svg>