<?xml version="1.0" encoding="UTF-8"?>
<svg xmlns="http://www.w3.org/2000/svg" viewBox="0 0 587.83 889.59">
  <defs>
    <style>
      .cls-1, .cls-2 {
        fill: #1f140f;
      }

      .cls-3 {
        fill: #fff;
      }

      .cls-3, .cls-4 {
        stroke: #1f140f;
        stroke-miterlimit: 10;
      }

      .cls-4 {
        fill: none;
      }

      .cls-2 {
        font-family: MyriadPro-Regular, 'Myriad Pro';
        font-size: 20px;
      }
    </style>
  </defs>
  <g id="Capa_1" data-name="Capa 1">
    <ellipse class="cls-3" cx="295.55" cy="835.76" rx="199.33" ry="53.33"/>
    <rect class="cls-3" x="145.8" y="98.51" width="296.43" height="732.32"/>
    <path class="cls-3" d="m145.8,830.83c0,12.61,66.36,22.83,148.21,22.83s148.21-10.22,148.21-22.83-66.36-22.83-148.21-22.83-148.21,10.22-148.21,22.83"/>
    <ellipse class="cls-3" cx="294.02" cy="98.13" rx="148.21" ry="16.38"/>
  </g>
  <g id="Capa_2" data-name="Capa 2">
    <path class="cls-1" d="m442.5,258.94c2.27-8.55,6.53-16.52,12.22-23.29s12.76-12.34,20.7-16.22c4.46-2.18,9.18-3.79,14.05-4.79.63-.13.36-1.09-.27-.96-8.8,1.8-17.12,5.65-24.31,11.01s-13.26,12.19-17.66,19.99c-2.48,4.4-4.41,9.1-5.71,13.98-.17.62.8.89.96.27h0Z"/>
    <line class="cls-4" x1="489.34" y1="214.17" x2="569.85" y2="214.17"/>
    <rect class="cls-4" x="480.88" y="128.42" width="106.44" height="86.22"/>
    <line class="cls-4" x1="480.6" y1="128.42" x2="450.23" y2="50.65"/>
    <line class="cls-4" x1="586.59" y1="128.42" x2="541.61" y2="50.49"/>
    <line class="cls-4" x1="450.23" y1="50.65" x2="541.61" y2="50.49"/>
    <line class="cls-4" x1="480.45" y1="210.04" x2="452.9" y2="114.14"/>
    <line class="cls-4" x1="450.23" y1="50.65" x2="452.9" y2="114.14"/>
    <line class="cls-4" x1="489.34" y1="214.17" x2="442.23" y2="215.32"/>
    <line class="cls-4" x1="442.26" y1="205.96" x2="480.88" y2="206.58"/>
    <path class="cls-1" d="m146.29,266.12c-2.3-8.67-6.62-16.72-12.36-23.59s-12.96-12.57-21.02-16.51c-4.54-2.22-9.34-3.88-14.29-4.89-.63-.13-.9.84-.27.96,8.66,1.77,16.83,5.54,23.92,10.8,7.1,5.27,13.1,12.04,17.44,19.74,2.44,4.33,4.33,8.94,5.6,13.74.17.62,1.13.36.96-.27h0Z"/>
    <line class="cls-4" x1="98.48" y1="221.61" x2="17.98" y2="221.61"/>
    <rect class="cls-4" x=".5" y="135.86" width="106.44" height="86.22" transform="translate(107.44 357.95) rotate(-180)"/>
    <line class="cls-4" x1="107.22" y1="135.86" x2="137.59" y2="58.09"/>
    <line class="cls-4" x1="1.24" y1="135.86" x2="46.22" y2="57.93"/>
    <line class="cls-4" x1="137.59" y1="58.09" x2="46.22" y2="57.93"/>
    <line class="cls-4" x1="107.38" y1="217.48" x2="134.93" y2="121.58"/>
    <line class="cls-4" x1="137.59" y1="58.09" x2="134.93" y2="121.58"/>
    <line class="cls-4" x1="98.48" y1="221.61" x2="145.59" y2="222.76"/>
    <line class="cls-4" x1="145.56" y1="213.4" x2="106.94" y2="214.02"/>
  </g>
  <g id="Capa_8" data-name="Capa 8">
    <rect class="cls-3" x="218.56" y="258.81" width="148" height="408.96"/>
    <line class="cls-4" x1="218.56" y1="258.81" x2="234.44" y2="243.93"/>
    <line class="cls-4" x1="366.56" y1="258.81" x2="376.66" y2="243.93"/>
    <line class="cls-4" x1="234.44" y1="243.93" x2="376.66" y2="243.93"/>
    <line class="cls-4" x1="376.66" y1="243.93" x2="376.66" y2="660.87"/>
    <line class="cls-4" x1="366.56" y1="667.77" x2="376.66" y2="660.87"/>
  </g>
  <g id="Capa_9" data-name="Capa 9">
    <line class="cls-4" x1="238.88" y1="256.05" x2="247.03" y2="247.68"/>
    <line class="cls-4" x1="251.03" y1="256.2" x2="259.23" y2="247.72"/>
    <line class="cls-4" x1="238.88" y1="256.05" x2="251.4" y2="255.98"/>
    <line class="cls-4" x1="246.68" y1="247.68" x2="258.83" y2="247.76"/>
    <line class="cls-4" x1="261.68" y1="255.98" x2="269.83" y2="247.61"/>
    <line class="cls-4" x1="273.83" y1="256.13" x2="282.03" y2="247.65"/>
    <line class="cls-4" x1="261.68" y1="255.98" x2="274.2" y2="255.91"/>
    <line class="cls-4" x1="269.48" y1="247.61" x2="281.63" y2="247.69"/>
    <line class="cls-4" x1="286.18" y1="255.98" x2="294.33" y2="247.61"/>
    <line class="cls-4" x1="298.33" y1="256.13" x2="306.53" y2="247.65"/>
    <line class="cls-4" x1="286.18" y1="255.98" x2="298.7" y2="255.91"/>
    <line class="cls-4" x1="293.98" y1="247.61" x2="306.13" y2="247.69"/>
    <line class="cls-4" x1="312.21" y1="255.91" x2="320.36" y2="247.54"/>
    <line class="cls-4" x1="324.36" y1="256.06" x2="332.56" y2="247.58"/>
    <line class="cls-4" x1="312.21" y1="255.91" x2="324.73" y2="255.83"/>
    <line class="cls-4" x1="320.01" y1="247.54" x2="332.16" y2="247.62"/>
    <line class="cls-4" x1="338.32" y1="256" x2="346.47" y2="247.63"/>
    <line class="cls-4" x1="350.47" y1="256.15" x2="358.67" y2="247.67"/>
    <line class="cls-4" x1="338.32" y1="256" x2="350.84" y2="255.93"/>
    <line class="cls-4" x1="346.12" y1="247.63" x2="358.27" y2="247.71"/>
  </g>
  <g id="Capa_10" data-name="Capa 10">
    <text class="cls-2" transform="translate(248.82 240.41)"><tspan x="0" y="0">1</tspan></text>
    <text class="cls-2" transform="translate(271.17 239.81)"><tspan x="0" y="0">2</tspan></text>
    <text class="cls-2" transform="translate(294.82 240.41)"><tspan x="0" y="0">3</tspan></text>
    <text class="cls-2" transform="translate(318.62 240.61)"><tspan x="0" y="0">4</tspan></text>
    <text class="cls-2" transform="translate(344.13 240.41)"><tspan x="0" y="0">5</tspan></text>
  </g>
</svg>