<?xml version="1.0" encoding="UTF-8"?>
<svg id="Capa_1" data-name="Capa 1" xmlns="http://www.w3.org/2000/svg" viewBox="0 0 587.82 943.54">
  <defs>
    <style>
      .cls-1, .cls-2 {
        fill: none;
      }

      .cls-3, .cls-4, .cls-5, .cls-6 {
        fill: #fff;
      }

      .cls-7 {
        fill: #5b5b5f;
        font-family: MyriadPro-Regular, 'Myriad Pro';
        font-size: 21px;
      }

      .cls-7, .cls-8 {
        isolation: isolate;
      }

      .cls-4 {
        stroke: #020102;
      }

      .cls-4, .cls-5, .cls-6, .cls-2 {
        stroke-miterlimit: 10;
      }

      .cls-5, .cls-2 {
        stroke: #000;
      }

      .cls-6 {
        stroke: #201814;
      }
    </style>
  </defs>
  <g id="Capa_1-2" data-name="Capa 1">
    <ellipse class="cls-5" cx="295.55" cy="889.71" rx="199.33" ry="53.33"/>
    <rect class="cls-5" x="145.8" y="152.47" width="296.43" height="732.32"/>
    <path class="cls-5" d="m145.8,884.78c0,12.61,66.36,22.83,148.21,22.83s148.22-10.22,148.22-22.83-66.36-22.83-148.21-22.83-148.22,10.22-148.22,22.83"/>
    <ellipse class="cls-5" cx="294.02" cy="152.09" rx="148.21" ry="16.38"/>
  </g>
  <g id="Capa_2" data-name="Capa 2">
    <path d="m442.5,312.9c2.27-8.55,6.53-16.52,12.22-23.29,5.69-6.76,12.76-12.34,20.7-16.22,4.46-2.18,9.18-3.79,14.05-4.79.63-.13.36-1.09-.27-.96-8.8,1.8-17.12,5.65-24.31,11.01-7.18,5.36-13.26,12.19-17.66,19.99-2.48,4.4-4.41,9.1-5.71,13.98-.15.64.82.9.98.28h0Z"/>
    <line class="cls-2" x1="489.34" y1="268.13" x2="569.84" y2="268.13"/>
    <rect class="cls-2" x="480.88" y="182.38" width="106.44" height="86.22"/>
    <line class="cls-2" x1="480.6" y1="182.38" x2="450.23" y2="104.61"/>
    <line class="cls-2" x1="586.58" y1="182.38" x2="541.61" y2="104.45"/>
    <line class="cls-2" x1="450.23" y1="104.61" x2="541.61" y2="104.45"/>
    <line class="cls-2" x1="480.45" y1="264" x2="452.89" y2="168.1"/>
    <line class="cls-2" x1="450.23" y1="104.61" x2="452.89" y2="168.1"/>
    <line class="cls-2" x1="489.34" y1="268.13" x2="442.23" y2="269.27"/>
    <line class="cls-2" x1="442.26" y1="259.92" x2="480.88" y2="260.54"/>
    <path d="m146.28,320.07c-2.3-8.67-6.62-16.72-12.36-23.59-5.75-6.88-12.96-12.57-21.02-16.51-4.54-2.22-9.34-3.88-14.29-4.89-.63-.13-.9.84-.27.96,8.66,1.77,16.83,5.54,23.92,10.8,7.1,5.27,13.1,12.04,17.44,19.74,2.44,4.33,4.33,8.94,5.6,13.74.18.64,1.15.38.98-.25h0Z"/>
    <line class="cls-2" x1="98.48" y1="275.57" x2="17.98" y2="275.57"/>
    <rect class="cls-2" x=".5" y="189.82" width="106.44" height="86.22"/>
    <line class="cls-2" x1="107.22" y1="189.82" x2="137.59" y2="112.05"/>
    <line class="cls-2" x1="1.24" y1="189.82" x2="46.21" y2="111.89"/>
    <line class="cls-2" x1="137.59" y1="112.05" x2="46.21" y2="111.89"/>
    <line class="cls-2" x1="107.38" y1="271.44" x2="134.93" y2="175.53"/>
    <line class="cls-2" x1="137.59" y1="112.05" x2="134.93" y2="175.53"/>
    <line class="cls-2" x1="98.48" y1="275.57" x2="145.59" y2="276.71"/>
    <line class="cls-2" x1="145.56" y1="267.36" x2="106.94" y2="267.98"/>
  </g>
  <g id="Capa_3" data-name="Capa 3">
    <line class="cls-2" x1="205.98" y1="288.1" x2="207.8" y2="851.3"/>
    <path d="m205.95,287.17c-6.14.9-12.61.95-18.66-.58-4.7-1.19-9.36-3.32-12.75-6.87-1.87-1.96-3.22-4.32-3.9-6.94-.16-.62-1.13-.36-.96.27,2.69,10.36,14.39,14.89,24.07,15.59,4.16.3,8.34.12,12.47-.49.63-.11.36-1.07-.27-.98h0Z"/>
    <line class="cls-2" x1="170.16" y1="272.91" x2="170.16" y2="841.94"/>
    <path d="m205.96,850.7c-5.94,1.24-12.08,1.13-18.06.22-4.72-.72-9.8-1.67-13.83-4.39-1.99-1.35-3.59-3.2-4.27-5.54-.18-.62-1.14-.35-.96.27,1.29,4.48,5.46,7.05,9.62,8.52,2.51.89,5.14,1.43,7.76,1.88,3.12.54,6.27.89,9.43.95,3.55.08,7.1-.21,10.58-.94.62-.13.36-1.1-.27-.97h0Z"/>
  </g>
  <g id="Capa_5" data-name="Capa 5">
    <circle class="cls-2" cx="188.27" cy="317.37" r="8.76"/>
    <circle class="cls-2" cx="188.27" cy="344.85" r="8.76"/>
    <circle class="cls-2" cx="188.27" cy="372.33" r="8.76"/>
    <circle class="cls-2" cx="188.32" cy="399.81" r="8.76"/>
    <circle class="cls-2" cx="188.32" cy="427.29" r="8.76"/>
    <circle class="cls-2" cx="188.32" cy="454.77" r="8.76"/>
    <circle class="cls-2" cx="188.32" cy="482.25" r="8.76"/>
    <circle class="cls-2" cx="188.32" cy="509.74" r="8.76"/>
    <circle class="cls-2" cx="188.27" cy="537.22" r="8.76"/>
    <circle class="cls-2" cx="188.32" cy="564.7" r="8.76"/>
    <circle class="cls-2" cx="188.32" cy="592.18" r="8.76"/>
    <circle class="cls-2" cx="188.32" cy="619.66" r="8.76"/>
    <circle class="cls-2" cx="188.32" cy="647.14" r="8.76"/>
    <circle class="cls-2" cx="188.32" cy="674.62" r="8.76"/>
    <circle class="cls-2" cx="188.32" cy="702.1" r="8.76"/>
    <circle class="cls-2" cx="188.32" cy="729.58" r="8.76"/>
    <circle class="cls-2" cx="187.91" cy="757.06" r="8.76"/>
    <circle class="cls-2" cx="188.32" cy="784.54" r="8.76"/>
    <circle class="cls-2" cx="187.91" cy="812.02" r="8.76"/>
  </g>
  <g id="Capa_7" data-name="Capa 7">
    <rect class="cls-1" x="107.38" y="272.49" width="44.46" height="574.12"/>
    <g id="_1_2_3_4_5_6_7_8_9_10_11_12_13_14_15_16_17_18_19_20_" data-name="12345 6 7 8 9 10 11 12 13 14 15 16 17 18 19 20" class="cls-8">
      <text class="cls-7" transform="translate(107.38 315.4)"><tspan x="0" y="0">19</tspan></text>
      <text class="cls-7" transform="translate(107.38 343.4)"><tspan x="0" y="0">18</tspan></text>
      <text class="cls-7" transform="translate(107.38 371.4)"><tspan x="0" y="0">17</tspan></text>
      <text class="cls-7" transform="translate(107.38 399.4)"><tspan x="0" y="0">16</tspan></text>
      <text class="cls-7" transform="translate(107.38 427.4)"><tspan x="0" y="0">15</tspan></text>
      <text class="cls-7" transform="translate(107.38 455.4)"><tspan x="0" y="0">14</tspan></text>
      <text class="cls-7" transform="translate(107.38 483.4)"><tspan x="0" y="0">13</tspan></text>
      <text class="cls-7" transform="translate(107.38 511.4)"><tspan x="0" y="0">12</tspan></text>
      <text class="cls-7" transform="translate(107.38 539.4)"><tspan x="0" y="0">11</tspan></text>
      <text class="cls-7" transform="translate(107.38 567.4)"><tspan x="0" y="0">10</tspan></text>
      <text class="cls-7" transform="translate(107.38 595.4)"><tspan x="0" y="0">09</tspan></text>
      <text class="cls-7" transform="translate(107.38 623.4)"><tspan x="0" y="0">08</tspan></text>
      <text class="cls-7" transform="translate(107.38 651.4)"><tspan x="0" y="0">07</tspan></text>
      <text class="cls-7" transform="translate(107.38 679.4)"><tspan x="0" y="0">06</tspan></text>
      <text class="cls-7" transform="translate(107.38 707.4)"><tspan x="0" y="0">05</tspan></text>
      <text class="cls-7" transform="translate(107.38 735.4)"><tspan x="0" y="0">04</tspan></text>
      <text class="cls-7" transform="translate(107.38 763.4)"><tspan x="0" y="0">03</tspan></text>
      <text class="cls-7" transform="translate(107.38 791.4)"><tspan x="0" y="0">02</tspan></text>
      <text class="cls-7" transform="translate(107.38 819.4)"><tspan x="0" y="0">01 </tspan></text>
    </g>
    <rect class="cls-1" x="103.58" y="290.19" width="206.67" height="574.12"/>
  </g>
  <g id="Capa_8" data-name="Capa 8">
    <g>
      <ellipse class="cls-4" cx="234.41" cy="238.4" rx="5.36" ry="10.63"/>
      <ellipse class="cls-4" cx="234.41" cy="259.67" rx="5.36" ry="10.63"/>
      <ellipse class="cls-4" cx="234.41" cy="226.07" rx="5.36" ry="10.63"/>
      <ellipse class="cls-4" cx="234.41" cy="269.78" rx="5.36" ry="10.63"/>
      <ellipse class="cls-4" cx="234.41" cy="249.04" rx="5.36" ry="10.63"/>
      <ellipse class="cls-4" cx="234.41" cy="297.11" rx="5.36" ry="10.63"/>
      <ellipse class="cls-4" cx="234.41" cy="318.38" rx="5.36" ry="10.63"/>
      <ellipse class="cls-4" cx="234.41" cy="284.77" rx="5.36" ry="10.63"/>
      <ellipse class="cls-4" cx="234.41" cy="328.48" rx="5.36" ry="10.63"/>
      <ellipse class="cls-4" cx="234.41" cy="307.74" rx="5.36" ry="10.63"/>
      <ellipse class="cls-4" cx="234.41" cy="353.32" rx="5.36" ry="10.63"/>
      <ellipse class="cls-4" cx="234.41" cy="374.59" rx="5.36" ry="10.63"/>
      <ellipse class="cls-4" cx="234.41" cy="340.98" rx="5.36" ry="10.63"/>
      <ellipse class="cls-4" cx="234.41" cy="384.69" rx="5.36" ry="10.63"/>
      <ellipse class="cls-4" cx="234.41" cy="362.84" rx="5.36" ry="10.63"/>
      <ellipse class="cls-4" cx="234.41" cy="397.03" rx="5.36" ry="10.63"/>
      <ellipse class="cls-4" cx="234.41" cy="418.3" rx="5.36" ry="10.63"/>
      <ellipse class="cls-4" cx="234.41" cy="384.69" rx="5.36" ry="10.63"/>
      <ellipse class="cls-4" cx="234.41" cy="428.4" rx="5.36" ry="10.63"/>
      <ellipse class="cls-4" cx="234.41" cy="407.66" rx="5.36" ry="10.63"/>
      <ellipse class="cls-4" cx="234.41" cy="440.74" rx="5.36" ry="10.63"/>
      <ellipse class="cls-4" cx="234.41" cy="462.01" rx="5.36" ry="10.63"/>
      <ellipse class="cls-4" cx="234.41" cy="428.4" rx="5.36" ry="10.63"/>
      <ellipse class="cls-4" cx="234.41" cy="472.11" rx="5.36" ry="10.63"/>
      <ellipse class="cls-4" cx="234.41" cy="451.37" rx="5.36" ry="10.63"/>
      <ellipse class="cls-4" cx="234.41" cy="484.15" rx="5.36" ry="10.63"/>
      <ellipse class="cls-4" cx="234.41" cy="505.41" rx="5.36" ry="10.63"/>
      <ellipse class="cls-4" cx="234.41" cy="471.81" rx="5.36" ry="10.63"/>
      <ellipse class="cls-4" cx="234.41" cy="515.52" rx="5.36" ry="10.63"/>
      <ellipse class="cls-4" cx="234.41" cy="494.78" rx="5.36" ry="10.63"/>
      <ellipse class="cls-4" cx="234.41" cy="529.78" rx="5.36" ry="10.63"/>
      <ellipse class="cls-4" cx="234.41" cy="551.05" rx="5.36" ry="10.63"/>
      <ellipse class="cls-4" cx="234.41" cy="516.05" rx="5.36" ry="10.63"/>
      <ellipse class="cls-4" cx="234.41" cy="561.16" rx="5.36" ry="10.63"/>
      <ellipse class="cls-4" cx="234.41" cy="540.42" rx="5.36" ry="10.63"/>
      <circle class="cls-6" cx="234.41" cy="583.57" r="13.48"/>
      <ellipse class="cls-4" cx="234.41" cy="159.53" rx="5.36" ry="10.63"/>
      <ellipse class="cls-4" cx="234.41" cy="180.8" rx="5.36" ry="10.63"/>
      <ellipse class="cls-4" cx="234.41" cy="147.2" rx="5.36" ry="10.63"/>
      <ellipse class="cls-4" cx="234.41" cy="190.91" rx="5.36" ry="10.63"/>
      <ellipse class="cls-4" cx="234.41" cy="170.17" rx="5.36" ry="10.63"/>
      <ellipse class="cls-4" cx="234.41" cy="218.24" rx="5.36" ry="10.63"/>
      <ellipse class="cls-4" cx="234.41" cy="239.51" rx="5.36" ry="10.63"/>
      <ellipse class="cls-4" cx="234.41" cy="205.9" rx="5.36" ry="10.63"/>
      <ellipse class="cls-4" cx="234.41" cy="249.61" rx="5.36" ry="10.63"/>
      <ellipse class="cls-4" cx="234.41" cy="79.56" rx="5.36" ry="10.63"/>
      <ellipse class="cls-4" cx="234.41" cy="100.83" rx="5.36" ry="10.63"/>
      <ellipse class="cls-4" cx="234.41" cy="67.22" rx="5.36" ry="10.63"/>
      <ellipse class="cls-4" cx="234.41" cy="110.93" rx="5.36" ry="10.63"/>
      <ellipse class="cls-4" cx="234.41" cy="90.2" rx="5.36" ry="10.63"/>
      <ellipse class="cls-4" cx="234.41" cy="138.26" rx="5.36" ry="10.63"/>
      <ellipse class="cls-4" cx="234.41" cy="159.53" rx="5.36" ry="10.63"/>
      <ellipse class="cls-4" cx="234.41" cy="125.93" rx="5.36" ry="10.63"/>
      <ellipse class="cls-4" cx="234.41" cy="169.64" rx="5.36" ry="10.63"/>
      <ellipse class="cls-4" cx="234.41" cy="35.99" rx="5.36" ry="10.63"/>
      <ellipse class="cls-4" cx="234.41" cy="57.26" rx="5.36" ry="10.63"/>
      <ellipse class="cls-4" cx="234.41" cy="67.37" rx="5.36" ry="10.63"/>
    </g>
  </g>
  <g id="Capa_9" data-name="Capa 9">
    <rect class="cls-3" x="216.21" y="167.09" width="36.41" height="121.72"/>
    <ellipse class="cls-5" cx="294.55" cy="152.47" rx="148.21" ry="16.38"/>
    <rect class="cls-3" x="197.27" width="46.33" height="136.09"/>
  </g>
</svg>