<?xml version="1.0" encoding="utf-8"?>
<!-- Generator: Adobe Adobe Illustrator 24.2.0, SVG Export Plug-In . SVG Version: 6.00 Build 0)  -->
<svg version="1.1" xmlns="http://www.w3.org/2000/svg" xmlns:xlink="http://www.w3.org/1999/xlink" x="0px" y="0px" width="1000px"
	 height="1000px" viewBox="0 0 1000 1000" style="enable-background:new 0 0 1000 1000;" xml:space="preserve">
<style type="text/css">
	.st0{fill:#FFFFFF;stroke:#000000;stroke-miterlimit:10;}
	.st1{fill:none;stroke:#000000;stroke-miterlimit:10;}
	.st2{display:none;fill:none;stroke:#000000;stroke-miterlimit:10;}
	.st3{fill:none;}
	.st4{fill:#5B5B5F;}
	.st5{font-family:'MyriadPro-Regular';}
	.st6{font-size:21px;}
</style>
<g id="Capa_1">
	<ellipse class="st0" cx="522.32" cy="890.98" rx="199.33" ry="53.33"/>
	<rect x="372.57" y="153.74" class="st0" width="296.43" height="732.32"/>
	<path class="st0" d="M372.57,886.05c0,12.61,66.36,22.83,148.21,22.83S669,898.66,669,886.05s-66.36-22.83-148.21-22.83
		S372.57,873.44,372.57,886.05"/>
	<ellipse class="st0" cx="520.79" cy="153.36" rx="148.21" ry="16.38"/>
</g>
<g id="Capa_2">
	<g>
		<g>
			<path d="M669.27,314.17c2.27-8.55,6.53-16.52,12.22-23.29c5.69-6.76,12.76-12.34,20.7-16.22c4.46-2.18,9.18-3.79,14.05-4.79
				c0.63-0.13,0.36-1.09-0.27-0.96c-8.8,1.8-17.12,5.65-24.31,11.01c-7.18,5.36-13.26,12.19-17.66,19.99
				c-2.48,4.4-4.41,9.1-5.71,13.98C668.14,314.53,669.11,314.79,669.27,314.17L669.27,314.17z"/>
		</g>
	</g>
	<line class="st1" x1="716.11" y1="269.4" x2="796.61" y2="269.4"/>
	<rect x="707.65" y="183.65" class="st1" width="106.44" height="86.22"/>
	<line class="st1" x1="707.37" y1="183.65" x2="677" y2="105.88"/>
	<line class="st1" x1="813.35" y1="183.65" x2="768.38" y2="105.72"/>
	<line class="st1" x1="677" y1="105.88" x2="768.38" y2="105.72"/>
	<line class="st1" x1="707.22" y1="265.27" x2="679.66" y2="169.37"/>
	<line class="st1" x1="677" y1="105.88" x2="679.66" y2="169.37"/>
	<line class="st1" x1="716.11" y1="269.4" x2="669" y2="270.54"/>
	<line class="st1" x1="669.03" y1="261.19" x2="707.65" y2="261.81"/>
	<g>
		<g>
			<path d="M373.05,321.34c-2.3-8.67-6.62-16.72-12.36-23.59c-5.75-6.88-12.96-12.57-21.02-16.51c-4.54-2.22-9.34-3.88-14.29-4.89
				c-0.63-0.13-0.9,0.84-0.27,0.96c8.66,1.77,16.83,5.54,23.92,10.8c7.1,5.27,13.1,12.04,17.44,19.74c2.44,4.33,4.33,8.94,5.6,13.74
				C372.25,322.23,373.22,321.97,373.05,321.34L373.05,321.34z"/>
		</g>
	</g>
	<line class="st1" x1="325.25" y1="276.84" x2="244.75" y2="276.84"/>
	
		<rect x="227.27" y="191.09" transform="matrix(-1 -4.488333e-11 4.488333e-11 -1 560.9792 468.4009)" class="st1" width="106.44" height="86.22"/>
	<line class="st1" x1="333.99" y1="191.09" x2="364.36" y2="113.32"/>
	<line class="st1" x1="228.01" y1="191.09" x2="272.98" y2="113.16"/>
	<line class="st1" x1="364.36" y1="113.32" x2="272.98" y2="113.16"/>
	<line class="st1" x1="334.15" y1="272.71" x2="361.7" y2="176.8"/>
	<line class="st1" x1="364.36" y1="113.32" x2="361.7" y2="176.8"/>
	<line class="st1" x1="325.25" y1="276.84" x2="372.36" y2="277.98"/>
	<line class="st1" x1="372.33" y1="268.63" x2="333.71" y2="269.25"/>
</g>
<g id="Capa_3">
	<line class="st1" x1="432.75" y1="289.37" x2="434.57" y2="852.57"/>
	<g>
		<g>
			<path d="M432.72,288.44c-6.14,0.9-12.61,0.95-18.66-0.58c-4.7-1.19-9.36-3.32-12.75-6.87c-1.87-1.96-3.22-4.32-3.9-6.94
				c-0.16-0.62-1.13-0.36-0.96,0.27c2.69,10.36,14.39,14.89,24.07,15.59c4.16,0.3,8.34,0.12,12.47-0.49
				C433.62,289.31,433.35,288.35,432.72,288.44L432.72,288.44z"/>
		</g>
	</g>
	<line class="st1" x1="396.93" y1="274.18" x2="396.93" y2="843.21"/>
	<g>
		<g>
			<path d="M432.73,851.97c-5.94,1.24-12.08,1.13-18.06,0.22c-4.72-0.72-9.8-1.67-13.83-4.39c-1.99-1.35-3.59-3.2-4.27-5.54
				c-0.18-0.62-1.14-0.35-0.96,0.27c1.29,4.48,5.46,7.05,9.62,8.52c2.51,0.89,5.14,1.43,7.76,1.88c3.12,0.54,6.27,0.89,9.43,0.95
				c3.55,0.08,7.1-0.21,10.58-0.94C433.62,852.81,433.36,851.84,432.73,851.97L432.73,851.97z"/>
		</g>
	</g>
</g>
<g id="Capa_4">
	<line class="st1" x1="608.35" y1="288.91" x2="606.52" y2="852.11"/>
	<g>
		<g>
			<path d="M608.11,288.95c6.35,0.94,13.02,1,19.27-0.6c4.9-1.25,9.79-3.53,13.27-7.29c1.9-2.05,3.29-4.5,3.99-7.21
				c0.16-0.62-0.8-0.89-0.96-0.27c-2.58,9.95-13.96,14.22-23.22,14.86c-4.03,0.28-8.09,0.12-12.08-0.47
				C607.75,287.89,607.48,288.86,608.11,288.95L608.11,288.95z"/>
		</g>
	</g>
	<line class="st1" x1="644.17" y1="273.72" x2="644.17" y2="842.75"/>
	<g>
		<g>
			<path d="M608.1,852.48c6.21,1.3,12.59,1.15,18.83,0.18c4.9-0.76,10.24-1.79,14.32-4.8c1.99-1.47,3.55-3.4,4.24-5.8
				c0.18-0.62-0.79-0.88-0.96-0.27c-1.24,4.31-5.44,6.66-9.43,8c-2.43,0.81-4.96,1.32-7.49,1.75c-2.99,0.51-6.02,0.82-9.05,0.88
				c-3.42,0.07-6.84-0.21-10.19-0.91C607.74,851.38,607.47,852.35,608.1,852.48L608.1,852.48z"/>
		</g>
	</g>
</g>
<g id="Capa_5">
	<circle class="st2" cx="414.84" cy="312.48" r="8.76"/>
	<circle class="st1" cx="414.63" cy="318.64" r="8.76"/>
	<circle class="st1" cx="414.63" cy="346.12" r="8.76"/>
	<circle class="st1" cx="414.63" cy="373.6" r="8.76"/>
	<circle class="st1" cx="414.68" cy="401.08" r="8.76"/>
	<circle class="st1" cx="414.68" cy="428.56" r="8.76"/>
	<circle class="st1" cx="414.68" cy="456.04" r="8.76"/>
	<circle class="st1" cx="414.68" cy="483.52" r="8.76"/>
	<circle class="st1" cx="414.68" cy="511.01" r="8.76"/>
	<circle class="st1" cx="414.63" cy="538.49" r="8.76"/>
	<circle class="st1" cx="414.68" cy="565.97" r="8.76"/>
	<circle class="st1" cx="414.68" cy="593.45" r="8.76"/>
	<circle class="st1" cx="414.68" cy="620.93" r="8.76"/>
	<circle class="st1" cx="414.68" cy="648.41" r="8.76"/>
	<circle class="st1" cx="414.68" cy="675.89" r="8.76"/>
	<circle class="st1" cx="414.68" cy="703.37" r="8.76"/>
	<circle class="st1" cx="414.68" cy="730.85" r="8.76"/>
	<circle class="st1" cx="414.27" cy="758.33" r="8.76"/>
	<circle class="st1" cx="414.68" cy="785.81" r="8.76"/>
	<circle class="st1" cx="414.27" cy="813.29" r="8.76"/>
</g>
<g id="Capa_6">
	<circle class="st2" cx="626.36" cy="312.48" r="8.76"/>
	<circle class="st1" cx="626.36" cy="321.24" r="8.76"/>
	<circle class="st1" cx="626.36" cy="348.72" r="8.76"/>
	<circle class="st1" cx="626.36" cy="376.2" r="8.76"/>
	<circle class="st1" cx="626.41" cy="403.68" r="8.76"/>
	<circle class="st1" cx="626.41" cy="431.16" r="8.76"/>
	<circle class="st1" cx="626.41" cy="458.64" r="8.76"/>
	<circle class="st1" cx="626.41" cy="486.12" r="8.76"/>
	<circle class="st1" cx="626.41" cy="513.6" r="8.76"/>
	<circle class="st1" cx="626.36" cy="541.08" r="8.76"/>
	<circle class="st1" cx="626.41" cy="568.56" r="8.76"/>
	<circle class="st1" cx="626.41" cy="596.04" r="8.76"/>
	<circle class="st1" cx="626.41" cy="623.52" r="8.76"/>
	<circle class="st1" cx="626.41" cy="651" r="8.76"/>
	<circle class="st1" cx="626.41" cy="678.48" r="8.76"/>
	<circle class="st1" cx="626.41" cy="705.96" r="8.76"/>
	<circle class="st1" cx="626.41" cy="733.44" r="8.76"/>
	<circle class="st1" cx="626" cy="760.93" r="8.76"/>
	<circle class="st1" cx="626.41" cy="788.41" r="8.76"/>
	<circle class="st1" cx="626" cy="815.89" r="8.76"/>
</g>
<g id="Capa_7">
	<rect x="692.18" y="277.98" class="st3" width="103.33" height="574.12"/>
	
		<text id="_x31__x03_2_x03_3_x03_4_x03_5_6_7_8_9_10_11_12_13_14_15_16_17_18_19_20_x03_" transform="matrix(1 0 0 1 692.1848 320.8934)"><tspan x="0" y="0" class="st4 st5 st6">19</tspan><tspan x="0" y="28" class="st4 st5 st6">18</tspan><tspan x="0" y="56" class="st4 st5 st6">17</tspan><tspan x="0" y="84" class="st4 st5 st6">16</tspan><tspan x="0" y="112" class="st4 st5 st6">15</tspan><tspan x="0" y="140" class="st4 st5 st6">14</tspan><tspan x="0" y="168" class="st4 st5 st6">13</tspan><tspan x="0" y="196" class="st4 st5 st6">12</tspan><tspan x="0" y="224" class="st4 st5 st6">11</tspan><tspan x="0" y="252" class="st4 st5 st6">10</tspan><tspan x="0" y="280" class="st4 st5 st6">09</tspan><tspan x="0" y="308" class="st4 st5 st6">08</tspan><tspan x="0" y="336" class="st4 st5 st6">07</tspan><tspan x="0" y="364" class="st4 st5 st6">06</tspan><tspan x="0" y="392" class="st4 st5 st6">05</tspan><tspan x="0" y="420" class="st4 st5 st6">04</tspan><tspan x="0" y="448" class="st4 st5 st6">03</tspan><tspan x="0" y="476" class="st4 st5 st6">02</tspan><tspan x="0" y="504" class="st4 st5 st6">01 </tspan></text>
	<rect x="325.44" y="277.98" class="st3" width="196" height="574.12"/>
	
		<text id="_x31__x03_2_x03_3_x03_4_x03_5_6_7_8_9_10_11_12_13_14_15_16_17_18_19_20_x03__00000095332410775402382370000003065971429791438243_" transform="matrix(1 0 0 1 325.4405 320.8934)"><tspan x="0" y="0" class="st4 st5 st6">19</tspan><tspan x="0" y="28" class="st4 st5 st6">18</tspan><tspan x="0" y="56" class="st4 st5 st6">17</tspan><tspan x="0" y="84" class="st4 st5 st6">16</tspan><tspan x="0" y="112" class="st4 st5 st6">15</tspan><tspan x="0" y="140" class="st4 st5 st6">14</tspan><tspan x="0" y="168" class="st4 st5 st6">13</tspan><tspan x="0" y="196" class="st4 st5 st6">12</tspan><tspan x="0" y="224" class="st4 st5 st6">11</tspan><tspan x="0" y="252" class="st4 st5 st6">10</tspan><tspan x="0" y="280" class="st4 st5 st6">09</tspan><tspan x="0" y="308" class="st4 st5 st6">08</tspan><tspan x="0" y="336" class="st4 st5 st6">07</tspan><tspan x="0" y="364" class="st4 st5 st6">06</tspan><tspan x="0" y="392" class="st4 st5 st6">05</tspan><tspan x="0" y="420" class="st4 st5 st6">04</tspan><tspan x="0" y="448" class="st4 st5 st6">03</tspan><tspan x="0" y="476" class="st4 st5 st6">02</tspan><tspan x="0" y="504" class="st4 st5 st6">01 </tspan></text>
</g>
</svg>
